<svg width="135" height="177" viewBox="0 0 135 177" fill="none" xmlns="http://www.w3.org/2000/svg">
<path d="M36.2758 115.992H101.628V160.979H36.2758V115.992ZM93.6492 104.489L101.628 115.992H120.098L125.805 98.9456H95.5105L93.6492 104.489ZM55.9706 1.02637H34.2845L8.21875 32.7719V57.1953H55.9706V1.02637Z" fill="url(#paint0_linear_3582_15718)"/>
<path d="M133.018 141.155H120.098C119.53 141.155 119.072 140.696 119.072 140.128C119.072 139.56 119.53 139.102 120.098 139.102H131.992V58.2287H2.05296V139.102H36.2758C36.8438 139.102 37.3022 139.56 37.3022 140.128C37.3022 140.696 36.8438 141.155 36.2758 141.155H1.02648C0.458494 141.155 0 140.696 0 140.128V57.2023C0 56.6343 0.458494 56.1758 1.02648 56.1758H133.018C133.586 56.1758 134.044 56.6343 134.044 57.2023V140.128C134.044 140.696 133.586 141.155 133.018 141.155Z" fill="#6A2EA0"/>
<path d="M55.9707 58.2287H8.21886C7.65088 58.2287 7.19238 57.7702 7.19238 57.2022V32.7721C7.19238 32.5325 7.2745 32.3067 7.42505 32.1219L33.4976 0.376376C33.6892 0.136864 33.9835 0 34.2846 0H55.9707C56.5386 0 56.9971 0.458494 56.9971 1.02648V57.2022C56.9971 57.7634 56.5386 58.2287 55.9707 58.2287ZM9.24534 56.1758H54.9442V2.05296H34.7705L9.24534 33.1416V56.1758Z" fill="#6A2EA0"/>
<path d="M34.2843 30.1374C33.7163 30.1374 33.2578 29.6789 33.2578 29.1109V1.02648C33.2578 0.458494 33.7163 0 34.2843 0C34.8523 0 35.3108 0.458494 35.3108 1.02648V29.1109C35.3108 29.6789 34.8523 30.1374 34.2843 30.1374Z" fill="#6A2EA0"/>
<path d="M45.0762 52.4874C48.6742 52.4874 51.591 49.5707 51.591 45.9727C51.591 42.3747 48.6742 39.458 45.0762 39.458C41.4783 39.458 38.5615 42.3747 38.5615 45.9727C38.5615 49.5707 41.4783 52.4874 45.0762 52.4874Z" fill="white"/>
<path d="M89.1192 52.4943C85.5265 52.4943 82.6045 49.5722 82.6045 45.9796C82.6045 42.3869 85.5265 39.4648 89.1192 39.4648C92.7119 39.4648 95.6339 42.3869 95.6339 45.9796C95.6339 49.5722 92.7119 52.4943 89.1192 52.4943ZM89.1192 41.511C86.6557 41.511 84.6575 43.516 84.6575 45.9727C84.6575 48.4294 86.6625 50.4345 89.1192 50.4345C91.5759 50.4345 93.581 48.4294 93.581 45.9727C93.581 43.516 91.5828 41.511 89.1192 41.511Z" fill="#6A2EA0"/>
<path d="M111.03 52.4943C107.438 52.4943 104.516 49.5722 104.516 45.9796C104.516 42.3869 107.438 39.4648 111.03 39.4648C114.623 39.4648 117.545 42.3869 117.545 45.9796C117.545 49.5722 114.623 52.4943 111.03 52.4943ZM111.03 41.511C108.567 41.511 106.569 43.516 106.569 45.9727C106.569 48.4294 108.574 50.4345 111.03 50.4345C113.487 50.4345 115.492 48.4294 115.492 45.9727C115.492 43.516 113.494 41.511 111.03 41.511Z" fill="#6A2EA0"/>
<path d="M100.137 58.2287H78.0948C77.5269 58.2287 77.0684 57.7702 77.0684 57.2022V1.02648C77.0684 0.458494 77.5269 0 78.0948 0H100.137C100.705 0 101.163 0.458494 101.163 1.02648V57.2022C101.163 57.7634 100.705 58.2287 100.137 58.2287ZM79.1213 56.1758H99.1103V2.05296H79.1213V56.1758Z" fill="#6A2EA0"/>
<path d="M122.179 58.2287H100.137C99.5688 58.2287 99.1104 57.7702 99.1104 57.2022V1.02648C99.1104 0.458494 99.5688 0 100.137 0H122.179C122.747 0 123.205 0.458494 123.205 1.02648V57.2022C123.205 57.7634 122.747 58.2287 122.179 58.2287ZM101.163 56.1758H121.152V2.05296H101.163V56.1758Z" fill="#6A2EA0"/>
<path d="M101.628 162.006H36.2755C35.7075 162.006 35.249 161.547 35.249 160.979V115.992C35.249 115.424 35.7075 114.966 36.2755 114.966H120.098C120.666 114.966 121.124 115.424 121.124 115.992V148.662C121.124 149.23 120.666 149.688 120.098 149.688C119.53 149.688 119.071 149.23 119.071 148.662V117.019H102.654V160.979C102.654 161.547 102.196 162.006 101.628 162.006ZM37.302 159.953H100.602V117.019H37.302V159.953Z" fill="#6A2EA0"/>
<path d="M101.628 117.019H36.2758C35.9405 117.019 35.6257 116.855 35.4341 116.574L23.609 99.5276C23.3901 99.2128 23.3627 98.8022 23.5406 98.4669C23.7185 98.1316 24.0675 97.9194 24.4508 97.9194H89.8033C90.1386 97.9194 90.4534 98.0837 90.645 98.3642L102.47 115.411C102.689 115.725 102.716 116.136 102.538 116.471C102.361 116.807 102.012 117.019 101.628 117.019ZM36.8164 114.966H99.6711L89.2695 99.9724H26.4079L36.8164 114.966Z" fill="#6A2EA0"/>
<path d="M78.0945 73.6189H1.02648C0.458494 73.6189 0 73.1604 0 72.5924C0 72.0244 0.458494 71.5659 1.02648 71.5659H78.0945C78.6625 71.5659 79.121 72.0244 79.121 72.5924C79.121 73.1604 78.6625 73.6189 78.0945 73.6189Z" fill="#6A2EA0"/>
<path d="M120.099 176.438C122.589 176.438 124.608 174.419 124.608 171.929C124.608 169.438 122.589 167.419 120.099 167.419C117.608 167.419 115.589 169.438 115.589 171.929C115.589 174.419 117.608 176.438 120.099 176.438Z" fill="#0061FF"/>
<defs>
<linearGradient id="paint0_linear_3582_15718" x1="0.218029" y1="35.0956" x2="113.865" y2="148.743" gradientUnits="userSpaceOnUse">
<stop stop-color="#FF4C84"/>
<stop offset="0.1681" stop-color="#DF599A"/>
<stop offset="0.7433" stop-color="#7680E2"/>
<stop offset="1" stop-color="#4C90FF"/>
</linearGradient>
</defs>
</svg>
