<svg width="347" height="324" viewBox="0 0 347 324" fill="none" xmlns="http://www.w3.org/2000/svg">
<path d="M284.861 86.9062C295.916 86.9062 304.914 77.916 304.914 66.8711C304.914 55.8262 295.916 46.8359 284.861 46.8359C273.806 46.8359 264.808 55.8262 264.808 66.8711C264.808 77.916 273.806 86.9062 284.861 86.9062ZM284.861 49.1898C294.616 49.1898 302.55 57.1172 302.55 66.8632C302.55 76.6091 294.616 84.5366 284.861 84.5366C275.107 84.5366 267.172 76.6091 267.172 66.8632C267.172 57.1172 275.107 49.1898 284.861 49.1898Z" fill="#6A2EA0"/>
<path d="M121.585 244.857C121.585 250.108 125.847 254.367 131.103 254.367C136.358 254.367 140.621 250.108 140.621 244.857C140.621 239.606 136.358 235.347 131.103 235.347C125.847 235.347 121.585 239.606 121.585 244.857ZM256.195 285.022H279.463C280.85 285.022 308.357 284.03 308.357 284.03C308.357 284.03 281.015 278.582 278.021 277.441C261.049 274.26 232.416 252.8 232.416 252.8C213.592 261.798 202.19 254.493 202.19 254.493C199.63 256.902 197.502 258.114 195.816 258.673L191.12 275.355H246.535C251.862 275.362 256.195 279.684 256.195 285.022ZM319.38 277.441C319.38 266.026 310.122 256.776 298.697 256.776C298.184 256.776 297.672 256.8 297.168 256.839L233.471 238.764L209.873 240.622L197.542 252.525L215.837 187.586C219.367 175.061 230.8 166.409 243.817 166.409H247.126V188.814C247.126 195.175 252.287 200.339 258.662 200.339C265.028 200.339 270.197 195.183 270.197 188.814V166.409H271.678C284.435 166.409 295.821 174.384 300.17 186.358L328.047 263.097C331.238 271.875 326.432 281.054 318.308 284.022C319.002 281.96 319.38 279.747 319.38 277.441ZM27.1114 292.878C27.1114 292.878 27.1114 301.034 27.1114 307.852C27.1114 314.669 35.755 322.809 35.755 322.809H39.5765H51.1828H55.0043C55.0043 322.809 63.6479 314.669 63.6479 307.852C63.6479 301.034 63.6479 292.878 63.6479 292.878H52.3726H38.3867H27.1114ZM211.992 125.89C222.669 124.41 236.079 106.776 237.726 95.9991C237.498 119.128 269.023 125.89 269.023 125.89C269.023 125.89 269.054 121.324 268.999 118.648C268.991 118.16 279.14 116.766 280.314 123.631C281.157 128.551 277.091 137.439 270.189 137.156L269.677 144.012C286.294 140.21 298.697 125.363 298.697 107.603C298.697 99.0535 295.813 91.1733 290.975 84.8755C296.222 81.0338 299.406 74.5391 298.555 67.3752C297.538 58.7865 290.581 51.9061 281.977 50.9535C270.599 49.7018 260.97 58.5661 260.97 69.674C260.97 69.8629 260.978 70.044 260.986 70.2329C219.446 69.115 206.469 108.555 211.992 125.89Z" fill="url(#paint0_linear_3496_7344)"/>
<path d="M152.984 20.7866C163.023 36.1062 160.517 56.8577 146.342 69.2724C132.238 81.6241 111.468 81.4588 97.5768 69.6975L152.984 20.7866Z" fill="#FF4C84"/>
<path d="M64.4126 137.494C62.4109 137.494 60.7881 135.873 60.7881 133.873C60.7881 131.873 62.4109 130.251 64.4126 130.251C66.4144 130.251 68.0371 131.873 68.0371 133.873C68.0371 135.873 66.4144 137.494 64.4126 137.494Z" fill="#0061FF"/>
<path d="M102.233 137.494C100.231 137.494 98.6084 135.873 98.6084 133.873C98.6084 131.873 100.231 130.251 102.233 130.251C104.235 130.251 105.857 131.873 105.857 133.873C105.857 135.873 104.235 137.494 102.233 137.494Z" fill="#0061FF"/>
<path d="M157.797 137.494C155.796 137.494 154.173 135.873 154.173 133.873C154.173 131.873 155.796 130.251 157.797 130.251C159.799 130.251 161.422 131.873 161.422 133.873C161.422 135.873 159.799 137.494 157.797 137.494Z" fill="#0061FF"/>
<path d="M198.204 252.328C198.724 252.328 199.196 251.981 199.338 251.462C199.464 251.005 212.134 205.338 218.044 185.145C223.685 165.858 246.788 167.621 247.024 167.645C247.67 167.7 248.245 167.22 248.3 166.566C248.356 165.913 247.875 165.346 247.221 165.291C246.969 165.268 221.952 163.362 215.774 184.484C209.857 204.692 197.187 250.375 197.061 250.832C196.888 251.462 197.258 252.107 197.888 252.288C197.999 252.312 198.101 252.328 198.204 252.328Z" fill="#6A2EA0"/>
<path d="M258.662 192.522C265.674 192.522 271.379 186.822 271.379 179.816V174.541C271.379 173.888 270.851 173.361 270.197 173.361C269.543 173.361 269.015 173.888 269.015 174.541V179.816C269.015 185.515 264.374 190.16 258.662 190.16C252.949 190.16 248.308 185.523 248.308 179.816V157.742C248.308 157.088 247.78 156.561 247.126 156.561C246.472 156.561 245.944 157.088 245.944 157.742V179.816C245.944 186.822 251.649 192.522 258.662 192.522Z" fill="#6A2EA0"/>
<path d="M308.356 260.877C308.869 260.877 309.349 260.539 309.491 260.019C309.672 259.389 309.302 258.736 308.672 258.563L233.613 237.386C233.471 237.347 233.329 237.331 233.188 237.347L209.471 239.449C209.203 239.472 208.951 239.583 208.762 239.772L193.413 254.359C192.94 254.808 192.924 255.556 193.373 256.028C193.822 256.5 194.571 256.516 195.044 256.067L210.093 241.763L233.188 239.716L308.033 260.83C308.144 260.862 308.246 260.877 308.356 260.877Z" fill="#6A2EA0"/>
<path d="M267.825 231.136C274.893 231.136 280.637 225.389 280.637 218.335C280.637 217.682 280.109 217.154 279.455 217.154C278.801 217.154 278.273 217.682 278.273 218.335C278.273 224.09 273.585 228.774 267.825 228.774C262.065 228.774 257.377 224.09 257.377 218.335C257.377 217.682 256.849 217.154 256.195 217.154C255.541 217.154 255.013 217.682 255.013 218.335C255.013 225.389 260.757 231.136 267.825 231.136Z" fill="#6A2EA0"/>
<path d="M223.268 240.307C223.835 240.307 224.339 239.897 224.434 239.315L226.341 227.632C226.412 227.184 226.223 226.735 225.844 226.475C223.024 224.523 221.345 221.311 221.345 217.886C221.345 217.233 220.817 216.706 220.163 216.706C219.509 216.706 218.981 217.233 218.981 217.886C218.981 221.83 220.802 225.546 223.89 227.963L222.102 238.937C221.999 239.583 222.433 240.189 223.079 240.291C223.142 240.299 223.205 240.307 223.268 240.307Z" fill="#6A2EA0"/>
<path d="M298.697 257.957C298.808 257.957 298.926 257.941 299.036 257.909C299.659 257.72 300.013 257.059 299.824 256.437L292.63 232.592C292.441 231.97 291.779 231.616 291.157 231.805C290.534 231.994 290.18 232.655 290.369 233.277L297.563 257.122C297.72 257.626 298.193 257.957 298.697 257.957Z" fill="#6A2EA0"/>
<path d="M202.6 286.203H345.713C346.367 286.203 346.895 285.675 346.895 285.022C346.895 284.368 346.367 283.841 345.713 283.841H202.592C201.938 283.841 201.41 284.368 201.41 285.022C201.41 285.675 201.946 286.203 202.6 286.203Z" fill="#6A2EA0"/>
<path d="M84.8366 286.202H202.53C202.901 286.202 203.255 286.029 203.476 285.73C203.696 285.431 203.767 285.045 203.665 284.691L181.485 208.447C181.335 207.944 180.878 207.597 180.35 207.597H62.6562C62.2859 207.597 61.9313 207.77 61.7107 208.07C61.4901 208.369 61.4191 208.754 61.5216 209.109L83.7019 285.352C83.8516 285.856 84.3086 286.202 84.8366 286.202ZM200.954 283.841H85.7269L64.2321 209.959H179.46L200.954 283.841Z" fill="#6A2EA0"/>
<path d="M214.648 286.203C215.215 286.203 215.72 285.793 215.814 285.211L218.438 269.104C218.541 268.458 218.107 267.852 217.461 267.75C216.815 267.64 216.208 268.08 216.106 268.726L213.482 284.833C213.38 285.478 213.813 286.084 214.459 286.187C214.522 286.195 214.585 286.203 214.648 286.203Z" fill="#6A2EA0"/>
<path d="M121.829 74.2475C140.188 74.2475 155.127 59.3215 155.127 40.979C155.127 22.6364 140.188 7.71045 121.829 7.71045C103.47 7.71045 88.5308 22.6364 88.5308 40.979C88.5308 41.6324 89.0587 42.1598 89.7127 42.1598C90.3666 42.1598 90.8946 41.6324 90.8946 40.979C90.8946 23.9353 104.77 10.0722 121.829 10.0722C138.888 10.0722 152.763 23.9353 152.763 40.979C152.763 58.0226 138.888 71.8858 121.829 71.8858C112.902 71.8858 104.416 68.0362 98.5375 61.3211C98.1041 60.833 97.3635 60.7779 96.8671 61.2109C96.3786 61.6439 96.3234 62.3839 96.7568 62.8798C103.092 70.1066 112.224 74.2475 121.829 74.2475Z" fill="#6A2EA0"/>
<path d="M45.384 299.775H65.2478C65.9018 299.775 66.4297 299.247 66.4297 298.594C66.4297 297.941 65.9018 297.413 65.2478 297.413H45.384C44.73 297.413 44.2021 297.941 44.2021 298.594C44.2021 299.247 44.73 299.775 45.384 299.775Z" fill="#6A2EA0"/>
<path d="M9.42213 323.99H89.7126C90.3666 323.99 90.8945 323.462 90.8945 322.809C90.8945 322.155 90.3666 321.628 89.7126 321.628H9.42213C8.76815 321.628 8.24023 322.155 8.24023 322.809C8.24023 323.462 8.76815 323.99 9.42213 323.99Z" fill="#6A2EA0"/>
<path d="M159.059 323.99H233.125C233.779 323.99 234.307 323.462 234.307 322.809C234.307 322.155 233.779 321.628 233.125 321.628H159.059C158.405 321.628 157.877 322.155 157.877 322.809C157.877 323.462 158.405 323.99 159.059 323.99Z" fill="#6A2EA0"/>
<path d="M23.1326 313.567C27.5923 313.567 31.2168 309.946 31.2168 305.49C31.2168 301.034 27.5923 297.413 23.1326 297.413C18.6729 297.413 15.0484 301.034 15.0484 305.49C15.0484 309.938 18.6729 313.567 23.1326 313.567ZM23.1326 299.775C26.2843 299.775 28.853 302.341 28.853 305.49C28.853 308.639 26.2843 311.205 23.1326 311.205C19.9809 311.205 17.4122 308.639 17.4122 305.49C17.4122 302.341 19.9809 299.775 23.1326 299.775Z" fill="#6A2EA0"/>
<path d="M108.111 54.8108C108.387 54.8108 108.663 54.7164 108.884 54.5274L123.586 41.8687C123.846 41.6483 123.996 41.3176 123.996 40.9713V1.60956C123.996 0.956158 123.468 0.428711 122.814 0.428711C122.16 0.428711 121.632 0.956158 121.632 1.60956V40.4281L107.339 52.7325C106.843 53.1576 106.788 53.9055 107.213 54.4015C107.45 54.677 107.78 54.8108 108.111 54.8108Z" fill="#6A2EA0"/>
<path d="M44.6828 150.066H83.5437C84.1977 150.066 84.7256 149.539 84.7256 148.885C84.7256 148.232 84.1977 147.704 83.5437 147.704H44.6828C37.0319 147.704 30.8073 141.485 30.8073 133.841C30.8073 126.197 37.0319 119.978 44.6828 119.978H118.559C126.21 119.978 132.435 126.197 132.435 133.841C132.435 141.485 126.21 147.704 118.559 147.704H102.698C102.044 147.704 101.516 148.232 101.516 148.885C101.516 149.539 102.044 150.066 102.698 150.066H118.559C127.518 150.066 134.799 142.784 134.799 133.841C134.799 124.898 127.51 117.616 118.559 117.616H44.6828C35.7239 117.616 28.4435 124.898 28.4435 133.841C28.4435 142.784 35.7318 150.066 44.6828 150.066Z" fill="#6A2EA0"/>
<path d="M103.455 218.492C103.565 218.492 103.675 218.477 103.786 218.445C104.416 218.264 104.771 217.611 104.589 216.981L96.8046 190.223C96.6234 189.593 95.9694 189.239 95.3391 189.42C94.7087 189.601 94.3542 190.254 94.5354 190.884L102.32 217.642C102.47 218.162 102.943 218.492 103.455 218.492Z" fill="#6A2EA0"/>
<path d="M90.1696 172.841C90.2799 172.841 90.3903 172.825 90.5006 172.794C91.1309 172.613 91.4855 171.959 91.3042 171.33L84.6777 148.555C84.4965 147.925 83.8425 147.571 83.2122 147.752C82.5818 147.933 82.2272 148.586 82.4085 149.216L89.035 171.991C89.1847 172.502 89.6575 172.841 90.1696 172.841Z" fill="#6A2EA0"/>
<path d="M45.5017 284.628C46.1556 284.628 46.6836 284.1 46.6836 283.447V265.435C46.6836 255.618 38.686 247.628 28.8605 247.628H12.2509C6.82199 247.628 2.40168 243.212 2.40168 237.788C2.40168 232.363 6.82199 227.947 12.2509 227.947H23.4947C35.4161 227.947 45.1156 218.256 45.1156 206.345V191.341C45.1156 181.138 53.4204 172.841 63.632 172.841H65.9958C66.6498 172.841 67.1777 172.313 67.1777 171.66C67.1777 171.006 66.6498 170.479 65.9958 170.479H63.632C52.1203 170.479 42.7518 179.839 42.7518 191.341V206.345C42.7518 216.957 34.116 225.585 23.4947 225.585H12.2509C5.51402 225.585 0.0378723 231.057 0.0378723 237.788C0.0378723 244.518 5.51402 249.99 12.2509 249.99H28.8605C37.3859 249.99 44.3198 256.917 44.3198 265.435V283.447C44.3198 284.1 44.8556 284.628 45.5017 284.628Z" fill="#6A2EA0"/>
<path d="M121.237 172.841H159.058C159.712 172.841 160.24 172.313 160.24 171.66C160.24 171.006 159.712 170.479 159.058 170.479H121.237C120.584 170.479 120.056 171.006 120.056 171.66C120.056 172.313 120.584 172.841 121.237 172.841Z" fill="#6A2EA0"/>
<path d="M272.734 145.634C291.565 145.634 306.883 130.33 306.883 111.515C306.883 92.7003 291.565 77.3965 272.734 77.3965C272.08 77.3965 271.552 77.9239 271.552 78.5773C271.552 79.2307 272.08 79.7582 272.734 79.7582C290.257 79.7582 304.519 93.9992 304.519 111.515C304.519 129.031 290.265 143.272 272.734 143.272C272.032 143.272 271.331 143.249 270.638 143.201C269.984 143.162 269.424 143.65 269.385 144.303C269.346 144.957 269.834 145.516 270.488 145.555C271.221 145.61 271.977 145.634 272.734 145.634Z" fill="#6A2EA0"/>
<path d="M253.289 158.513C254.392 158.513 255.046 158.442 255.086 158.442C255.732 158.371 256.197 157.781 256.126 157.135C256.055 156.49 255.464 156.025 254.818 156.096C253.99 156.191 234.505 158.127 228.241 137.108C227.382 134.227 226.736 131.251 226.31 128.252C226.216 127.606 225.617 127.157 224.979 127.244C224.333 127.339 223.883 127.929 223.97 128.575C224.411 131.684 225.081 134.786 225.971 137.769C231.66 156.86 247.86 158.513 253.289 158.513Z" fill="#6A2EA0"/>
<path d="M258.662 192.624C265.674 192.624 271.379 186.924 271.379 179.918V174.644C271.379 173.99 270.851 173.463 270.197 173.463C269.543 173.463 269.015 173.99 269.015 174.644V179.918C269.015 185.618 264.374 190.262 258.662 190.262C252.949 190.262 248.308 185.625 248.308 179.918V157.844C248.308 157.191 247.78 156.663 247.126 156.663C246.472 156.663 245.944 157.191 245.944 157.844V179.918C245.944 186.924 251.649 192.624 258.662 192.624Z" fill="#6A2EA0"/>
<path d="M239.366 136.03C239.909 136.03 240.477 135.943 241.06 135.754C242.636 135.259 243.904 133.66 244.046 133.479C244.448 132.96 244.353 132.22 243.833 131.826C243.313 131.425 242.573 131.519 242.179 132.039C241.824 132.495 241.012 133.298 240.351 133.511C239.46 133.794 238.696 133.708 238.121 133.275C237.561 132.842 237.23 132.078 237.27 131.275C237.451 127.197 238.657 119.388 238.664 119.309C238.767 118.664 238.326 118.065 237.68 117.963C237.033 117.861 236.435 118.302 236.332 118.947C236.285 119.27 235.095 126.961 234.906 131.165C234.835 132.747 235.497 134.235 236.679 135.14C237.451 135.731 238.373 136.03 239.366 136.03Z" fill="#6A2EA0"/>
<path d="M245.275 148.649C245.291 148.649 245.307 148.649 245.323 148.649C250.704 148.444 253.454 144.067 254.155 141.784C254.345 141.162 253.998 140.501 253.375 140.312C252.753 140.123 252.091 140.47 251.902 141.092C251.839 141.296 250.263 146.106 245.236 146.295C244.582 146.319 244.078 146.87 244.101 147.523C244.117 148.153 244.637 148.649 245.275 148.649Z" fill="#6A2EA0"/>
<path d="M313.881 284.738C318.868 284.738 323.58 282.4 326.59 278.409C329.765 274.19 330.632 268.899 328.962 263.892C320.168 237.465 304.489 191.443 298.272 180.147C290.629 166.26 275.816 165.299 271.372 165.347V137.447C271.372 136.794 270.844 136.266 270.19 136.266C269.536 136.266 269.008 136.794 269.008 137.447V166.575C269.008 166.905 269.15 167.22 269.394 167.448C269.638 167.669 269.969 167.779 270.3 167.748C270.473 167.732 287.942 166.283 296.199 181.288C302.33 192.42 317.946 238.284 326.716 264.64C328.134 268.907 327.402 273.41 324.699 276.992C321.989 280.598 317.836 282.558 313.321 282.369C293.434 281.558 263.374 275.583 233.141 251.738C232.787 251.454 232.298 251.407 231.896 251.604C231.715 251.69 213.695 260.279 204.051 253.635C203.515 253.265 202.774 253.399 202.404 253.934C202.033 254.469 202.167 255.209 202.703 255.579C212.474 262.31 228.697 255.642 232.251 254.044C262.791 277.905 293.111 283.912 313.227 284.731C313.439 284.731 313.66 284.738 313.881 284.738Z" fill="#6A2EA0"/>
<path d="M253.194 129.59C258.97 129.59 263.674 124.891 263.674 119.12C263.674 113.35 258.97 108.65 253.194 108.65C247.419 108.65 242.715 113.35 242.715 119.12C242.723 124.898 247.419 129.59 253.194 129.59ZM253.194 111.019C257.67 111.019 261.31 114.656 261.31 119.128C261.31 123.599 257.67 127.236 253.194 127.236C248.719 127.236 245.079 123.599 245.079 119.128C245.079 114.656 248.727 111.019 253.194 111.019Z" fill="#6A2EA0"/>
<path d="M223.63 129.59C229.405 129.59 234.109 124.891 234.109 119.12C234.109 113.35 229.405 108.65 223.63 108.65C217.854 108.65 213.15 113.35 213.15 119.12C213.15 124.898 217.846 129.59 223.63 129.59ZM223.63 111.019C228.105 111.019 231.746 114.656 231.746 119.128C231.746 123.599 228.105 127.236 223.63 127.236C219.154 127.236 215.514 123.599 215.514 119.128C215.514 114.656 219.154 111.019 223.63 111.019Z" fill="#6A2EA0"/>
<path d="M232.92 120.309H243.896C244.55 120.309 245.078 119.782 245.078 119.128C245.078 118.475 244.55 117.947 243.896 117.947H232.92C232.266 117.947 231.738 118.475 231.738 119.128C231.738 119.782 232.266 120.309 232.92 120.309Z" fill="#6A2EA0"/>
<path d="M280.888 124.599C281.542 124.599 282.07 124.072 282.07 123.418C282.07 119.781 279.108 116.829 275.475 116.829H262.49C261.836 116.829 261.308 117.357 261.308 118.01C261.308 118.663 261.836 119.191 262.49 119.191H275.475C277.808 119.191 279.707 121.088 279.707 123.418C279.707 124.072 280.234 124.599 280.888 124.599Z" fill="#6A2EA0"/>
<defs>
<linearGradient id="paint0_linear_3496_7344" x1="346.715" y1="109.849" x2="84.8901" y2="371.907" gradientUnits="userSpaceOnUse">
<stop stop-color="#FF4C84"/>
<stop offset="0.3529" stop-color="#B569B7"/>
<stop offset="0.6558" stop-color="#7D7EDE"/>
<stop offset="0.8796" stop-color="#5A8BF6"/>
<stop offset="1" stop-color="#4C90FF"/>
</linearGradient>
</defs>
</svg>
