<svg width="178" height="237" viewBox="0 0 178 237" fill="none" xmlns="http://www.w3.org/2000/svg">
<path d="M151.794 207.652C151.794 207.652 151.794 215.277 151.794 221.65C151.794 228.024 143.72 235.634 143.72 235.634H140.151H129.31H125.741C125.741 235.634 117.667 228.024 117.667 221.65C117.667 215.277 117.667 207.652 117.667 207.652H128.199H141.262H151.794ZM49.5021 61.688H3.0332V156.466L75.364 156.179L49.5021 61.688Z" fill="url(#paint0_linear_3496_693)"/>
<path d="M109.454 157.577H3.03364C2.42278 157.577 1.92969 157.084 1.92969 156.473V61.6879C1.92969 61.0771 2.42278 60.584 3.03364 60.584H136.935C137.546 60.584 138.039 61.0771 138.039 61.6879V87.2775C138.039 87.8883 137.546 88.3814 136.935 88.3814C136.324 88.3814 135.831 87.8883 135.831 87.2775V62.7919H4.13759V155.362H109.447C110.058 155.362 110.551 155.855 110.551 156.466C110.551 157.076 110.058 157.577 109.454 157.577Z" fill="#6A2EA0"/>
<path d="M59.8579 185.632C59.247 185.632 58.7539 185.139 58.7539 184.528V156.473C58.7539 155.862 59.247 155.369 59.8579 155.369C60.4687 155.369 60.9618 155.862 60.9618 156.473V184.528C60.9618 185.139 60.4613 185.632 59.8579 185.632Z" fill="#6A2EA0"/>
<path d="M80.7211 185.632C80.1103 185.632 79.6172 185.139 79.6172 184.528V156.473C79.6172 155.862 80.1103 155.369 80.7211 155.369C81.332 155.369 81.8251 155.862 81.8251 156.473V184.528C81.8251 185.139 81.332 185.632 80.7211 185.632Z" fill="#6A2EA0"/>
<path d="M38.934 192.852C38.3232 192.852 37.8301 192.358 37.8301 191.748C37.8301 187.155 41.5688 183.424 46.1539 183.424H97.3477C97.9585 183.424 98.4516 183.917 98.4516 184.528C98.4516 185.139 97.9585 185.632 97.3477 185.632H46.1539C42.7831 185.632 40.038 188.377 40.038 191.748C40.038 192.358 39.5449 192.852 38.934 192.852Z" fill="#6A2EA0"/>
<path d="M34.4069 19.2816C36.2767 19.2816 37.7924 17.7659 37.7924 15.8962C37.7924 14.0265 36.2767 12.5107 34.4069 12.5107C32.5372 12.5107 31.0215 14.0265 31.0215 15.8962C31.0215 17.7659 32.5372 19.2816 34.4069 19.2816Z" fill="#0061FF"/>
<path d="M69.7331 19.2816C71.6028 19.2816 73.1185 17.7659 73.1185 15.8962C73.1185 14.0265 71.6028 12.5107 69.7331 12.5107C67.8634 12.5107 66.3477 14.0265 66.3477 15.8962C66.3477 17.7659 67.8634 19.2816 69.7331 19.2816Z" fill="#0061FF"/>
<path d="M121.633 19.2816C123.503 19.2816 125.019 17.7659 125.019 15.8962C125.019 14.0265 123.503 12.5107 121.633 12.5107C119.764 12.5107 118.248 14.0265 118.248 15.8962C118.248 17.7659 119.764 19.2816 121.633 19.2816Z" fill="#0061FF"/>
<path d="M134.726 214.099H116.172C115.561 214.099 115.068 213.606 115.068 212.995C115.068 212.384 115.561 211.891 116.172 211.891H134.726C135.337 211.891 135.83 212.384 135.83 212.995C135.83 213.606 135.337 214.099 134.726 214.099Z" fill="#6A2EA0"/>
<path d="M163.187 236.737H83.268C82.6572 236.737 82.1641 236.244 82.1641 235.633C82.1641 235.022 82.6572 234.529 83.268 234.529H163.187C163.797 234.529 164.291 235.022 164.291 235.633C164.291 236.244 163.797 236.737 163.187 236.737Z" fill="#6A2EA0"/>
<path d="M155.51 226.993C151.344 226.993 147.959 223.608 147.959 219.442C147.959 215.277 151.344 211.891 155.51 211.891C159.676 211.891 163.061 215.277 163.061 219.442C163.061 223.608 159.676 226.993 155.51 226.993ZM155.51 214.099C152.566 214.099 150.167 216.498 150.167 219.442C150.167 222.386 152.566 224.785 155.51 224.785C158.454 224.785 160.853 222.386 160.853 219.442C160.853 216.498 158.461 214.099 155.51 214.099Z" fill="#6A2EA0"/>
<path d="M84.983 31.0421H70.168C69.5571 31.0421 69.064 30.549 69.064 29.9382C69.064 29.3273 69.5571 28.8342 70.168 28.8342H84.983C92.1292 28.8342 97.9434 23.0201 97.9434 15.8739C97.9434 8.72763 92.1292 2.9135 84.983 2.9135H15.9788C8.83258 2.90614 3.01845 8.72027 3.01845 15.8665C3.01845 23.0127 8.83258 28.8269 15.9788 28.8269H52.2767C52.8875 28.8269 53.3806 29.32 53.3806 29.9308C53.3806 30.5417 52.8875 31.0348 52.2767 31.0348H15.9788C7.61823 31.0421 0.810547 24.2344 0.810547 15.8665C0.810547 7.49857 7.61823 0.698242 15.9788 0.698242H84.983C93.3509 0.698242 100.151 7.50593 100.151 15.8665C100.151 24.2271 93.3509 31.0421 84.983 31.0421Z" fill="#6A2EA0"/>
<path d="M70.2203 95.4318C69.7345 95.4318 69.293 95.1153 69.1605 94.6222L51.2176 30.2325C51.0557 29.6437 51.4016 29.0329 51.983 28.871C52.5718 28.7091 53.1753 29.0476 53.3446 29.6364L71.2874 94.0261C71.4493 94.6148 71.1108 95.2257 70.522 95.3876C70.419 95.417 70.3233 95.4318 70.2203 95.4318Z" fill="#6A2EA0"/>
<path d="M134.617 199.939C134.006 199.939 133.513 199.446 133.513 198.835V181.996C133.513 172.819 140.983 165.349 150.161 165.349H165.675C170.746 165.349 174.875 161.22 174.875 156.149C174.875 151.078 170.746 146.95 165.675 146.95H136.251C125.116 146.95 116.056 137.89 116.056 126.755V112.727C116.056 103.189 108.299 95.432 98.7611 95.432H96.5532C95.9423 95.432 95.4492 94.9389 95.4492 94.3281C95.4492 93.7172 95.9423 93.2241 96.5532 93.2241H98.7611C109.514 93.2241 118.264 101.975 118.264 112.727V126.755C118.264 136.676 126.33 144.742 136.251 144.742H165.675C171.968 144.742 177.083 149.857 177.083 156.149C177.083 162.442 171.968 167.557 165.675 167.557H150.161C142.198 167.557 135.721 174.033 135.721 181.996V198.835C135.721 199.446 135.228 199.939 134.617 199.939Z" fill="#6A2EA0"/>
<path d="M99.048 194.368H3.38715C2.7763 194.368 2.2832 193.874 2.2832 193.264C2.2832 192.653 2.7763 192.16 3.38715 192.16H99.048C99.6589 192.16 100.152 192.653 100.152 193.264C100.152 193.874 99.6589 194.368 99.048 194.368Z" fill="#6A2EA0"/>
<defs>
<linearGradient id="paint0_linear_3496_693" x1="-9.04238" y1="73.7687" x2="148.275" y2="231.087" gradientUnits="userSpaceOnUse">
<stop stop-color="#4C90FF"/>
<stop offset="0.1157" stop-color="#538EFB"/>
<stop offset="0.2734" stop-color="#6487EF"/>
<stop offset="0.4552" stop-color="#817DDB"/>
<stop offset="0.655" stop-color="#A96DC0"/>
<stop offset="0.8671" stop-color="#DB5A9D"/>
<stop offset="1" stop-color="#FF4C84"/>
</linearGradient>
</defs>
</svg>
