<svg width="342" height="342" viewBox="0 0 342 342" fill="none" xmlns="http://www.w3.org/2000/svg">
<path d="M233.794 259.652C233.794 259.652 233.794 267.277 233.794 273.65C233.794 280.024 225.72 287.634 225.72 287.634H222.151H211.31H207.741C207.741 287.634 199.667 280.024 199.667 273.65C199.667 267.277 199.667 259.652 199.667 259.652H210.199H223.262H233.794ZM131.502 113.688H85.0332V208.466L157.364 208.179L131.502 113.688Z" fill="url(#paint0_linear_2506_2598)"/>
<path d="M191.454 209.577H85.0336C84.4228 209.577 83.9297 209.084 83.9297 208.473V113.688C83.9297 113.077 84.4228 112.584 85.0336 112.584H218.935C219.546 112.584 220.039 113.077 220.039 113.688V139.277C220.039 139.888 219.546 140.381 218.935 140.381C218.324 140.381 217.831 139.888 217.831 139.277V114.792H86.1376V207.362H191.447C192.058 207.362 192.551 207.855 192.551 208.466C192.551 209.076 192.058 209.577 191.454 209.577Z" fill="#6A2EA0"/>
<path d="M141.858 237.632C141.247 237.632 140.754 237.139 140.754 236.528V208.473C140.754 207.862 141.247 207.369 141.858 207.369C142.469 207.369 142.962 207.862 142.962 208.473V236.528C142.962 237.139 142.461 237.632 141.858 237.632Z" fill="#6A2EA0"/>
<path d="M162.721 237.632C162.11 237.632 161.617 237.139 161.617 236.528V208.473C161.617 207.862 162.11 207.369 162.721 207.369C163.332 207.369 163.825 207.862 163.825 208.473V236.528C163.825 237.139 163.332 237.632 162.721 237.632Z" fill="#6A2EA0"/>
<path d="M120.934 244.852C120.323 244.852 119.83 244.358 119.83 243.748C119.83 239.155 123.569 235.424 128.154 235.424H179.348C179.959 235.424 180.452 235.917 180.452 236.528C180.452 237.139 179.959 237.632 179.348 237.632H128.154C124.783 237.632 122.038 240.377 122.038 243.748C122.038 244.358 121.545 244.852 120.934 244.852Z" fill="#6A2EA0"/>
<path d="M116.407 71.2816C118.277 71.2816 119.792 69.7659 119.792 67.8962C119.792 66.0265 118.277 64.5107 116.407 64.5107C114.537 64.5107 113.021 66.0265 113.021 67.8962C113.021 69.7659 114.537 71.2816 116.407 71.2816Z" fill="#0061FF"/>
<path d="M151.733 71.2816C153.603 71.2816 155.119 69.7659 155.119 67.8962C155.119 66.0265 153.603 64.5107 151.733 64.5107C149.863 64.5107 148.348 66.0265 148.348 67.8962C148.348 69.7659 149.863 71.2816 151.733 71.2816Z" fill="#0061FF"/>
<path d="M203.633 71.2816C205.503 71.2816 207.019 69.7659 207.019 67.8962C207.019 66.0265 205.503 64.5107 203.633 64.5107C201.764 64.5107 200.248 66.0265 200.248 67.8962C200.248 69.7659 201.764 71.2816 203.633 71.2816Z" fill="#0061FF"/>
<path d="M216.726 266.099H198.172C197.561 266.099 197.068 265.606 197.068 264.995C197.068 264.384 197.561 263.891 198.172 263.891H216.726C217.337 263.891 217.83 264.384 217.83 264.995C217.83 265.606 217.337 266.099 216.726 266.099Z" fill="#6A2EA0"/>
<path d="M245.187 288.737H165.268C164.657 288.737 164.164 288.244 164.164 287.633C164.164 287.022 164.657 286.529 165.268 286.529H245.187C245.797 286.529 246.291 287.022 246.291 287.633C246.291 288.244 245.797 288.737 245.187 288.737Z" fill="#6A2EA0"/>
<path d="M237.51 278.993C233.344 278.993 229.959 275.608 229.959 271.442C229.959 267.277 233.344 263.891 237.51 263.891C241.676 263.891 245.061 267.277 245.061 271.442C245.061 275.608 241.676 278.993 237.51 278.993ZM237.51 266.099C234.566 266.099 232.167 268.498 232.167 271.442C232.167 274.386 234.566 276.785 237.51 276.785C240.454 276.785 242.853 274.386 242.853 271.442C242.853 268.498 240.461 266.099 237.51 266.099Z" fill="#6A2EA0"/>
<path d="M166.983 83.0421H152.168C151.557 83.0421 151.064 82.549 151.064 81.9382C151.064 81.3273 151.557 80.8342 152.168 80.8342H166.983C174.129 80.8342 179.943 75.0201 179.943 67.8739C179.943 60.7276 174.129 54.9135 166.983 54.9135H97.9788C90.8326 54.9061 85.0184 60.7203 85.0184 67.8665C85.0184 75.0127 90.8326 80.8269 97.9788 80.8269H134.277C134.888 80.8269 135.381 81.32 135.381 81.9308C135.381 82.5417 134.888 83.0348 134.277 83.0348H97.9788C89.6182 83.0421 82.8105 76.2344 82.8105 67.8665C82.8105 59.4986 89.6182 52.6982 97.9788 52.6982H166.983C175.351 52.6982 182.151 59.5059 182.151 67.8665C182.151 76.2271 175.351 83.0421 166.983 83.0421Z" fill="#6A2EA0"/>
<path d="M152.22 147.432C151.735 147.432 151.293 147.115 151.16 146.622L133.218 82.2325C133.056 81.6437 133.402 81.0329 133.983 80.871C134.572 80.7091 135.175 81.0476 135.345 81.6364L153.287 146.026C153.449 146.615 153.111 147.226 152.522 147.388C152.419 147.417 152.323 147.432 152.22 147.432Z" fill="#6A2EA0"/>
<path d="M216.617 251.939C216.006 251.939 215.513 251.446 215.513 250.835V233.996C215.513 224.819 222.983 217.349 232.161 217.349H247.675C252.746 217.349 256.875 213.22 256.875 208.149C256.875 203.078 252.746 198.95 247.675 198.95H218.251C207.116 198.95 198.056 189.89 198.056 178.755V164.727C198.056 155.189 190.299 147.432 180.761 147.432H178.553C177.942 147.432 177.449 146.939 177.449 146.328C177.449 145.717 177.942 145.224 178.553 145.224H180.761C191.514 145.224 200.264 153.975 200.264 164.727V178.755C200.264 188.676 208.33 196.742 218.251 196.742H247.675C253.968 196.742 259.083 201.857 259.083 208.149C259.083 214.442 253.968 219.557 247.675 219.557H232.161C224.198 219.557 217.721 226.033 217.721 233.996V250.835C217.721 251.446 217.228 251.939 216.617 251.939Z" fill="#6A2EA0"/>
<path d="M181.048 246.368H85.3872C84.7763 246.368 84.2832 245.874 84.2832 245.264C84.2832 244.653 84.7763 244.16 85.3872 244.16H181.048C181.659 244.16 182.152 244.653 182.152 245.264C182.152 245.874 181.659 246.368 181.048 246.368Z" fill="#6A2EA0"/>
<defs>
<linearGradient id="paint0_linear_2506_2598" x1="72.9576" y1="125.769" x2="230.275" y2="283.087" gradientUnits="userSpaceOnUse">
<stop stop-color="#4C90FF"/>
<stop offset="0.1157" stop-color="#538EFB"/>
<stop offset="0.2734" stop-color="#6487EF"/>
<stop offset="0.4552" stop-color="#817DDB"/>
<stop offset="0.655" stop-color="#A96DC0"/>
<stop offset="0.8671" stop-color="#DB5A9D"/>
<stop offset="1" stop-color="#FF4C84"/>
</linearGradient>
</defs>
</svg>
