<svg width="92" height="122" viewBox="0 0 92 122" fill="none" xmlns="http://www.w3.org/2000/svg">
<path d="M77.7846 121.151C79.2815 121.151 80.495 119.938 80.495 118.441C80.495 116.944 79.2815 115.73 77.7846 115.73C76.2877 115.73 75.0742 116.944 75.0742 118.441C75.0742 119.938 76.2877 121.151 77.7846 121.151Z" fill="#0061FF"/>
<path d="M74.482 90.6501C74.1406 90.6501 73.865 90.3746 73.865 90.0332V21.5986H25.1518V43.8947C25.1518 44.236 24.8763 44.5116 24.5349 44.5116C24.1935 44.5116 23.918 44.236 23.918 43.8947V20.9817C23.918 20.6403 24.1935 20.3647 24.5349 20.3647H74.482C74.8234 20.3647 75.0989 20.6403 75.0989 20.9817V90.0332C75.0989 90.3746 74.8234 90.6501 74.482 90.6501Z" fill="#6A2EA0"/>
<path d="M64.6118 109.466H10.5271C10.1857 109.466 9.91016 109.191 9.91016 108.849V69.1106C9.91016 68.7692 10.1857 68.4937 10.5271 68.4937H40.5101C40.8515 68.4937 41.1271 68.7692 41.1271 69.1106V108.233H64.6118C64.9531 108.233 65.2287 108.508 65.2287 108.849C65.2287 109.191 64.9531 109.466 64.6118 109.466ZM11.144 108.233H39.8932V69.7275H11.144V108.233V108.233Z" fill="#6A2EA0"/>
<path d="M40.5094 69.7235H10.5263C10.3248 69.7235 10.1356 69.6248 10.0205 69.4562L0.828118 56.2126C0.696505 56.0234 0.680054 55.7767 0.786989 55.5751C0.893925 55.3736 1.10368 55.2461 1.33401 55.2461H31.3171C31.5186 55.2461 31.7078 55.3448 31.8229 55.5134L41.0112 68.7611C41.1428 68.9503 41.1592 69.1971 41.0523 69.3986C40.9495 69.596 40.7397 69.7235 40.5094 69.7235ZM10.8471 68.4896H39.329L30.9963 56.4759H2.51441L10.8471 68.4896Z" fill="#6A2EA0"/>
<path d="M54.8594 109.466C54.5181 109.466 54.2425 109.191 54.2425 108.849V69.7275H41.1264V108.849C41.1264 109.191 40.8509 109.466 40.5095 109.466C40.1681 109.466 39.8926 109.191 39.8926 108.849V69.1106C39.8926 68.7692 40.1681 68.4937 40.5095 68.4937H54.8594C55.2008 68.4937 55.4764 68.7692 55.4764 69.1106V108.849C55.4764 109.187 55.2008 109.466 54.8594 109.466Z" fill="#6A2EA0"/>
<path d="M5.67773 7.40479H30.7253L24.5354 20.6524H14.8701L5.67773 7.40479ZM82.6342 48.0279H69.913C69.913 48.0279 73.2733 56.9365 73.6064 62.3902C73.9437 67.8439 68.2309 68.6418 65.5451 76.6002C61.8517 87.5611 72.0188 109.096 72.0188 109.096H84.3781C84.3781 109.096 94.5452 87.5611 90.8518 76.6002C88.1702 68.6377 82.4533 67.8439 82.7905 62.3902C83.1278 56.9365 86.4839 48.0279 86.4839 48.0279H82.6342Z" fill="url(#paint0_linear_3416_4079)"/>
<path d="M74.4814 21.7793C74.395 21.7793 74.3087 21.7629 74.2264 21.7217C73.9179 21.5819 73.7781 21.2159 73.9221 20.9033L82.6167 1.85643H34.0228L25.0937 21.4174C24.9539 21.7259 24.5878 21.8657 24.2752 21.7217C23.9668 21.5819 23.8269 21.2159 23.9709 20.9033L33.0645 0.984494C33.1673 0.762397 33.3853 0.622559 33.628 0.622559H83.575C83.7848 0.622559 83.9822 0.729494 84.0933 0.906349C84.2043 1.0832 84.2208 1.3053 84.1344 1.49449L75.0408 21.4174C74.9379 21.6436 74.7158 21.7793 74.4814 21.7793Z" fill="#6A2EA0"/>
<path d="M24.5348 56.1261C24.1935 56.1261 23.9179 55.8506 23.9179 55.5092V21.7793H15.8237V40.7233C15.8237 41.0647 15.5481 41.3402 15.2068 41.3402C14.8654 41.3402 14.5898 41.0647 14.5898 40.7233V21.1623C14.5898 20.821 14.8654 20.5454 15.2068 20.5454H24.5307C24.8721 20.5454 25.1477 20.821 25.1477 21.1623V55.5092C25.1518 55.8464 24.8721 56.1261 24.5348 56.1261Z" fill="#6A2EA0"/>
<defs>
<linearGradient id="paint0_linear_3416_4079" x1="6.88508" y1="6.19765" x2="97.0807" y2="96.3932" gradientUnits="userSpaceOnUse">
<stop stop-color="#FF4C84"/>
<stop offset="0.1681" stop-color="#DF599A"/>
<stop offset="0.7433" stop-color="#7680E2"/>
<stop offset="1" stop-color="#4C90FF"/>
</linearGradient>
</defs>
</svg>
