<svg width="97" height="121" viewBox="0 0 97 121" fill="none" xmlns="http://www.w3.org/2000/svg">
<path d="M43.825 1.22932C42.0389 2.23213 41.4019 4.49598 42.4047 6.28209L46.1491 12.9488L52.6222 9.31634L48.8778 2.6496C47.8707 0.859184 45.6111 0.222207 43.825 1.22932Z" fill="#6A2EA0"/>
<path d="M67.096 19.9296L59.0994 24.3411L57.3434 25.3094L57.0594 25.4687L55.8801 26.1186L47.3067 30.8528L45.5938 16.7662L45.5809 16.7748C43.9798 13.8697 45.0343 10.22 47.9351 8.61892C50.8359 7.01787 54.4899 8.07233 56.091 10.9732H56.0996L67.096 19.9296ZM56.091 120.154H81.1009V69.4244H56.091V120.154ZM1.03125 80.7135H45.5464L56.0953 69.4287H11.0077L1.03125 80.7135Z" fill="url(#paint0_linear_3416_17826)"/>
<path d="M10.2081 103.055C9.85086 103.055 9.5625 102.767 9.5625 102.41V80.7095C9.5625 80.3523 9.85086 80.064 10.2081 80.064C10.5653 80.064 10.8537 80.3523 10.8537 80.7095V102.41C10.8537 102.767 10.561 103.055 10.2081 103.055Z" fill="#6A2EA0"/>
<path d="M56.0919 120.8H10.2081C9.85086 120.8 9.5625 120.512 9.5625 120.154V102.409C9.5625 102.052 9.85086 101.764 10.2081 101.764C10.5653 101.764 10.8537 102.052 10.8537 102.409V119.509H55.4506V69.6051C55.4506 69.2478 55.739 68.9595 56.0962 68.9595C56.4534 68.9595 56.7418 69.2478 56.7418 69.6051V120.154C56.7375 120.512 56.4491 120.8 56.0919 120.8Z" fill="#6A2EA0"/>
<path d="M45.5432 81.3593H1.0323C0.67508 81.3593 0.386719 81.071 0.386719 80.7137C0.386719 80.3565 0.67508 80.0682 1.0323 80.0682H45.2591L68.8918 53.8187C69.0166 53.681 69.1888 53.6035 69.3739 53.6035H95.7094C95.9676 53.6035 96.2043 53.7585 96.3033 53.9995C96.4023 54.2405 96.3507 54.5159 96.1699 54.701L81.2741 69.8765C81.1536 70.0014 80.9858 70.0702 80.8136 70.0702H61.8808C61.5236 70.0702 61.2352 69.7819 61.2352 69.4246C61.2352 69.0674 61.5236 68.779 61.8808 68.779H80.5425L94.1686 54.8947H69.6579L46.0252 81.1441C45.9004 81.2819 45.7283 81.3593 45.5432 81.3593Z" fill="#6A2EA0"/>
<path d="M61.8809 70.07H11.0089C10.6516 70.07 10.3633 69.7816 10.3633 69.4244C10.3633 69.0672 10.6516 68.7788 11.0089 68.7788H61.8809C62.2381 68.7788 62.5265 69.0672 62.5265 69.4244C62.5265 69.7816 62.2381 70.07 61.8809 70.07Z" fill="#6A2EA0"/>
<path d="M27.2429 69.7946C26.9889 69.7946 26.7436 69.6396 26.6446 69.39L8.31864 23.9064C8.18522 23.575 8.34446 23.2006 8.67586 23.0672C9.00726 22.9338 9.3817 23.093 9.51512 23.4244L27.8411 68.908C27.9745 69.2394 27.8153 69.6138 27.4839 69.7472C27.4064 69.7817 27.3246 69.7946 27.2429 69.7946Z" fill="#6A2EA0"/>
<path d="M27.2426 69.7949C27.1781 69.7949 27.1135 69.7863 27.0489 69.7648C26.7692 69.6744 20.124 67.5225 17.4599 61.5056C15.7813 57.7139 16.0869 53.2766 18.3723 48.3185C21.0579 42.491 25.1595 38.2302 29.1234 34.107C35.2177 27.776 41.5186 21.2212 42.9777 8.68823C43.0207 8.33531 43.3349 8.08138 43.6921 8.12011C44.045 8.16315 44.299 8.48164 44.2602 8.83456C42.7495 21.8022 36.2937 28.512 30.0531 35.0022C25.9816 39.233 22.1382 43.227 19.5429 48.8565C17.4211 53.4573 17.1156 57.5374 18.6348 60.9719C21.0536 66.4508 27.3717 68.5124 27.4363 68.5296C27.7763 68.6372 27.9657 68.9987 27.8581 69.3387C27.772 69.6185 27.5181 69.7949 27.2426 69.7949Z" fill="#6A2EA0"/>
<path d="M8.91531 24.3113C8.66569 24.3113 8.42897 24.1693 8.32568 23.924C8.18365 23.5969 8.32998 23.2181 8.65708 23.0718L43.3594 7.79296C43.6865 7.65094 44.0652 7.79727 44.2116 8.12436C44.3536 8.45146 44.2072 8.8302 43.8802 8.97654L9.17785 24.2554C9.09177 24.2941 9.00139 24.3113 8.91531 24.3113Z" fill="#6A2EA0"/>
<path d="M8.91671 26.4848C10.4736 26.4848 11.7358 25.2227 11.7358 23.6657C11.7358 22.1088 10.4736 20.8467 8.91671 20.8467C7.35979 20.8467 6.09766 22.1088 6.09766 23.6657C6.09766 25.2227 7.35979 26.4848 8.91671 26.4848Z" fill="#6A2EA0"/>
<path d="M47.3027 31.5028C47.0746 31.5028 46.8551 31.3823 46.7389 31.1671C46.5667 30.8529 46.6786 30.4613 46.9928 30.2891L66.7864 19.3658C67.0963 19.1937 67.4923 19.3056 67.6644 19.6198C67.8366 19.934 67.7247 20.3256 67.4105 20.4978L47.6169 31.4211C47.5179 31.477 47.4103 31.5028 47.3027 31.5028Z" fill="#6A2EA0"/>
<path d="M45.5817 17.4206C45.3536 17.4206 45.1298 17.3044 45.0093 17.0935C43.2361 13.8828 44.4067 9.82852 47.6174 8.05962C50.8109 6.29932 54.8351 7.44416 56.6255 10.6161C56.6901 10.7108 56.7288 10.8227 56.7374 10.9475C56.7546 11.3048 56.4835 11.606 56.1262 11.6232H56.1176C55.8809 11.6362 55.6399 11.507 55.5237 11.2918C54.0948 8.7052 50.8281 7.76695 48.2458 9.19154C45.6893 10.6032 44.7381 13.8139 46.0982 16.3877C46.1197 16.4135 46.1369 16.4436 46.1541 16.4737C46.3263 16.7879 46.2144 17.1753 45.9045 17.3431C45.7969 17.3948 45.6893 17.4206 45.5817 17.4206Z" fill="#6A2EA0"/>
<path d="M50.7804 14.6016C50.5566 14.6016 50.3371 14.4811 50.2166 14.2702C50.0401 13.9603 50.152 13.5644 50.4619 13.3922L55.7686 10.4139C56.0785 10.2417 56.4745 10.3493 56.6466 10.6592C56.8231 10.9691 56.7112 11.3651 56.4013 11.5372L51.0946 14.5155C50.9956 14.5758 50.888 14.6016 50.7804 14.6016Z" fill="#6A2EA0"/>
<path d="M0.846555 81.3594C0.691615 81.3594 0.536674 81.3034 0.416165 81.1915C0.149324 80.9548 0.127804 80.5459 0.368823 80.2791L10.5303 68.9943C10.767 68.7317 11.1759 68.7059 11.4427 68.9469C11.7096 69.1836 11.7311 69.5925 11.4901 69.8593L1.32429 81.1442C1.19947 81.2862 1.02301 81.3594 0.846555 81.3594Z" fill="#6A2EA0"/>
<path d="M33.6461 70.0701C33.3534 70.0701 33.0866 69.8678 33.0177 69.5709C32.639 67.9139 32.4453 66.2009 32.4453 64.4837C32.4453 51.9851 42.6111 41.8193 55.1096 41.8193C63.5539 41.8193 71.2449 46.4675 75.1787 53.9477C75.3465 54.2619 75.2217 54.6536 74.9076 54.8214C74.5934 54.9893 74.2017 54.8644 74.0339 54.5503C70.3239 47.4962 63.0718 43.1105 55.1053 43.1105C43.3213 43.1105 33.7322 52.6996 33.7322 64.4837C33.7322 66.1019 33.9129 67.7159 34.2745 69.2825C34.3562 69.6311 34.1367 69.9754 33.7881 70.0572C33.7408 70.0658 33.6934 70.0701 33.6461 70.0701Z" fill="#6A2EA0"/>
<path d="M47.4828 61.6818C49.0492 61.6818 50.319 60.412 50.319 58.8455C50.319 57.2791 49.0492 56.0093 47.4828 56.0093C45.9163 56.0093 44.6465 57.2791 44.6465 58.8455C44.6465 60.412 45.9163 61.6818 47.4828 61.6818Z" fill="#0061FF"/>
<defs>
<linearGradient id="paint0_linear_3416_17826" x1="19.9785" y1="36.2369" x2="92.499" y2="108.757" gradientUnits="userSpaceOnUse">
<stop stop-color="#FF4C84"/>
<stop offset="0.1681" stop-color="#DF599A"/>
<stop offset="0.7433" stop-color="#7680E2"/>
<stop offset="1" stop-color="#4C90FF"/>
</linearGradient>
</defs>
</svg>
