<svg width="110" height="111" viewBox="0 0 110 111" fill="none" xmlns="http://www.w3.org/2000/svg">
<g clip-path="url(#clip0_3012_13188)">
<path d="M76.4312 18.2013C69.0707 21.0007 67.5975 26.6843 67.175 32.9723C66.7525 39.2604 66.2689 43.7829 59.392 49.2651C49.7967 56.9157 53.7383 71.7345 67.9088 74.4279C67.9088 74.4279 84.103 68.6541 88.6505 49.2651C93.198 29.876 76.4312 18.2013 76.4312 18.2013ZM18.2812 43.4224C18.2812 43.4224 28.0822 49.0848 38.5837 44.6736C49.0852 40.2625 42.6753 28.4233 46.7225 23.0048C50.7696 17.5862 56.8681 16.9871 58.5526 10.1636C58.5526 10.1636 41.5579 7.42781 30.3949 18.196C19.2319 28.9641 18.2812 43.4224 18.2812 43.4224ZM34.153 53.7028C30.7285 55.2562 30.5784 59.8689 35.6262 63.2038C40.674 66.5386 46.0442 60.3195 46.728 56.9104C47.4063 53.5013 42.9866 49.6892 34.153 53.7028Z" fill="url(#paint0_linear_3012_13188)"/>
<path d="M53.7401 78.0331C33.7268 78.0331 17.4492 62.5091 17.4492 43.4223C17.4492 24.3355 33.7268 8.81152 53.7401 8.81152C73.7535 8.81152 90.031 24.3355 90.031 43.4223C90.031 62.5091 73.7535 78.0331 53.7401 78.0331ZM53.7401 10.4021C34.6496 10.4021 19.117 25.2156 19.117 43.4223C19.117 61.629 34.6496 76.4425 53.7401 76.4425C72.8307 76.4425 88.3633 61.629 88.3633 43.4223C88.3633 25.2156 72.8307 10.4021 53.7401 10.4021Z" fill="#6A2EA0"/>
<path d="M64.8907 92.3853H42.4702C40.3299 92.3853 38.5898 94.0394 38.5898 96.086V97.9893H68.7711V96.086C68.7711 94.0394 67.0311 92.3853 64.8907 92.3853Z" fill="#6A2EA0"/>
<path d="M53.6776 94.6332C53.2162 94.6332 52.8438 94.278 52.8438 93.8379V77.2377C52.8438 76.7976 53.2162 76.4424 53.6776 76.4424C54.1391 76.4424 54.5115 76.7976 54.5115 77.2377V93.8379C54.5115 94.278 54.1391 94.6332 53.6776 94.6332Z" fill="#6A2EA0"/>
<path d="M53.3717 86.463C28.4384 86.463 8.1582 67.1164 8.1582 43.3427C8.1582 31.5195 13.0726 20.4915 22.0063 12.2895C22.3399 11.9873 22.868 11.9926 23.1849 12.3107C23.5073 12.6288 23.4962 13.1325 23.1627 13.4347C14.5625 21.3345 9.82598 31.9542 9.82598 43.3427C9.82598 66.2416 29.3613 84.8725 53.3717 84.8725C64.8516 84.8725 75.6811 80.6522 83.8755 72.9856C84.2034 72.6781 84.7316 72.6834 85.054 72.9962C85.3764 73.309 85.3709 73.8127 85.0429 74.1202C76.5372 82.0784 65.2908 86.463 53.3717 86.463Z" fill="#6A2EA0"/>
<path d="M88.2855 78.0328C88.0687 78.0328 87.8519 77.9533 87.6851 77.7943L77.8841 68.1925C77.5617 67.8797 77.5728 67.376 77.9008 67.0685C78.2288 66.761 78.7569 66.7716 79.0794 67.0844L88.8804 76.6862C89.2028 76.999 89.1917 77.5027 88.8637 77.8102C88.7025 77.9586 88.4912 78.0328 88.2855 78.0328Z" fill="#6A2EA0"/>
<path d="M29.0275 19.9718C28.8107 19.9718 28.5938 19.8923 28.4271 19.7333L17.681 9.19839C17.3586 8.88557 17.3697 8.38189 17.6977 8.07438C18.0257 7.76687 18.5538 7.77748 18.8762 8.09029L29.6279 18.6199C29.9503 18.9327 29.9392 19.4363 29.6112 19.7439C29.45 19.8976 29.2387 19.9718 29.0275 19.9718Z" fill="#6A2EA0"/>
<path d="M100.532 98.7844H20.412C19.9506 98.7844 19.5781 98.4292 19.5781 97.9891C19.5781 97.5491 19.9506 97.1938 20.412 97.1938H100.532C100.994 97.1938 101.366 97.5491 101.366 97.9891C101.366 98.4292 100.988 98.7844 100.532 98.7844Z" fill="#6A2EA0"/>
</g>
<defs>
<linearGradient id="paint0_linear_3012_13188" x1="53.861" y1="9.85777" x2="53.861" y2="74.4258" gradientUnits="userSpaceOnUse">
<stop stop-color="#FF4C84"/>
<stop offset="0.6079" stop-color="#9077D1"/>
<stop offset="1" stop-color="#4C90FF"/>
</linearGradient>
<clipPath id="clip0_3012_13188">
<rect width="110" height="111" fill="white"/>
</clipPath>
</defs>
</svg>
