<svg width="546" height="546" viewBox="0 0 546 546" fill="none" xmlns="http://www.w3.org/2000/svg">
<path d="M233.639 119.124C232.531 119.124 231.633 118.253 231.633 117.179C231.633 116.105 232.531 115.234 233.639 115.234C234.747 115.234 235.645 116.105 235.645 117.179C235.645 118.253 234.747 119.124 233.639 119.124Z" fill="#CCDFFF"/>
<path d="M281.774 119.124C280.666 119.124 279.768 118.253 279.768 117.179C279.768 116.105 280.666 115.234 281.774 115.234C282.881 115.234 283.779 116.105 283.779 117.179C283.779 118.253 282.881 119.124 281.774 119.124Z" fill="#CCDFFF"/>
<path d="M329.907 119.124C328.799 119.124 327.901 118.253 327.901 117.179C327.901 116.105 328.799 115.234 329.907 115.234C331.014 115.234 331.912 116.105 331.912 117.179C331.912 118.253 331.014 119.124 329.907 119.124Z" fill="#CCDFFF"/>
<path d="M233.639 165.8C232.531 165.8 231.633 164.93 231.633 163.856C231.633 162.781 232.531 161.911 233.639 161.911C234.747 161.911 235.645 162.781 235.645 163.856C235.645 164.93 234.747 165.8 233.639 165.8Z" fill="#CCDFFF"/>
<path d="M233.639 235.816C232.531 235.816 231.633 234.945 231.633 233.871C231.633 232.797 232.531 231.926 233.639 231.926C234.747 231.926 235.645 232.797 235.645 233.871C235.645 234.945 234.747 235.816 233.639 235.816Z" fill="#CCDFFF"/>
<path d="M281.774 165.8C280.666 165.8 279.768 164.93 279.768 163.856C279.768 162.781 280.666 161.911 281.774 161.911C282.881 161.911 283.779 162.781 283.779 163.856C283.779 164.93 282.881 165.8 281.774 165.8Z" fill="#CCDFFF"/>
<path d="M329.907 165.8C328.799 165.8 327.901 164.93 327.901 163.856C327.901 162.781 328.799 161.911 329.907 161.911C331.014 161.911 331.912 162.781 331.912 163.856C331.912 164.93 331.014 165.8 329.907 165.8Z" fill="#CCDFFF"/>
<path d="M281.774 235.816C280.666 235.816 279.768 234.945 279.768 233.871C279.768 232.797 280.666 231.926 281.774 231.926C282.881 231.926 283.779 232.797 283.779 233.871C283.779 234.945 282.881 235.816 281.774 235.816Z" fill="#CCDFFF"/>
<path d="M329.907 235.816C328.799 235.816 327.901 234.945 327.901 233.871C327.901 232.797 328.799 231.926 329.907 231.926C331.014 231.926 331.912 232.797 331.912 233.871C331.912 234.945 331.014 235.816 329.907 235.816Z" fill="#CCDFFF"/>
<path d="M257.705 119.124C256.598 119.124 255.7 118.253 255.7 117.179C255.7 116.105 256.598 115.234 257.705 115.234C258.813 115.234 259.711 116.105 259.711 117.179C259.711 118.253 258.813 119.124 257.705 119.124Z" fill="#CCDFFF"/>
<path d="M305.84 119.124C304.732 119.124 303.835 118.253 303.835 117.179C303.835 116.105 304.732 115.234 305.84 115.234C306.948 115.234 307.846 116.105 307.846 117.179C307.846 118.253 306.948 119.124 305.84 119.124Z" fill="#CCDFFF"/>
<path d="M353.975 119.124C352.867 119.124 351.969 118.253 351.969 117.179C351.969 116.105 352.867 115.234 353.975 115.234C355.083 115.234 355.98 116.105 355.98 117.179C355.98 118.253 355.083 119.124 353.975 119.124Z" fill="#CCDFFF"/>
<path d="M378.041 119.124C376.934 119.124 376.036 118.253 376.036 117.179C376.036 116.105 376.934 115.234 378.041 115.234C379.149 115.234 380.047 116.105 380.047 117.179C380.047 118.253 379.149 119.124 378.041 119.124Z" fill="#CCDFFF"/>
<path d="M257.705 165.8C256.598 165.8 255.7 164.93 255.7 163.856C255.7 162.781 256.598 161.911 257.705 161.911C258.813 161.911 259.711 162.781 259.711 163.856C259.711 164.93 258.813 165.8 257.705 165.8Z" fill="#CCDFFF"/>
<path d="M257.705 235.816C256.598 235.816 255.7 234.945 255.7 233.871C255.7 232.797 256.598 231.926 257.705 231.926C258.813 231.926 259.711 232.797 259.711 233.871C259.711 234.945 258.813 235.816 257.705 235.816Z" fill="#CCDFFF"/>
<path d="M305.84 165.8C304.732 165.8 303.835 164.93 303.835 163.856C303.835 162.781 304.732 161.911 305.84 161.911C306.948 161.911 307.846 162.781 307.846 163.856C307.846 164.93 306.948 165.8 305.84 165.8Z" fill="#CCDFFF"/>
<path d="M353.975 165.8C352.867 165.8 351.969 164.93 351.969 163.856C351.969 162.781 352.867 161.911 353.975 161.911C355.083 161.911 355.98 162.781 355.98 163.856C355.98 164.93 355.083 165.8 353.975 165.8Z" fill="#CCDFFF"/>
<path d="M378.041 165.8C376.934 165.8 376.036 164.93 376.036 163.856C376.036 162.781 376.934 161.911 378.041 161.911C379.149 161.911 380.047 162.781 380.047 163.856C380.047 164.93 379.149 165.8 378.041 165.8Z" fill="#CCDFFF"/>
<path d="M305.84 235.816C304.732 235.816 303.835 234.945 303.835 233.871C303.835 232.797 304.732 231.926 305.84 231.926C306.948 231.926 307.846 232.797 307.846 233.871C307.846 234.945 306.948 235.816 305.84 235.816Z" fill="#CCDFFF"/>
<path d="M353.975 235.816C352.867 235.816 351.969 234.945 351.969 233.871C351.969 232.797 352.867 231.926 353.975 231.926C355.083 231.926 355.98 232.797 355.98 233.871C355.98 234.945 355.083 235.816 353.975 235.816Z" fill="#CCDFFF"/>
<path d="M378.041 235.816C376.934 235.816 376.036 234.945 376.036 233.871C376.036 232.797 376.934 231.926 378.041 231.926C379.149 231.926 380.047 232.797 380.047 233.871C380.047 234.945 379.149 235.816 378.041 235.816Z" fill="#CCDFFF"/>
<path d="M233.639 142.462C232.531 142.462 231.633 141.591 231.633 140.517C231.633 139.443 232.531 138.572 233.639 138.572C234.747 138.572 235.645 139.443 235.645 140.517C235.645 141.591 234.747 142.462 233.639 142.462Z" fill="#CCDFFF"/>
<path d="M233.639 212.477C232.531 212.477 231.633 211.606 231.633 210.532C231.633 209.458 232.531 208.587 233.639 208.587C234.747 208.587 235.645 209.458 235.645 210.532C235.645 211.606 234.747 212.477 233.639 212.477Z" fill="#CCDFFF"/>
<path d="M281.774 142.462C280.666 142.462 279.768 141.591 279.768 140.517C279.768 139.443 280.666 138.572 281.774 138.572C282.881 138.572 283.779 139.443 283.779 140.517C283.779 141.591 282.881 142.462 281.774 142.462Z" fill="#CCDFFF"/>
<path d="M329.907 142.462C328.799 142.462 327.901 141.591 327.901 140.517C327.901 139.443 328.799 138.572 329.907 138.572C331.014 138.572 331.912 139.443 331.912 140.517C331.912 141.591 331.014 142.462 329.907 142.462Z" fill="#CCDFFF"/>
<path d="M281.774 212.477C280.666 212.477 279.768 211.606 279.768 210.532C279.768 209.458 280.666 208.587 281.774 208.587C282.881 208.587 283.779 209.458 283.779 210.532C283.779 211.606 282.881 212.477 281.774 212.477Z" fill="#CCDFFF"/>
<path d="M329.907 212.477C328.799 212.477 327.901 211.606 327.901 210.532C327.901 209.458 328.799 208.587 329.907 208.587C331.014 208.587 331.912 209.458 331.912 210.532C331.912 211.606 331.014 212.477 329.907 212.477Z" fill="#CCDFFF"/>
<path d="M233.639 189.139C232.531 189.139 231.633 188.268 231.633 187.194C231.633 186.12 232.531 185.249 233.639 185.249C234.747 185.249 235.645 186.12 235.645 187.194C235.645 188.268 234.747 189.139 233.639 189.139Z" fill="#CCDFFF"/>
<path d="M233.639 259.154C232.531 259.154 231.633 258.284 231.633 257.21C231.633 256.135 232.531 255.265 233.639 255.265C234.747 255.265 235.645 256.135 235.645 257.21C235.645 258.284 234.747 259.154 233.639 259.154Z" fill="#CCDFFF"/>
<path d="M281.774 189.139C280.666 189.139 279.768 188.268 279.768 187.194C279.768 186.12 280.666 185.249 281.774 185.249C282.881 185.249 283.779 186.12 283.779 187.194C283.779 188.268 282.881 189.139 281.774 189.139Z" fill="#CCDFFF"/>
<path d="M329.907 189.139C328.799 189.139 327.901 188.268 327.901 187.194C327.901 186.12 328.799 185.249 329.907 185.249C331.014 185.249 331.912 186.12 331.912 187.194C331.912 188.268 331.014 189.139 329.907 189.139Z" fill="#CCDFFF"/>
<path d="M281.774 259.154C280.666 259.154 279.768 258.284 279.768 257.21C279.768 256.135 280.666 255.265 281.774 255.265C282.881 255.265 283.779 256.135 283.779 257.21C283.779 258.284 282.881 259.154 281.774 259.154Z" fill="#CCDFFF"/>
<path d="M329.907 259.154C328.799 259.154 327.901 258.284 327.901 257.21C327.901 256.135 328.799 255.265 329.907 255.265C331.014 255.265 331.912 256.135 331.912 257.21C331.912 258.284 331.014 259.154 329.907 259.154Z" fill="#CCDFFF"/>
<path d="M257.705 142.462C256.598 142.462 255.7 141.591 255.7 140.517C255.7 139.443 256.598 138.572 257.705 138.572C258.813 138.572 259.711 139.443 259.711 140.517C259.711 141.591 258.813 142.462 257.705 142.462Z" fill="#CCDFFF"/>
<path d="M257.705 212.477C256.598 212.477 255.7 211.606 255.7 210.532C255.7 209.458 256.598 208.587 257.705 208.587C258.813 208.587 259.711 209.458 259.711 210.532C259.711 211.606 258.813 212.477 257.705 212.477Z" fill="#CCDFFF"/>
<path d="M305.84 142.462C304.732 142.462 303.835 141.591 303.835 140.517C303.835 139.443 304.732 138.572 305.84 138.572C306.948 138.572 307.846 139.443 307.846 140.517C307.846 141.591 306.948 142.462 305.84 142.462Z" fill="#CCDFFF"/>
<path d="M353.975 142.462C352.867 142.462 351.969 141.591 351.969 140.517C351.969 139.443 352.867 138.572 353.975 138.572C355.083 138.572 355.98 139.443 355.98 140.517C355.98 141.591 355.083 142.462 353.975 142.462Z" fill="#CCDFFF"/>
<path d="M378.041 142.462C376.934 142.462 376.036 141.591 376.036 140.517C376.036 139.443 376.934 138.572 378.041 138.572C379.149 138.572 380.047 139.443 380.047 140.517C380.047 141.591 379.149 142.462 378.041 142.462Z" fill="#CCDFFF"/>
<path d="M305.84 212.477C304.732 212.477 303.835 211.606 303.835 210.532C303.835 209.458 304.732 208.587 305.84 208.587C306.948 208.587 307.846 209.458 307.846 210.532C307.846 211.606 306.948 212.477 305.84 212.477Z" fill="#CCDFFF"/>
<path d="M353.975 212.477C352.867 212.477 351.969 211.606 351.969 210.532C351.969 209.458 352.867 208.587 353.975 208.587C355.083 208.587 355.98 209.458 355.98 210.532C355.98 211.606 355.083 212.477 353.975 212.477Z" fill="#CCDFFF"/>
<path d="M378.041 212.477C376.934 212.477 376.036 211.606 376.036 210.532C376.036 209.458 376.934 208.587 378.041 208.587C379.149 208.587 380.047 209.458 380.047 210.532C380.047 211.606 379.149 212.477 378.041 212.477Z" fill="#CCDFFF"/>
<path d="M257.705 189.139C256.598 189.139 255.7 188.268 255.7 187.194C255.7 186.12 256.598 185.249 257.705 185.249C258.813 185.249 259.711 186.12 259.711 187.194C259.711 188.268 258.813 189.139 257.705 189.139Z" fill="#CCDFFF"/>
<path d="M257.705 259.154C256.598 259.154 255.7 258.284 255.7 257.21C255.7 256.135 256.598 255.265 257.705 255.265C258.813 255.265 259.711 256.135 259.711 257.21C259.711 258.284 258.813 259.154 257.705 259.154Z" fill="#CCDFFF"/>
<path d="M305.84 189.139C304.732 189.139 303.835 188.268 303.835 187.194C303.835 186.12 304.732 185.249 305.84 185.249C306.948 185.249 307.846 186.12 307.846 187.194C307.846 188.268 306.948 189.139 305.84 189.139Z" fill="#CCDFFF"/>
<path d="M353.975 189.139C352.867 189.139 351.969 188.268 351.969 187.194C351.969 186.12 352.867 185.249 353.975 185.249C355.083 185.249 355.98 186.12 355.98 187.194C355.98 188.268 355.083 189.139 353.975 189.139Z" fill="#CCDFFF"/>
<path d="M378.041 189.139C376.934 189.139 376.036 188.268 376.036 187.194C376.036 186.12 376.934 185.249 378.041 185.249C379.149 185.249 380.047 186.12 380.047 187.194C380.047 188.268 379.149 189.139 378.041 189.139Z" fill="#CCDFFF"/>
<path d="M305.84 259.154C304.732 259.154 303.835 258.284 303.835 257.21C303.835 256.135 304.732 255.265 305.84 255.265C306.948 255.265 307.846 256.135 307.846 257.21C307.846 258.284 306.948 259.154 305.84 259.154Z" fill="#CCDFFF"/>
<path d="M353.975 259.154C352.867 259.154 351.969 258.284 351.969 257.21C351.969 256.135 352.867 255.265 353.975 255.265C355.083 255.265 355.98 256.135 355.98 257.21C355.98 258.284 355.083 259.154 353.975 259.154Z" fill="#CCDFFF"/>
<path d="M378.041 259.154C376.934 259.154 376.036 258.284 376.036 257.21C376.036 256.135 376.934 255.265 378.041 255.265C379.149 255.265 380.047 256.135 380.047 257.21C380.047 258.284 379.149 259.154 378.041 259.154Z" fill="#CCDFFF"/>
<path d="M209.573 119.124C208.465 119.124 207.567 118.253 207.567 117.179C207.567 116.105 208.465 115.234 209.573 115.234C210.68 115.234 211.578 116.105 211.578 117.179C211.578 118.253 210.68 119.124 209.573 119.124Z" fill="#CCDFFF"/>
<path d="M209.573 165.8C208.465 165.8 207.567 164.93 207.567 163.856C207.567 162.781 208.465 161.911 209.573 161.911C210.68 161.911 211.578 162.781 211.578 163.856C211.578 164.93 210.68 165.8 209.573 165.8Z" fill="#CCDFFF"/>
<path d="M209.573 235.816C208.465 235.816 207.567 234.945 207.567 233.871C207.567 232.797 208.465 231.926 209.573 231.926C210.68 231.926 211.578 232.797 211.578 233.871C211.578 234.945 210.68 235.816 209.573 235.816Z" fill="#CCDFFF"/>
<path d="M209.573 142.462C208.465 142.462 207.567 141.591 207.567 140.517C207.567 139.443 208.465 138.572 209.573 138.572C210.68 138.572 211.578 139.443 211.578 140.517C211.578 141.591 210.68 142.462 209.573 142.462Z" fill="#CCDFFF"/>
<path d="M209.573 212.477C208.465 212.477 207.567 211.606 207.567 210.532C207.567 209.458 208.465 208.587 209.573 208.587C210.68 208.587 211.578 209.458 211.578 210.532C211.578 211.606 210.68 212.477 209.573 212.477Z" fill="#CCDFFF"/>
<path d="M209.573 189.139C208.465 189.139 207.567 188.268 207.567 187.194C207.567 186.12 208.465 185.249 209.573 185.249C210.68 185.249 211.578 186.12 211.578 187.194C211.578 188.268 210.68 189.139 209.573 189.139Z" fill="#CCDFFF"/>
<path d="M209.573 259.154C208.465 259.154 207.567 258.284 207.567 257.21C207.567 256.135 208.465 255.265 209.573 255.265C210.68 255.265 211.578 256.135 211.578 257.21C211.578 258.284 210.68 259.154 209.573 259.154Z" fill="#CCDFFF"/>
<path d="M402.108 119.124C401 119.124 400.102 118.253 400.102 117.179C400.102 116.105 401 115.234 402.108 115.234C403.215 115.234 404.113 116.105 404.113 117.179C404.113 118.253 403.215 119.124 402.108 119.124Z" fill="#CCDFFF"/>
<path d="M450.242 119.124C449.135 119.124 448.237 118.253 448.237 117.179C448.237 116.105 449.135 115.234 450.242 115.234C451.35 115.234 452.248 116.105 452.248 117.179C452.248 118.253 451.35 119.124 450.242 119.124Z" fill="#CCDFFF"/>
<path d="M498.377 119.124C497.27 119.124 496.372 118.253 496.372 117.179C496.372 116.105 497.27 115.234 498.377 115.234C499.485 115.234 500.383 116.105 500.383 117.179C500.383 118.253 499.485 119.124 498.377 119.124Z" fill="#CCDFFF"/>
<path d="M402.108 165.8C401 165.8 400.102 164.93 400.102 163.856C400.102 162.781 401 161.911 402.108 161.911C403.215 161.911 404.113 162.781 404.113 163.856C404.113 164.93 403.215 165.8 402.108 165.8Z" fill="#CCDFFF"/>
<path d="M402.108 235.816C401 235.816 400.102 234.945 400.102 233.871C400.102 232.797 401 231.926 402.108 231.926C403.215 231.926 404.113 232.797 404.113 233.871C404.113 234.945 403.215 235.816 402.108 235.816Z" fill="#CCDFFF"/>
<path d="M450.242 165.8C449.135 165.8 448.237 164.93 448.237 163.856C448.237 162.781 449.135 161.911 450.242 161.911C451.35 161.911 452.248 162.781 452.248 163.856C452.248 164.93 451.35 165.8 450.242 165.8Z" fill="#CCDFFF"/>
<path d="M498.377 165.8C497.27 165.8 496.372 164.93 496.372 163.856C496.372 162.781 497.27 161.911 498.377 161.911C499.485 161.911 500.383 162.781 500.383 163.856C500.383 164.93 499.485 165.8 498.377 165.8Z" fill="#CCDFFF"/>
<path d="M450.242 235.816C449.135 235.816 448.237 234.945 448.237 233.871C448.237 232.797 449.135 231.926 450.242 231.926C451.35 231.926 452.248 232.797 452.248 233.871C452.248 234.945 451.35 235.816 450.242 235.816Z" fill="#CCDFFF"/>
<path d="M498.377 235.816C497.27 235.816 496.372 234.945 496.372 233.871C496.372 232.797 497.27 231.926 498.377 231.926C499.485 231.926 500.383 232.797 500.383 233.871C500.383 234.945 499.485 235.816 498.377 235.816Z" fill="#CCDFFF"/>
<path d="M426.176 119.124C425.068 119.124 424.17 118.253 424.17 117.179C424.17 116.105 425.068 115.234 426.176 115.234C427.284 115.234 428.182 116.105 428.182 117.179C428.182 118.253 427.284 119.124 426.176 119.124Z" fill="#CCDFFF"/>
<path d="M474.309 119.124C473.201 119.124 472.303 118.253 472.303 117.179C472.303 116.105 473.201 115.234 474.309 115.234C475.417 115.234 476.314 116.105 476.314 117.179C476.314 118.253 475.417 119.124 474.309 119.124Z" fill="#CCDFFF"/>
<path d="M522.444 119.124C521.336 119.124 520.438 118.253 520.438 117.179C520.438 116.105 521.336 115.234 522.444 115.234C523.551 115.234 524.449 116.105 524.449 117.179C524.449 118.253 523.551 119.124 522.444 119.124Z" fill="#CCDFFF"/>
<path d="M426.176 165.8C425.068 165.8 424.17 164.93 424.17 163.856C424.17 162.781 425.068 161.911 426.176 161.911C427.284 161.911 428.182 162.781 428.182 163.856C428.182 164.93 427.284 165.8 426.176 165.8Z" fill="#CCDFFF"/>
<path d="M426.176 235.816C425.068 235.816 424.17 234.945 424.17 233.871C424.17 232.797 425.068 231.926 426.176 231.926C427.284 231.926 428.182 232.797 428.182 233.871C428.182 234.945 427.284 235.816 426.176 235.816Z" fill="#CCDFFF"/>
<path d="M474.309 165.8C473.201 165.8 472.303 164.93 472.303 163.856C472.303 162.781 473.201 161.911 474.309 161.911C475.417 161.911 476.314 162.781 476.314 163.856C476.314 164.93 475.417 165.8 474.309 165.8Z" fill="#CCDFFF"/>
<path d="M522.444 165.8C521.336 165.8 520.438 164.93 520.438 163.856C520.438 162.781 521.336 161.911 522.444 161.911C523.551 161.911 524.449 162.781 524.449 163.856C524.449 164.93 523.551 165.8 522.444 165.8Z" fill="#CCDFFF"/>
<path d="M474.309 235.816C473.201 235.816 472.303 234.945 472.303 233.871C472.303 232.797 473.201 231.926 474.309 231.926C475.417 231.926 476.314 232.797 476.314 233.871C476.314 234.945 475.417 235.816 474.309 235.816Z" fill="#CCDFFF"/>
<path d="M522.444 235.816C521.336 235.816 520.438 234.945 520.438 233.871C520.438 232.797 521.336 231.926 522.444 231.926C523.551 231.926 524.449 232.797 524.449 233.871C524.449 234.945 523.551 235.816 522.444 235.816Z" fill="#CCDFFF"/>
<path d="M402.108 142.462C401 142.462 400.102 141.591 400.102 140.517C400.102 139.443 401 138.572 402.108 138.572C403.215 138.572 404.113 139.443 404.113 140.517C404.113 141.591 403.215 142.462 402.108 142.462Z" fill="#CCDFFF"/>
<path d="M402.108 212.477C401 212.477 400.102 211.606 400.102 210.532C400.102 209.458 401 208.587 402.108 208.587C403.215 208.587 404.113 209.458 404.113 210.532C404.113 211.606 403.215 212.477 402.108 212.477Z" fill="#CCDFFF"/>
<path d="M450.242 142.462C449.135 142.462 448.237 141.591 448.237 140.517C448.237 139.443 449.135 138.572 450.242 138.572C451.35 138.572 452.248 139.443 452.248 140.517C452.248 141.591 451.35 142.462 450.242 142.462Z" fill="#CCDFFF"/>
<path d="M498.377 142.462C497.27 142.462 496.372 141.591 496.372 140.517C496.372 139.443 497.27 138.572 498.377 138.572C499.485 138.572 500.383 139.443 500.383 140.517C500.383 141.591 499.485 142.462 498.377 142.462Z" fill="#CCDFFF"/>
<path d="M450.242 212.477C449.135 212.477 448.237 211.606 448.237 210.532C448.237 209.458 449.135 208.587 450.242 208.587C451.35 208.587 452.248 209.458 452.248 210.532C452.248 211.606 451.35 212.477 450.242 212.477Z" fill="#CCDFFF"/>
<path d="M498.377 212.477C497.27 212.477 496.372 211.606 496.372 210.532C496.372 209.458 497.27 208.587 498.377 208.587C499.485 208.587 500.383 209.458 500.383 210.532C500.383 211.606 499.485 212.477 498.377 212.477Z" fill="#CCDFFF"/>
<path d="M402.108 189.139C401 189.139 400.102 188.268 400.102 187.194C400.102 186.12 401 185.249 402.108 185.249C403.215 185.249 404.113 186.12 404.113 187.194C404.113 188.268 403.215 189.139 402.108 189.139Z" fill="#CCDFFF"/>
<path d="M402.108 259.154C401 259.154 400.102 258.284 400.102 257.21C400.102 256.135 401 255.265 402.108 255.265C403.215 255.265 404.113 256.135 404.113 257.21C404.113 258.284 403.215 259.154 402.108 259.154Z" fill="#CCDFFF"/>
<path d="M450.242 189.139C449.135 189.139 448.237 188.268 448.237 187.194C448.237 186.12 449.135 185.249 450.242 185.249C451.35 185.249 452.248 186.12 452.248 187.194C452.248 188.268 451.35 189.139 450.242 189.139Z" fill="#CCDFFF"/>
<path d="M498.377 189.139C497.27 189.139 496.372 188.268 496.372 187.194C496.372 186.12 497.27 185.249 498.377 185.249C499.485 185.249 500.383 186.12 500.383 187.194C500.383 188.268 499.485 189.139 498.377 189.139Z" fill="#CCDFFF"/>
<path d="M450.242 259.154C449.135 259.154 448.237 258.284 448.237 257.21C448.237 256.135 449.135 255.265 450.242 255.265C451.35 255.265 452.248 256.135 452.248 257.21C452.248 258.284 451.35 259.154 450.242 259.154Z" fill="#CCDFFF"/>
<path d="M498.377 259.154C497.27 259.154 496.372 258.284 496.372 257.21C496.372 256.135 497.27 255.265 498.377 255.265C499.485 255.265 500.383 256.135 500.383 257.21C500.383 258.284 499.485 259.154 498.377 259.154Z" fill="#CCDFFF"/>
<path d="M426.176 142.462C425.068 142.462 424.17 141.591 424.17 140.517C424.17 139.443 425.068 138.572 426.176 138.572C427.284 138.572 428.182 139.443 428.182 140.517C428.182 141.591 427.284 142.462 426.176 142.462Z" fill="#CCDFFF"/>
<path d="M426.176 212.477C425.068 212.477 424.17 211.606 424.17 210.532C424.17 209.458 425.068 208.587 426.176 208.587C427.284 208.587 428.182 209.458 428.182 210.532C428.182 211.606 427.284 212.477 426.176 212.477Z" fill="#CCDFFF"/>
<path d="M474.309 142.462C473.201 142.462 472.303 141.591 472.303 140.517C472.303 139.443 473.201 138.572 474.309 138.572C475.417 138.572 476.314 139.443 476.314 140.517C476.314 141.591 475.417 142.462 474.309 142.462Z" fill="#CCDFFF"/>
<path d="M522.444 142.462C521.336 142.462 520.438 141.591 520.438 140.517C520.438 139.443 521.336 138.572 522.444 138.572C523.551 138.572 524.449 139.443 524.449 140.517C524.449 141.591 523.551 142.462 522.444 142.462Z" fill="#CCDFFF"/>
<path d="M474.309 212.477C473.201 212.477 472.303 211.606 472.303 210.532C472.303 209.458 473.201 208.587 474.309 208.587C475.417 208.587 476.314 209.458 476.314 210.532C476.314 211.606 475.417 212.477 474.309 212.477Z" fill="#CCDFFF"/>
<path d="M522.444 212.477C521.336 212.477 520.438 211.606 520.438 210.532C520.438 209.458 521.336 208.587 522.444 208.587C523.551 208.587 524.449 209.458 524.449 210.532C524.449 211.606 523.551 212.477 522.444 212.477Z" fill="#CCDFFF"/>
<path d="M426.176 189.139C425.068 189.139 424.17 188.268 424.17 187.194C424.17 186.12 425.068 185.249 426.176 185.249C427.284 185.249 428.182 186.12 428.182 187.194C428.182 188.268 427.284 189.139 426.176 189.139Z" fill="#CCDFFF"/>
<path d="M426.176 259.154C425.068 259.154 424.17 258.284 424.17 257.21C424.17 256.135 425.068 255.265 426.176 255.265C427.284 255.265 428.182 256.135 428.182 257.21C428.182 258.284 427.284 259.154 426.176 259.154Z" fill="#CCDFFF"/>
<path d="M474.309 189.139C473.201 189.139 472.303 188.268 472.303 187.194C472.303 186.12 473.201 185.249 474.309 185.249C475.417 185.249 476.314 186.12 476.314 187.194C476.314 188.268 475.417 189.139 474.309 189.139Z" fill="#CCDFFF"/>
<path d="M522.444 189.139C521.336 189.139 520.438 188.268 520.438 187.194C520.438 186.12 521.336 185.249 522.444 185.249C523.551 185.249 524.449 186.12 524.449 187.194C524.449 188.268 523.551 189.139 522.444 189.139Z" fill="#CCDFFF"/>
<path d="M474.309 259.154C473.201 259.154 472.303 258.284 472.303 257.21C472.303 256.135 473.201 255.265 474.309 255.265C475.417 255.265 476.314 256.135 476.314 257.21C476.314 258.284 475.417 259.154 474.309 259.154Z" fill="#CCDFFF"/>
<path d="M522.444 259.154C521.336 259.154 520.438 258.284 520.438 257.21C520.438 256.135 521.336 255.265 522.444 255.265C523.551 255.265 524.449 256.135 524.449 257.21C524.449 258.284 523.551 259.154 522.444 259.154Z" fill="#CCDFFF"/>
<path d="M233.639 282.493C232.531 282.493 231.633 281.622 231.633 280.548C231.633 279.474 232.531 278.603 233.639 278.603C234.747 278.603 235.645 279.474 235.645 280.548C235.645 281.622 234.747 282.493 233.639 282.493Z" fill="#CCDFFF"/>
<path d="M281.774 282.493C280.666 282.493 279.768 281.622 279.768 280.548C279.768 279.474 280.666 278.603 281.774 278.603C282.881 278.603 283.779 279.474 283.779 280.548C283.779 281.622 282.881 282.493 281.774 282.493Z" fill="#CCDFFF"/>
<path d="M329.907 282.493C328.799 282.493 327.901 281.622 327.901 280.548C327.901 279.474 328.799 278.603 329.907 278.603C331.014 278.603 331.912 279.474 331.912 280.548C331.912 281.622 331.014 282.493 329.907 282.493Z" fill="#CCDFFF"/>
<path d="M233.639 329.169C232.531 329.169 231.633 328.299 231.633 327.225C231.633 326.151 232.531 325.28 233.639 325.28C234.747 325.28 235.645 326.151 235.645 327.225C235.645 328.299 234.747 329.169 233.639 329.169Z" fill="#CCDFFF"/>
<path d="M233.639 399.185C232.531 399.185 231.633 398.314 231.633 397.24C231.633 396.166 232.531 395.295 233.639 395.295C234.747 395.295 235.645 396.166 235.645 397.24C235.645 398.314 234.747 399.185 233.639 399.185Z" fill="#CCDFFF"/>
<path d="M281.774 329.169C280.666 329.169 279.768 328.299 279.768 327.225C279.768 326.151 280.666 325.28 281.774 325.28C282.881 325.28 283.779 326.151 283.779 327.225C283.779 328.299 282.881 329.169 281.774 329.169Z" fill="#CCDFFF"/>
<path d="M329.907 329.169C328.799 329.169 327.901 328.299 327.901 327.225C327.901 326.151 328.799 325.28 329.907 325.28C331.014 325.28 331.912 326.151 331.912 327.225C331.912 328.299 331.014 329.169 329.907 329.169Z" fill="#CCDFFF"/>
<path d="M281.774 399.185C280.666 399.185 279.768 398.314 279.768 397.24C279.768 396.166 280.666 395.295 281.774 395.295C282.881 395.295 283.779 396.166 283.779 397.24C283.779 398.314 282.881 399.185 281.774 399.185Z" fill="#CCDFFF"/>
<path d="M329.907 399.185C328.799 399.185 327.901 398.314 327.901 397.24C327.901 396.166 328.799 395.295 329.907 395.295C331.014 395.295 331.912 396.166 331.912 397.24C331.912 398.314 331.014 399.185 329.907 399.185Z" fill="#CCDFFF"/>
<path d="M257.705 282.493C256.598 282.493 255.7 281.622 255.7 280.548C255.7 279.474 256.598 278.603 257.705 278.603C258.813 278.603 259.711 279.474 259.711 280.548C259.711 281.622 258.813 282.493 257.705 282.493Z" fill="#CCDFFF"/>
<path d="M305.84 282.493C304.732 282.493 303.835 281.622 303.835 280.548C303.835 279.474 304.732 278.603 305.84 278.603C306.948 278.603 307.846 279.474 307.846 280.548C307.846 281.622 306.948 282.493 305.84 282.493Z" fill="#CCDFFF"/>
<path d="M353.975 282.493C352.867 282.493 351.969 281.622 351.969 280.548C351.969 279.474 352.867 278.603 353.975 278.603C355.083 278.603 355.98 279.474 355.98 280.548C355.98 281.622 355.083 282.493 353.975 282.493Z" fill="#CCDFFF"/>
<path d="M378.041 282.493C376.934 282.493 376.036 281.622 376.036 280.548C376.036 279.474 376.934 278.603 378.041 278.603C379.149 278.603 380.047 279.474 380.047 280.548C380.047 281.622 379.149 282.493 378.041 282.493Z" fill="#CCDFFF"/>
<path d="M257.705 329.169C256.598 329.169 255.7 328.299 255.7 327.225C255.7 326.151 256.598 325.28 257.705 325.28C258.813 325.28 259.711 326.151 259.711 327.225C259.711 328.299 258.813 329.169 257.705 329.169Z" fill="#CCDFFF"/>
<path d="M257.705 399.185C256.598 399.185 255.7 398.314 255.7 397.24C255.7 396.166 256.598 395.295 257.705 395.295C258.813 395.295 259.711 396.166 259.711 397.24C259.711 398.314 258.813 399.185 257.705 399.185Z" fill="#CCDFFF"/>
<path d="M305.84 329.169C304.732 329.169 303.835 328.299 303.835 327.225C303.835 326.151 304.732 325.28 305.84 325.28C306.948 325.28 307.846 326.151 307.846 327.225C307.846 328.299 306.948 329.169 305.84 329.169Z" fill="#CCDFFF"/>
<path d="M353.975 329.169C352.867 329.169 351.969 328.299 351.969 327.225C351.969 326.151 352.867 325.28 353.975 325.28C355.083 325.28 355.98 326.151 355.98 327.225C355.98 328.299 355.083 329.169 353.975 329.169Z" fill="#CCDFFF"/>
<path d="M378.041 329.169C376.934 329.169 376.036 328.299 376.036 327.225C376.036 326.151 376.934 325.28 378.041 325.28C379.149 325.28 380.047 326.151 380.047 327.225C380.047 328.299 379.149 329.169 378.041 329.169Z" fill="#CCDFFF"/>
<path d="M305.84 399.185C304.732 399.185 303.835 398.314 303.835 397.24C303.835 396.166 304.732 395.295 305.84 395.295C306.948 395.295 307.846 396.166 307.846 397.24C307.846 398.314 306.948 399.185 305.84 399.185Z" fill="#CCDFFF"/>
<path d="M353.975 399.185C352.867 399.185 351.969 398.314 351.969 397.24C351.969 396.166 352.867 395.295 353.975 395.295C355.083 395.295 355.98 396.166 355.98 397.24C355.98 398.314 355.083 399.185 353.975 399.185Z" fill="#CCDFFF"/>
<path d="M378.041 399.185C376.934 399.185 376.036 398.314 376.036 397.24C376.036 396.166 376.934 395.295 378.041 395.295C379.149 395.295 380.047 396.166 380.047 397.24C380.047 398.314 379.149 399.185 378.041 399.185Z" fill="#CCDFFF"/>
<path d="M233.639 305.831C232.531 305.831 231.633 304.96 231.633 303.886C231.633 302.812 232.531 301.941 233.639 301.941C234.747 301.941 235.645 302.812 235.645 303.886C235.645 304.96 234.747 305.831 233.639 305.831Z" fill="#CCDFFF"/>
<path d="M233.639 375.846C232.531 375.846 231.633 374.976 231.633 373.901C231.633 372.827 232.531 371.957 233.639 371.957C234.747 371.957 235.645 372.827 235.645 373.901C235.645 374.976 234.747 375.846 233.639 375.846Z" fill="#CCDFFF"/>
<path d="M281.774 305.831C280.666 305.831 279.768 304.96 279.768 303.886C279.768 302.812 280.666 301.941 281.774 301.941C282.881 301.941 283.779 302.812 283.779 303.886C283.779 304.96 282.881 305.831 281.774 305.831Z" fill="#CCDFFF"/>
<path d="M329.907 305.831C328.799 305.831 327.901 304.96 327.901 303.886C327.901 302.812 328.799 301.941 329.907 301.941C331.014 301.941 331.912 302.812 331.912 303.886C331.912 304.96 331.014 305.831 329.907 305.831Z" fill="#CCDFFF"/>
<path d="M281.774 375.846C280.666 375.846 279.768 374.976 279.768 373.901C279.768 372.827 280.666 371.957 281.774 371.957C282.881 371.957 283.779 372.827 283.779 373.901C283.779 374.976 282.881 375.846 281.774 375.846Z" fill="#CCDFFF"/>
<path d="M329.907 375.846C328.799 375.846 327.901 374.976 327.901 373.901C327.901 372.827 328.799 371.957 329.907 371.957C331.014 371.957 331.912 372.827 331.912 373.901C331.912 374.976 331.014 375.846 329.907 375.846Z" fill="#CCDFFF"/>
<path d="M233.639 352.508C232.531 352.508 231.633 351.637 231.633 350.563C231.633 349.489 232.531 348.618 233.639 348.618C234.747 348.618 235.645 349.489 235.645 350.563C235.645 351.637 234.747 352.508 233.639 352.508Z" fill="#CCDFFF"/>
<path d="M233.639 422.524C232.531 422.524 231.633 421.653 231.633 420.579C231.633 419.505 232.531 418.634 233.639 418.634C234.747 418.634 235.645 419.505 235.645 420.579C235.645 421.653 234.747 422.524 233.639 422.524Z" fill="#CCDFFF"/>
<path d="M281.774 352.508C280.666 352.508 279.768 351.637 279.768 350.563C279.768 349.489 280.666 348.618 281.774 348.618C282.881 348.618 283.779 349.489 283.779 350.563C283.779 351.637 282.881 352.508 281.774 352.508Z" fill="#CCDFFF"/>
<path d="M329.907 352.508C328.799 352.508 327.901 351.637 327.901 350.563C327.901 349.489 328.799 348.618 329.907 348.618C331.014 348.618 331.912 349.489 331.912 350.563C331.912 351.637 331.014 352.508 329.907 352.508Z" fill="#CCDFFF"/>
<path d="M281.774 422.524C280.666 422.524 279.768 421.653 279.768 420.579C279.768 419.505 280.666 418.634 281.774 418.634C282.881 418.634 283.779 419.505 283.779 420.579C283.779 421.653 282.881 422.524 281.774 422.524Z" fill="#CCDFFF"/>
<path d="M329.907 422.524C328.799 422.524 327.901 421.653 327.901 420.579C327.901 419.505 328.799 418.634 329.907 418.634C331.014 418.634 331.912 419.505 331.912 420.579C331.912 421.653 331.014 422.524 329.907 422.524Z" fill="#CCDFFF"/>
<path d="M257.705 305.831C256.598 305.831 255.7 304.96 255.7 303.886C255.7 302.812 256.598 301.941 257.705 301.941C258.813 301.941 259.711 302.812 259.711 303.886C259.711 304.96 258.813 305.831 257.705 305.831Z" fill="#CCDFFF"/>
<path d="M257.705 375.846C256.598 375.846 255.7 374.976 255.7 373.901C255.7 372.827 256.598 371.957 257.705 371.957C258.813 371.957 259.711 372.827 259.711 373.901C259.711 374.976 258.813 375.846 257.705 375.846Z" fill="#CCDFFF"/>
<path d="M305.84 305.831C304.732 305.831 303.835 304.96 303.835 303.886C303.835 302.812 304.732 301.941 305.84 301.941C306.948 301.941 307.846 302.812 307.846 303.886C307.846 304.96 306.948 305.831 305.84 305.831Z" fill="#CCDFFF"/>
<path d="M353.975 305.831C352.867 305.831 351.969 304.96 351.969 303.886C351.969 302.812 352.867 301.941 353.975 301.941C355.083 301.941 355.98 302.812 355.98 303.886C355.98 304.96 355.083 305.831 353.975 305.831Z" fill="#CCDFFF"/>
<path d="M378.041 305.831C376.934 305.831 376.036 304.96 376.036 303.886C376.036 302.812 376.934 301.941 378.041 301.941C379.149 301.941 380.047 302.812 380.047 303.886C380.047 304.96 379.149 305.831 378.041 305.831Z" fill="#CCDFFF"/>
<path d="M305.84 375.846C304.732 375.846 303.835 374.976 303.835 373.901C303.835 372.827 304.732 371.957 305.84 371.957C306.948 371.957 307.846 372.827 307.846 373.901C307.846 374.976 306.948 375.846 305.84 375.846Z" fill="#CCDFFF"/>
<path d="M353.975 375.846C352.867 375.846 351.969 374.976 351.969 373.901C351.969 372.827 352.867 371.957 353.975 371.957C355.083 371.957 355.98 372.827 355.98 373.901C355.98 374.976 355.083 375.846 353.975 375.846Z" fill="#CCDFFF"/>
<path d="M378.041 375.846C376.934 375.846 376.036 374.976 376.036 373.901C376.036 372.827 376.934 371.957 378.041 371.957C379.149 371.957 380.047 372.827 380.047 373.901C380.047 374.976 379.149 375.846 378.041 375.846Z" fill="#CCDFFF"/>
<path d="M257.705 352.508C256.598 352.508 255.7 351.637 255.7 350.563C255.7 349.489 256.598 348.618 257.705 348.618C258.813 348.618 259.711 349.489 259.711 350.563C259.711 351.637 258.813 352.508 257.705 352.508Z" fill="#CCDFFF"/>
<path d="M257.705 422.524C256.598 422.524 255.7 421.653 255.7 420.579C255.7 419.505 256.598 418.634 257.705 418.634C258.813 418.634 259.711 419.505 259.711 420.579C259.711 421.653 258.813 422.524 257.705 422.524Z" fill="#CCDFFF"/>
<path d="M305.84 352.508C304.732 352.508 303.835 351.637 303.835 350.563C303.835 349.489 304.732 348.618 305.84 348.618C306.948 348.618 307.846 349.489 307.846 350.563C307.846 351.637 306.948 352.508 305.84 352.508Z" fill="#CCDFFF"/>
<path d="M353.975 352.508C352.867 352.508 351.969 351.637 351.969 350.563C351.969 349.489 352.867 348.618 353.975 348.618C355.083 348.618 355.98 349.489 355.98 350.563C355.98 351.637 355.083 352.508 353.975 352.508Z" fill="#CCDFFF"/>
<path d="M378.041 352.508C376.934 352.508 376.036 351.637 376.036 350.563C376.036 349.489 376.934 348.618 378.041 348.618C379.149 348.618 380.047 349.489 380.047 350.563C380.047 351.637 379.149 352.508 378.041 352.508Z" fill="#CCDFFF"/>
<path d="M305.84 422.524C304.732 422.524 303.835 421.653 303.835 420.579C303.835 419.505 304.732 418.634 305.84 418.634C306.948 418.634 307.846 419.505 307.846 420.579C307.846 421.653 306.948 422.524 305.84 422.524Z" fill="#CCDFFF"/>
<path d="M353.975 422.524C352.867 422.524 351.969 421.653 351.969 420.579C351.969 419.505 352.867 418.634 353.975 418.634C355.083 418.634 355.98 419.505 355.98 420.579C355.98 421.653 355.083 422.524 353.975 422.524Z" fill="#CCDFFF"/>
<path d="M378.041 422.524C376.934 422.524 376.036 421.653 376.036 420.579C376.036 419.505 376.934 418.634 378.041 418.634C379.149 418.634 380.047 419.505 380.047 420.579C380.047 421.653 379.149 422.524 378.041 422.524Z" fill="#CCDFFF"/>
<path d="M209.573 282.493C208.465 282.493 207.567 281.622 207.567 280.548C207.567 279.474 208.465 278.603 209.573 278.603C210.68 278.603 211.578 279.474 211.578 280.548C211.578 281.622 210.68 282.493 209.573 282.493Z" fill="#CCDFFF"/>
<path d="M209.573 329.169C208.465 329.169 207.567 328.299 207.567 327.225C207.567 326.151 208.465 325.28 209.573 325.28C210.68 325.28 211.578 326.151 211.578 327.225C211.578 328.299 210.68 329.169 209.573 329.169Z" fill="#CCDFFF"/>
<path d="M209.573 399.185C208.465 399.185 207.567 398.314 207.567 397.24C207.567 396.166 208.465 395.295 209.573 395.295C210.68 395.295 211.578 396.166 211.578 397.24C211.578 398.314 210.68 399.185 209.573 399.185Z" fill="#CCDFFF"/>
<path d="M209.573 305.831C208.465 305.831 207.567 304.96 207.567 303.886C207.567 302.812 208.465 301.941 209.573 301.941C210.68 301.941 211.578 302.812 211.578 303.886C211.578 304.96 210.68 305.831 209.573 305.831Z" fill="#CCDFFF"/>
<path d="M209.573 375.846C208.465 375.846 207.567 374.976 207.567 373.901C207.567 372.827 208.465 371.957 209.573 371.957C210.68 371.957 211.578 372.827 211.578 373.901C211.578 374.976 210.68 375.846 209.573 375.846Z" fill="#CCDFFF"/>
<path d="M209.573 352.508C208.465 352.508 207.567 351.637 207.567 350.563C207.567 349.489 208.465 348.618 209.573 348.618C210.68 348.618 211.578 349.489 211.578 350.563C211.578 351.637 210.68 352.508 209.573 352.508Z" fill="#CCDFFF"/>
<path d="M209.573 422.524C208.465 422.524 207.567 421.653 207.567 420.579C207.567 419.505 208.465 418.634 209.573 418.634C210.68 418.634 211.578 419.505 211.578 420.579C211.578 421.653 210.68 422.524 209.573 422.524Z" fill="#CCDFFF"/>
<path d="M233.639 72.4464C232.531 72.4464 231.633 71.5756 231.633 70.5015C231.633 69.4274 232.531 68.5566 233.639 68.5566C234.747 68.5566 235.645 69.4274 235.645 70.5015C235.645 71.5756 234.747 72.4464 233.639 72.4464Z" fill="#CCDFFF"/>
<path d="M281.774 72.4464C280.666 72.4464 279.768 71.5756 279.768 70.5015C279.768 69.4274 280.666 68.5566 281.774 68.5566C282.881 68.5566 283.779 69.4274 283.779 70.5015C283.779 71.5756 282.881 72.4464 281.774 72.4464Z" fill="#CCDFFF"/>
<path d="M329.907 72.4464C328.799 72.4464 327.901 71.5756 327.901 70.5015C327.901 69.4274 328.799 68.5566 329.907 68.5566C331.014 68.5566 331.912 69.4274 331.912 70.5015C331.912 71.5756 331.014 72.4464 329.907 72.4464Z" fill="#CCDFFF"/>
<path d="M257.705 72.4464C256.598 72.4464 255.7 71.5756 255.7 70.5015C255.7 69.4274 256.598 68.5566 257.705 68.5566C258.813 68.5566 259.711 69.4274 259.711 70.5015C259.711 71.5756 258.813 72.4464 257.705 72.4464Z" fill="#CCDFFF"/>
<path d="M305.84 72.4464C304.732 72.4464 303.835 71.5756 303.835 70.5015C303.835 69.4274 304.732 68.5566 305.84 68.5566C306.948 68.5566 307.846 69.4274 307.846 70.5015C307.846 71.5756 306.948 72.4464 305.84 72.4464Z" fill="#CCDFFF"/>
<path d="M353.975 72.4464C352.867 72.4464 351.969 71.5756 351.969 70.5015C351.969 69.4274 352.867 68.5566 353.975 68.5566C355.083 68.5566 355.98 69.4274 355.98 70.5015C355.98 71.5756 355.083 72.4464 353.975 72.4464Z" fill="#CCDFFF"/>
<path d="M378.041 72.4464C376.934 72.4464 376.036 71.5756 376.036 70.5015C376.036 69.4274 376.934 68.5566 378.041 68.5566C379.149 68.5566 380.047 69.4274 380.047 70.5015C380.047 71.5756 379.149 72.4464 378.041 72.4464Z" fill="#CCDFFF"/>
<path d="M233.639 49.108C232.531 49.108 231.633 48.2373 231.633 47.1631C231.633 46.089 232.531 45.2183 233.639 45.2183C234.747 45.2183 235.645 46.089 235.645 47.1631C235.645 48.2373 234.747 49.108 233.639 49.108Z" fill="#CCDFFF"/>
<path d="M281.774 49.108C280.666 49.108 279.768 48.2373 279.768 47.1631C279.768 46.089 280.666 45.2183 281.774 45.2183C282.881 45.2183 283.779 46.089 283.779 47.1631C283.779 48.2373 282.881 49.108 281.774 49.108Z" fill="#CCDFFF"/>
<path d="M329.907 49.108C328.799 49.108 327.901 48.2373 327.901 47.1631C327.901 46.089 328.799 45.2183 329.907 45.2183C331.014 45.2183 331.912 46.089 331.912 47.1631C331.912 48.2373 331.014 49.108 329.907 49.108Z" fill="#CCDFFF"/>
<path d="M233.639 95.7848C232.531 95.7848 231.633 94.914 231.633 93.8399C231.633 92.7658 232.531 91.895 233.639 91.895C234.747 91.895 235.645 92.7658 235.645 93.8399C235.645 94.914 234.747 95.7848 233.639 95.7848Z" fill="#CCDFFF"/>
<path d="M281.774 95.7848C280.666 95.7848 279.768 94.914 279.768 93.8399C279.768 92.7658 280.666 91.895 281.774 91.895C282.881 91.895 283.779 92.7658 283.779 93.8399C283.779 94.914 282.881 95.7848 281.774 95.7848Z" fill="#CCDFFF"/>
<path d="M329.907 95.7848C328.799 95.7848 327.901 94.914 327.901 93.8399C327.901 92.7658 328.799 91.895 329.907 91.895C331.014 91.895 331.912 92.7658 331.912 93.8399C331.912 94.914 331.014 95.7848 329.907 95.7848Z" fill="#CCDFFF"/>
<path d="M257.705 49.108C256.598 49.108 255.7 48.2373 255.7 47.1631C255.7 46.089 256.598 45.2183 257.705 45.2183C258.813 45.2183 259.711 46.089 259.711 47.1631C259.711 48.2373 258.813 49.108 257.705 49.108Z" fill="#CCDFFF"/>
<path d="M305.84 49.108C304.732 49.108 303.835 48.2373 303.835 47.1631C303.835 46.089 304.732 45.2183 305.84 45.2183C306.948 45.2183 307.846 46.089 307.846 47.1631C307.846 48.2373 306.948 49.108 305.84 49.108Z" fill="#CCDFFF"/>
<path d="M353.975 49.108C352.867 49.108 351.969 48.2373 351.969 47.1631C351.969 46.089 352.867 45.2183 353.975 45.2183C355.083 45.2183 355.98 46.089 355.98 47.1631C355.98 48.2373 355.083 49.108 353.975 49.108Z" fill="#CCDFFF"/>
<path d="M378.041 49.108C376.934 49.108 376.036 48.2373 376.036 47.1631C376.036 46.089 376.934 45.2183 378.041 45.2183C379.149 45.2183 380.047 46.089 380.047 47.1631C380.047 48.2373 379.149 49.108 378.041 49.108Z" fill="#CCDFFF"/>
<path d="M257.705 95.7848C256.598 95.7848 255.7 94.914 255.7 93.8399C255.7 92.7658 256.598 91.895 257.705 91.895C258.813 91.895 259.711 92.7658 259.711 93.8399C259.711 94.914 258.813 95.7848 257.705 95.7848Z" fill="#CCDFFF"/>
<path d="M305.84 95.7848C304.732 95.7848 303.835 94.914 303.835 93.8399C303.835 92.7658 304.732 91.895 305.84 91.895C306.948 91.895 307.846 92.7658 307.846 93.8399C307.846 94.914 306.948 95.7848 305.84 95.7848Z" fill="#CCDFFF"/>
<path d="M353.975 95.7848C352.867 95.7848 351.969 94.914 351.969 93.8399C351.969 92.7658 352.867 91.895 353.975 91.895C355.083 91.895 355.98 92.7658 355.98 93.8399C355.98 94.914 355.083 95.7848 353.975 95.7848Z" fill="#CCDFFF"/>
<path d="M378.041 95.7848C376.934 95.7848 376.036 94.914 376.036 93.8399C376.036 92.7658 376.934 91.895 378.041 91.895C379.149 91.895 380.047 92.7658 380.047 93.8399C380.047 94.914 379.149 95.7848 378.041 95.7848Z" fill="#CCDFFF"/>
<path d="M209.573 72.4464C208.465 72.4464 207.567 71.5756 207.567 70.5015C207.567 69.4274 208.465 68.5566 209.573 68.5566C210.68 68.5566 211.578 69.4274 211.578 70.5015C211.578 71.5756 210.68 72.4464 209.573 72.4464Z" fill="#CCDFFF"/>
<path d="M209.573 49.108C208.465 49.108 207.567 48.2373 207.567 47.1631C207.567 46.089 208.465 45.2183 209.573 45.2183C210.68 45.2183 211.578 46.089 211.578 47.1631C211.578 48.2373 210.68 49.108 209.573 49.108Z" fill="#CCDFFF"/>
<path d="M209.573 95.7848C208.465 95.7848 207.567 94.914 207.567 93.8399C207.567 92.7658 208.465 91.895 209.573 91.895C210.68 91.895 211.578 92.7658 211.578 93.8399C211.578 94.914 210.68 95.7848 209.573 95.7848Z" fill="#CCDFFF"/>
<path d="M402.108 282.493C401 282.493 400.102 281.622 400.102 280.548C400.102 279.474 401 278.603 402.108 278.603C403.215 278.603 404.113 279.474 404.113 280.548C404.113 281.622 403.215 282.493 402.108 282.493Z" fill="#CCDFFF"/>
<path d="M450.242 282.493C449.135 282.493 448.237 281.622 448.237 280.548C448.237 279.474 449.135 278.603 450.242 278.603C451.35 278.603 452.248 279.474 452.248 280.548C452.248 281.622 451.35 282.493 450.242 282.493Z" fill="#CCDFFF"/>
<path d="M498.377 282.493C497.27 282.493 496.372 281.622 496.372 280.548C496.372 279.474 497.27 278.603 498.377 278.603C499.485 278.603 500.383 279.474 500.383 280.548C500.383 281.622 499.485 282.493 498.377 282.493Z" fill="#CCDFFF"/>
<path d="M402.108 329.169C401 329.169 400.102 328.299 400.102 327.225C400.102 326.151 401 325.28 402.108 325.28C403.215 325.28 404.113 326.151 404.113 327.225C404.113 328.299 403.215 329.169 402.108 329.169Z" fill="#CCDFFF"/>
<path d="M402.108 399.185C401 399.185 400.102 398.314 400.102 397.24C400.102 396.166 401 395.295 402.108 395.295C403.215 395.295 404.113 396.166 404.113 397.24C404.113 398.314 403.215 399.185 402.108 399.185Z" fill="#CCDFFF"/>
<path d="M450.242 329.169C449.135 329.169 448.237 328.299 448.237 327.225C448.237 326.151 449.135 325.28 450.242 325.28C451.35 325.28 452.248 326.151 452.248 327.225C452.248 328.299 451.35 329.169 450.242 329.169Z" fill="#CCDFFF"/>
<path d="M498.377 329.169C497.27 329.169 496.372 328.299 496.372 327.225C496.372 326.151 497.27 325.28 498.377 325.28C499.485 325.28 500.383 326.151 500.383 327.225C500.383 328.299 499.485 329.169 498.377 329.169Z" fill="#CCDFFF"/>
<path d="M450.242 399.185C449.135 399.185 448.237 398.314 448.237 397.24C448.237 396.166 449.135 395.295 450.242 395.295C451.35 395.295 452.248 396.166 452.248 397.24C452.248 398.314 451.35 399.185 450.242 399.185Z" fill="#CCDFFF"/>
<path d="M498.377 399.185C497.27 399.185 496.372 398.314 496.372 397.24C496.372 396.166 497.27 395.295 498.377 395.295C499.485 395.295 500.383 396.166 500.383 397.24C500.383 398.314 499.485 399.185 498.377 399.185Z" fill="#CCDFFF"/>
<path d="M426.176 282.493C425.068 282.493 424.17 281.622 424.17 280.548C424.17 279.474 425.068 278.603 426.176 278.603C427.284 278.603 428.182 279.474 428.182 280.548C428.182 281.622 427.284 282.493 426.176 282.493Z" fill="#CCDFFF"/>
<path d="M474.309 282.493C473.201 282.493 472.303 281.622 472.303 280.548C472.303 279.474 473.201 278.603 474.309 278.603C475.417 278.603 476.314 279.474 476.314 280.548C476.314 281.622 475.417 282.493 474.309 282.493Z" fill="#CCDFFF"/>
<path d="M522.444 282.493C521.336 282.493 520.438 281.622 520.438 280.548C520.438 279.474 521.336 278.603 522.444 278.603C523.551 278.603 524.449 279.474 524.449 280.548C524.449 281.622 523.551 282.493 522.444 282.493Z" fill="#CCDFFF"/>
<path d="M426.176 329.169C425.068 329.169 424.17 328.299 424.17 327.225C424.17 326.151 425.068 325.28 426.176 325.28C427.284 325.28 428.182 326.151 428.182 327.225C428.182 328.299 427.284 329.169 426.176 329.169Z" fill="#CCDFFF"/>
<path d="M426.176 399.185C425.068 399.185 424.17 398.314 424.17 397.24C424.17 396.166 425.068 395.295 426.176 395.295C427.284 395.295 428.182 396.166 428.182 397.24C428.182 398.314 427.284 399.185 426.176 399.185Z" fill="#CCDFFF"/>
<path d="M474.309 329.169C473.201 329.169 472.303 328.299 472.303 327.225C472.303 326.151 473.201 325.28 474.309 325.28C475.417 325.28 476.314 326.151 476.314 327.225C476.314 328.299 475.417 329.169 474.309 329.169Z" fill="#CCDFFF"/>
<path d="M522.444 329.169C521.336 329.169 520.438 328.299 520.438 327.225C520.438 326.151 521.336 325.28 522.444 325.28C523.551 325.28 524.449 326.151 524.449 327.225C524.449 328.299 523.551 329.169 522.444 329.169Z" fill="#CCDFFF"/>
<path d="M474.309 399.185C473.201 399.185 472.303 398.314 472.303 397.24C472.303 396.166 473.201 395.295 474.309 395.295C475.417 395.295 476.314 396.166 476.314 397.24C476.314 398.314 475.417 399.185 474.309 399.185Z" fill="#CCDFFF"/>
<path d="M522.444 399.185C521.336 399.185 520.438 398.314 520.438 397.24C520.438 396.166 521.336 395.295 522.444 395.295C523.551 395.295 524.449 396.166 524.449 397.24C524.449 398.314 523.551 399.185 522.444 399.185Z" fill="#CCDFFF"/>
<path d="M402.108 305.831C401 305.831 400.102 304.96 400.102 303.886C400.102 302.812 401 301.941 402.108 301.941C403.215 301.941 404.113 302.812 404.113 303.886C404.113 304.96 403.215 305.831 402.108 305.831Z" fill="#CCDFFF"/>
<path d="M402.108 375.846C401 375.846 400.102 374.976 400.102 373.901C400.102 372.827 401 371.957 402.108 371.957C403.215 371.957 404.113 372.827 404.113 373.901C404.113 374.976 403.215 375.846 402.108 375.846Z" fill="#CCDFFF"/>
<path d="M450.242 305.831C449.135 305.831 448.237 304.96 448.237 303.886C448.237 302.812 449.135 301.941 450.242 301.941C451.35 301.941 452.248 302.812 452.248 303.886C452.248 304.96 451.35 305.831 450.242 305.831Z" fill="#CCDFFF"/>
<path d="M498.377 305.831C497.27 305.831 496.372 304.96 496.372 303.886C496.372 302.812 497.27 301.941 498.377 301.941C499.485 301.941 500.383 302.812 500.383 303.886C500.383 304.96 499.485 305.831 498.377 305.831Z" fill="#CCDFFF"/>
<path d="M450.242 375.846C449.135 375.846 448.237 374.976 448.237 373.901C448.237 372.827 449.135 371.957 450.242 371.957C451.35 371.957 452.248 372.827 452.248 373.901C452.248 374.976 451.35 375.846 450.242 375.846Z" fill="#CCDFFF"/>
<path d="M498.377 375.846C497.27 375.846 496.372 374.976 496.372 373.901C496.372 372.827 497.27 371.957 498.377 371.957C499.485 371.957 500.383 372.827 500.383 373.901C500.383 374.976 499.485 375.846 498.377 375.846Z" fill="#CCDFFF"/>
<path d="M402.108 352.508C401 352.508 400.102 351.637 400.102 350.563C400.102 349.489 401 348.618 402.108 348.618C403.215 348.618 404.113 349.489 404.113 350.563C404.113 351.637 403.215 352.508 402.108 352.508Z" fill="#CCDFFF"/>
<path d="M402.108 422.524C401 422.524 400.102 421.653 400.102 420.579C400.102 419.505 401 418.634 402.108 418.634C403.215 418.634 404.113 419.505 404.113 420.579C404.113 421.653 403.215 422.524 402.108 422.524Z" fill="#CCDFFF"/>
<path d="M450.242 352.508C449.135 352.508 448.237 351.637 448.237 350.563C448.237 349.489 449.135 348.618 450.242 348.618C451.35 348.618 452.248 349.489 452.248 350.563C452.248 351.637 451.35 352.508 450.242 352.508Z" fill="#CCDFFF"/>
<path d="M498.377 352.508C497.27 352.508 496.372 351.637 496.372 350.563C496.372 349.489 497.27 348.618 498.377 348.618C499.485 348.618 500.383 349.489 500.383 350.563C500.383 351.637 499.485 352.508 498.377 352.508Z" fill="#CCDFFF"/>
<path d="M450.242 422.524C449.135 422.524 448.237 421.653 448.237 420.579C448.237 419.505 449.135 418.634 450.242 418.634C451.35 418.634 452.248 419.505 452.248 420.579C452.248 421.653 451.35 422.524 450.242 422.524Z" fill="#CCDFFF"/>
<path d="M498.377 422.524C497.27 422.524 496.372 421.653 496.372 420.579C496.372 419.505 497.27 418.634 498.377 418.634C499.485 418.634 500.383 419.505 500.383 420.579C500.383 421.653 499.485 422.524 498.377 422.524Z" fill="#CCDFFF"/>
<path d="M426.176 305.831C425.068 305.831 424.17 304.96 424.17 303.886C424.17 302.812 425.068 301.941 426.176 301.941C427.284 301.941 428.182 302.812 428.182 303.886C428.182 304.96 427.284 305.831 426.176 305.831Z" fill="#CCDFFF"/>
<path d="M426.176 375.846C425.068 375.846 424.17 374.976 424.17 373.901C424.17 372.827 425.068 371.957 426.176 371.957C427.284 371.957 428.182 372.827 428.182 373.901C428.182 374.976 427.284 375.846 426.176 375.846Z" fill="#CCDFFF"/>
<path d="M474.309 305.831C473.201 305.831 472.303 304.96 472.303 303.886C472.303 302.812 473.201 301.941 474.309 301.941C475.417 301.941 476.314 302.812 476.314 303.886C476.314 304.96 475.417 305.831 474.309 305.831Z" fill="#CCDFFF"/>
<path d="M522.444 305.831C521.336 305.831 520.438 304.96 520.438 303.886C520.438 302.812 521.336 301.941 522.444 301.941C523.551 301.941 524.449 302.812 524.449 303.886C524.449 304.96 523.551 305.831 522.444 305.831Z" fill="#CCDFFF"/>
<path d="M474.309 375.846C473.201 375.846 472.303 374.976 472.303 373.901C472.303 372.827 473.201 371.957 474.309 371.957C475.417 371.957 476.314 372.827 476.314 373.901C476.314 374.976 475.417 375.846 474.309 375.846Z" fill="#CCDFFF"/>
<path d="M522.444 375.846C521.336 375.846 520.438 374.976 520.438 373.901C520.438 372.827 521.336 371.957 522.444 371.957C523.551 371.957 524.449 372.827 524.449 373.901C524.449 374.976 523.551 375.846 522.444 375.846Z" fill="#CCDFFF"/>
<path d="M426.176 352.508C425.068 352.508 424.17 351.637 424.17 350.563C424.17 349.489 425.068 348.618 426.176 348.618C427.284 348.618 428.182 349.489 428.182 350.563C428.182 351.637 427.284 352.508 426.176 352.508Z" fill="#CCDFFF"/>
<path d="M426.176 422.524C425.068 422.524 424.17 421.653 424.17 420.579C424.17 419.505 425.068 418.634 426.176 418.634C427.284 418.634 428.182 419.505 428.182 420.579C428.182 421.653 427.284 422.524 426.176 422.524Z" fill="#CCDFFF"/>
<path d="M474.309 352.508C473.201 352.508 472.303 351.637 472.303 350.563C472.303 349.489 473.201 348.618 474.309 348.618C475.417 348.618 476.314 349.489 476.314 350.563C476.314 351.637 475.417 352.508 474.309 352.508Z" fill="#CCDFFF"/>
<path d="M522.444 352.508C521.336 352.508 520.438 351.637 520.438 350.563C520.438 349.489 521.336 348.618 522.444 348.618C523.551 348.618 524.449 349.489 524.449 350.563C524.449 351.637 523.551 352.508 522.444 352.508Z" fill="#CCDFFF"/>
<path d="M474.309 422.524C473.201 422.524 472.303 421.653 472.303 420.579C472.303 419.505 473.201 418.634 474.309 418.634C475.417 418.634 476.314 419.505 476.314 420.579C476.314 421.653 475.417 422.524 474.309 422.524Z" fill="#CCDFFF"/>
<path d="M522.444 422.524C521.336 422.524 520.438 421.653 520.438 420.579C520.438 419.505 521.336 418.634 522.444 418.634C523.551 418.634 524.449 419.505 524.449 420.579C524.449 421.653 523.551 422.524 522.444 422.524Z" fill="#CCDFFF"/>
<path d="M402.108 72.4464C401 72.4464 400.102 71.5756 400.102 70.5015C400.102 69.4274 401 68.5566 402.108 68.5566C403.215 68.5566 404.113 69.4274 404.113 70.5015C404.113 71.5756 403.215 72.4464 402.108 72.4464Z" fill="#CCDFFF"/>
<path d="M450.242 72.4464C449.135 72.4464 448.237 71.5756 448.237 70.5015C448.237 69.4274 449.135 68.5566 450.242 68.5566C451.35 68.5566 452.248 69.4274 452.248 70.5015C452.248 71.5756 451.35 72.4464 450.242 72.4464Z" fill="#CCDFFF"/>
<path d="M498.377 72.4464C497.27 72.4464 496.372 71.5756 496.372 70.5015C496.372 69.4274 497.27 68.5566 498.377 68.5566C499.485 68.5566 500.383 69.4274 500.383 70.5015C500.383 71.5756 499.485 72.4464 498.377 72.4464Z" fill="#CCDFFF"/>
<path d="M426.176 72.4464C425.068 72.4464 424.17 71.5756 424.17 70.5015C424.17 69.4274 425.068 68.5566 426.176 68.5566C427.284 68.5566 428.182 69.4274 428.182 70.5015C428.182 71.5756 427.284 72.4464 426.176 72.4464Z" fill="#CCDFFF"/>
<path d="M474.309 72.4464C473.201 72.4464 472.303 71.5756 472.303 70.5015C472.303 69.4274 473.201 68.5566 474.309 68.5566C475.417 68.5566 476.314 69.4274 476.314 70.5015C476.314 71.5756 475.417 72.4464 474.309 72.4464Z" fill="#CCDFFF"/>
<path d="M522.444 72.4464C521.336 72.4464 520.438 71.5756 520.438 70.5015C520.438 69.4274 521.336 68.5566 522.444 68.5566C523.551 68.5566 524.449 69.4274 524.449 70.5015C524.449 71.5756 523.551 72.4464 522.444 72.4464Z" fill="#CCDFFF"/>
<path d="M402.108 49.108C401 49.108 400.102 48.2373 400.102 47.1631C400.102 46.089 401 45.2183 402.108 45.2183C403.215 45.2183 404.113 46.089 404.113 47.1631C404.113 48.2373 403.215 49.108 402.108 49.108Z" fill="#CCDFFF"/>
<path d="M450.242 49.108C449.135 49.108 448.237 48.2373 448.237 47.1631C448.237 46.089 449.135 45.2183 450.242 45.2183C451.35 45.2183 452.248 46.089 452.248 47.1631C452.248 48.2373 451.35 49.108 450.242 49.108Z" fill="#CCDFFF"/>
<path d="M498.377 49.108C497.27 49.108 496.372 48.2373 496.372 47.1631C496.372 46.089 497.27 45.2183 498.377 45.2183C499.485 45.2183 500.383 46.089 500.383 47.1631C500.383 48.2373 499.485 49.108 498.377 49.108Z" fill="#CCDFFF"/>
<path d="M402.108 95.7848C401 95.7848 400.102 94.914 400.102 93.8399C400.102 92.7658 401 91.895 402.108 91.895C403.215 91.895 404.113 92.7658 404.113 93.8399C404.113 94.914 403.215 95.7848 402.108 95.7848Z" fill="#CCDFFF"/>
<path d="M450.242 95.7848C449.135 95.7848 448.237 94.914 448.237 93.8399C448.237 92.7658 449.135 91.895 450.242 91.895C451.35 91.895 452.248 92.7658 452.248 93.8399C452.248 94.914 451.35 95.7848 450.242 95.7848Z" fill="#CCDFFF"/>
<path d="M498.377 95.7848C497.27 95.7848 496.372 94.914 496.372 93.8399C496.372 92.7658 497.27 91.895 498.377 91.895C499.485 91.895 500.383 92.7658 500.383 93.8399C500.383 94.914 499.485 95.7848 498.377 95.7848Z" fill="#CCDFFF"/>
<path d="M426.176 49.108C425.068 49.108 424.17 48.2373 424.17 47.1631C424.17 46.089 425.068 45.2183 426.176 45.2183C427.284 45.2183 428.182 46.089 428.182 47.1631C428.182 48.2373 427.284 49.108 426.176 49.108Z" fill="#CCDFFF"/>
<path d="M474.309 49.108C473.201 49.108 472.303 48.2373 472.303 47.1631C472.303 46.089 473.201 45.2183 474.309 45.2183C475.417 45.2183 476.314 46.089 476.314 47.1631C476.314 48.2373 475.417 49.108 474.309 49.108Z" fill="#CCDFFF"/>
<path d="M522.444 49.108C521.336 49.108 520.438 48.2373 520.438 47.1631C520.438 46.089 521.336 45.2183 522.444 45.2183C523.551 45.2183 524.449 46.089 524.449 47.1631C524.449 48.2373 523.551 49.108 522.444 49.108Z" fill="#CCDFFF"/>
<path d="M426.176 95.7848C425.068 95.7848 424.17 94.914 424.17 93.8399C424.17 92.7658 425.068 91.895 426.176 91.895C427.284 91.895 428.182 92.7658 428.182 93.8399C428.182 94.914 427.284 95.7848 426.176 95.7848Z" fill="#CCDFFF"/>
<path d="M474.309 95.7848C473.201 95.7848 472.303 94.914 472.303 93.8399C472.303 92.7658 473.201 91.895 474.309 91.895C475.417 91.895 476.314 92.7658 476.314 93.8399C476.314 94.914 475.417 95.7848 474.309 95.7848Z" fill="#CCDFFF"/>
<path d="M522.444 95.7848C521.336 95.7848 520.438 94.914 520.438 93.8399C520.438 92.7658 521.336 91.895 522.444 91.895C523.551 91.895 524.449 92.7658 524.449 93.8399C524.449 94.914 523.551 95.7848 522.444 95.7848Z" fill="#CCDFFF"/>
<path d="M233.639 445.862C232.531 445.862 231.633 444.991 231.633 443.917C231.633 442.843 232.531 441.972 233.639 441.972C234.747 441.972 235.645 442.843 235.645 443.917C235.645 444.991 234.747 445.862 233.639 445.862Z" fill="#CCDFFF"/>
<path d="M281.774 445.862C280.666 445.862 279.768 444.991 279.768 443.917C279.768 442.843 280.666 441.972 281.774 441.972C282.881 441.972 283.779 442.843 283.779 443.917C283.779 444.991 282.881 445.862 281.774 445.862Z" fill="#CCDFFF"/>
<path d="M329.907 445.862C328.799 445.862 327.901 444.991 327.901 443.917C327.901 442.843 328.799 441.972 329.907 441.972C331.014 441.972 331.912 442.843 331.912 443.917C331.912 444.991 331.014 445.862 329.907 445.862Z" fill="#CCDFFF"/>
<path d="M233.639 492.539C232.531 492.539 231.633 491.668 231.633 490.594C231.633 489.52 232.531 488.649 233.639 488.649C234.747 488.649 235.645 489.52 235.645 490.594C235.645 491.668 234.747 492.539 233.639 492.539Z" fill="#CCDFFF"/>
<path d="M281.774 492.539C280.666 492.539 279.768 491.668 279.768 490.594C279.768 489.52 280.666 488.649 281.774 488.649C282.881 488.649 283.779 489.52 283.779 490.594C283.779 491.668 282.881 492.539 281.774 492.539Z" fill="#CCDFFF"/>
<path d="M329.907 492.539C328.799 492.539 327.901 491.668 327.901 490.594C327.901 489.52 328.799 488.649 329.907 488.649C331.014 488.649 331.912 489.52 331.912 490.594C331.912 491.668 331.014 492.539 329.907 492.539Z" fill="#CCDFFF"/>
<path d="M257.705 445.862C256.598 445.862 255.7 444.991 255.7 443.917C255.7 442.843 256.598 441.972 257.705 441.972C258.813 441.972 259.711 442.843 259.711 443.917C259.711 444.991 258.813 445.862 257.705 445.862Z" fill="#CCDFFF"/>
<path d="M305.84 445.862C304.732 445.862 303.835 444.991 303.835 443.917C303.835 442.843 304.732 441.972 305.84 441.972C306.948 441.972 307.846 442.843 307.846 443.917C307.846 444.991 306.948 445.862 305.84 445.862Z" fill="#CCDFFF"/>
<path d="M353.975 445.862C352.867 445.862 351.969 444.991 351.969 443.917C351.969 442.843 352.867 441.972 353.975 441.972C355.083 441.972 355.98 442.843 355.98 443.917C355.98 444.991 355.083 445.862 353.975 445.862Z" fill="#CCDFFF"/>
<path d="M378.041 445.862C376.934 445.862 376.036 444.991 376.036 443.917C376.036 442.843 376.934 441.972 378.041 441.972C379.149 441.972 380.047 442.843 380.047 443.917C380.047 444.991 379.149 445.862 378.041 445.862Z" fill="#CCDFFF"/>
<path d="M257.705 492.539C256.598 492.539 255.7 491.668 255.7 490.594C255.7 489.52 256.598 488.649 257.705 488.649C258.813 488.649 259.711 489.52 259.711 490.594C259.711 491.668 258.813 492.539 257.705 492.539Z" fill="#CCDFFF"/>
<path d="M305.84 492.539C304.732 492.539 303.835 491.668 303.835 490.594C303.835 489.52 304.732 488.649 305.84 488.649C306.948 488.649 307.846 489.52 307.846 490.594C307.846 491.668 306.948 492.539 305.84 492.539Z" fill="#CCDFFF"/>
<path d="M353.975 492.539C352.867 492.539 351.969 491.668 351.969 490.594C351.969 489.52 352.867 488.649 353.975 488.649C355.083 488.649 355.98 489.52 355.98 490.594C355.98 491.668 355.083 492.539 353.975 492.539Z" fill="#CCDFFF"/>
<path d="M378.041 492.539C376.934 492.539 376.036 491.668 376.036 490.594C376.036 489.52 376.934 488.649 378.041 488.649C379.149 488.649 380.047 489.52 380.047 490.594C380.047 491.668 379.149 492.539 378.041 492.539Z" fill="#CCDFFF"/>
<path d="M233.639 469.2C232.531 469.2 231.633 468.33 231.633 467.255C231.633 466.181 232.531 465.311 233.639 465.311C234.747 465.311 235.645 466.181 235.645 467.255C235.645 468.33 234.747 469.2 233.639 469.2Z" fill="#CCDFFF"/>
<path d="M281.774 469.2C280.666 469.2 279.768 468.33 279.768 467.255C279.768 466.181 280.666 465.311 281.774 465.311C282.881 465.311 283.779 466.181 283.779 467.255C283.779 468.33 282.881 469.2 281.774 469.2Z" fill="#CCDFFF"/>
<path d="M329.907 469.2C328.799 469.2 327.901 468.33 327.901 467.255C327.901 466.181 328.799 465.311 329.907 465.311C331.014 465.311 331.912 466.181 331.912 467.255C331.912 468.33 331.014 469.2 329.907 469.2Z" fill="#CCDFFF"/>
<path d="M233.639 515.878C232.531 515.878 231.633 515.007 231.633 513.933C231.633 512.859 232.531 511.988 233.639 511.988C234.747 511.988 235.645 512.859 235.645 513.933C235.645 515.007 234.747 515.878 233.639 515.878Z" fill="#CCDFFF"/>
<path d="M281.774 515.878C280.666 515.878 279.768 515.007 279.768 513.933C279.768 512.859 280.666 511.988 281.774 511.988C282.881 511.988 283.779 512.859 283.779 513.933C283.779 515.007 282.881 515.878 281.774 515.878Z" fill="#CCDFFF"/>
<path d="M329.907 515.878C328.799 515.878 327.901 515.007 327.901 513.933C327.901 512.859 328.799 511.988 329.907 511.988C331.014 511.988 331.912 512.859 331.912 513.933C331.912 515.007 331.014 515.878 329.907 515.878Z" fill="#CCDFFF"/>
<path d="M257.705 469.2C256.598 469.2 255.7 468.33 255.7 467.255C255.7 466.181 256.598 465.311 257.705 465.311C258.813 465.311 259.711 466.181 259.711 467.255C259.711 468.33 258.813 469.2 257.705 469.2Z" fill="#CCDFFF"/>
<path d="M305.84 469.2C304.732 469.2 303.835 468.33 303.835 467.255C303.835 466.181 304.732 465.311 305.84 465.311C306.948 465.311 307.846 466.181 307.846 467.255C307.846 468.33 306.948 469.2 305.84 469.2Z" fill="#CCDFFF"/>
<path d="M353.975 469.2C352.867 469.2 351.969 468.33 351.969 467.255C351.969 466.181 352.867 465.311 353.975 465.311C355.083 465.311 355.98 466.181 355.98 467.255C355.98 468.33 355.083 469.2 353.975 469.2Z" fill="#CCDFFF"/>
<path d="M378.041 469.2C376.934 469.2 376.036 468.33 376.036 467.255C376.036 466.181 376.934 465.311 378.041 465.311C379.149 465.311 380.047 466.181 380.047 467.255C380.047 468.33 379.149 469.2 378.041 469.2Z" fill="#CCDFFF"/>
<path d="M257.705 515.878C256.598 515.878 255.7 515.007 255.7 513.933C255.7 512.859 256.598 511.988 257.705 511.988C258.813 511.988 259.711 512.859 259.711 513.933C259.711 515.007 258.813 515.878 257.705 515.878Z" fill="#CCDFFF"/>
<path d="M305.84 515.878C304.732 515.878 303.835 515.007 303.835 513.933C303.835 512.859 304.732 511.988 305.84 511.988C306.948 511.988 307.846 512.859 307.846 513.933C307.846 515.007 306.948 515.878 305.84 515.878Z" fill="#CCDFFF"/>
<path d="M353.975 515.878C352.867 515.878 351.969 515.007 351.969 513.933C351.969 512.859 352.867 511.988 353.975 511.988C355.083 511.988 355.98 512.859 355.98 513.933C355.98 515.007 355.083 515.878 353.975 515.878Z" fill="#CCDFFF"/>
<path d="M378.041 515.878C376.934 515.878 376.036 515.007 376.036 513.933C376.036 512.859 376.934 511.988 378.041 511.988C379.149 511.988 380.047 512.859 380.047 513.933C380.047 515.007 379.149 515.878 378.041 515.878Z" fill="#CCDFFF"/>
<path d="M209.573 445.862C208.465 445.862 207.567 444.991 207.567 443.917C207.567 442.843 208.465 441.972 209.573 441.972C210.68 441.972 211.578 442.843 211.578 443.917C211.578 444.991 210.68 445.862 209.573 445.862Z" fill="#CCDFFF"/>
<path d="M209.573 492.539C208.465 492.539 207.567 491.668 207.567 490.594C207.567 489.52 208.465 488.649 209.573 488.649C210.68 488.649 211.578 489.52 211.578 490.594C211.578 491.668 210.68 492.539 209.573 492.539Z" fill="#CCDFFF"/>
<path d="M209.573 469.2C208.465 469.2 207.567 468.33 207.567 467.255C207.567 466.181 208.465 465.311 209.573 465.311C210.68 465.311 211.578 466.181 211.578 467.255C211.578 468.33 210.68 469.2 209.573 469.2Z" fill="#CCDFFF"/>
<path d="M209.573 515.878C208.465 515.878 207.567 515.007 207.567 513.933C207.567 512.859 208.465 511.988 209.573 511.988C210.68 511.988 211.578 512.859 211.578 513.933C211.578 515.007 210.68 515.878 209.573 515.878Z" fill="#CCDFFF"/>
<path d="M402.108 445.862C401 445.862 400.102 444.991 400.102 443.917C400.102 442.843 401 441.972 402.108 441.972C403.215 441.972 404.113 442.843 404.113 443.917C404.113 444.991 403.215 445.862 402.108 445.862Z" fill="#CCDFFF"/>
<path d="M450.242 445.862C449.135 445.862 448.237 444.991 448.237 443.917C448.237 442.843 449.135 441.972 450.242 441.972C451.35 441.972 452.248 442.843 452.248 443.917C452.248 444.991 451.35 445.862 450.242 445.862Z" fill="#CCDFFF"/>
<path d="M498.377 445.862C497.27 445.862 496.372 444.991 496.372 443.917C496.372 442.843 497.27 441.972 498.377 441.972C499.485 441.972 500.383 442.843 500.383 443.917C500.383 444.991 499.485 445.862 498.377 445.862Z" fill="#CCDFFF"/>
<path d="M402.108 492.539C401 492.539 400.102 491.668 400.102 490.594C400.102 489.52 401 488.649 402.108 488.649C403.215 488.649 404.113 489.52 404.113 490.594C404.113 491.668 403.215 492.539 402.108 492.539Z" fill="#CCDFFF"/>
<path d="M450.242 492.539C449.135 492.539 448.237 491.668 448.237 490.594C448.237 489.52 449.135 488.649 450.242 488.649C451.35 488.649 452.248 489.52 452.248 490.594C452.248 491.668 451.35 492.539 450.242 492.539Z" fill="#CCDFFF"/>
<path d="M498.377 492.539C497.27 492.539 496.372 491.668 496.372 490.594C496.372 489.52 497.27 488.649 498.377 488.649C499.485 488.649 500.383 489.52 500.383 490.594C500.383 491.668 499.485 492.539 498.377 492.539Z" fill="#CCDFFF"/>
<path d="M426.176 445.862C425.068 445.862 424.17 444.991 424.17 443.917C424.17 442.843 425.068 441.972 426.176 441.972C427.284 441.972 428.182 442.843 428.182 443.917C428.182 444.991 427.284 445.862 426.176 445.862Z" fill="#CCDFFF"/>
<path d="M474.309 445.862C473.201 445.862 472.303 444.991 472.303 443.917C472.303 442.843 473.201 441.972 474.309 441.972C475.417 441.972 476.314 442.843 476.314 443.917C476.314 444.991 475.417 445.862 474.309 445.862Z" fill="#CCDFFF"/>
<path d="M522.444 445.862C521.336 445.862 520.438 444.991 520.438 443.917C520.438 442.843 521.336 441.972 522.444 441.972C523.551 441.972 524.449 442.843 524.449 443.917C524.449 444.991 523.551 445.862 522.444 445.862Z" fill="#CCDFFF"/>
<path d="M426.176 492.539C425.068 492.539 424.17 491.668 424.17 490.594C424.17 489.52 425.068 488.649 426.176 488.649C427.284 488.649 428.182 489.52 428.182 490.594C428.182 491.668 427.284 492.539 426.176 492.539Z" fill="#CCDFFF"/>
<path d="M474.309 492.539C473.201 492.539 472.303 491.668 472.303 490.594C472.303 489.52 473.201 488.649 474.309 488.649C475.417 488.649 476.314 489.52 476.314 490.594C476.314 491.668 475.417 492.539 474.309 492.539Z" fill="#CCDFFF"/>
<path d="M522.444 492.539C521.336 492.539 520.438 491.668 520.438 490.594C520.438 489.52 521.336 488.649 522.444 488.649C523.551 488.649 524.449 489.52 524.449 490.594C524.449 491.668 523.551 492.539 522.444 492.539Z" fill="#CCDFFF"/>
<path d="M402.108 469.2C401 469.2 400.102 468.33 400.102 467.255C400.102 466.181 401 465.311 402.108 465.311C403.215 465.311 404.113 466.181 404.113 467.255C404.113 468.33 403.215 469.2 402.108 469.2Z" fill="#CCDFFF"/>
<path d="M450.242 469.2C449.135 469.2 448.237 468.33 448.237 467.255C448.237 466.181 449.135 465.311 450.242 465.311C451.35 465.311 452.248 466.181 452.248 467.255C452.248 468.33 451.35 469.2 450.242 469.2Z" fill="#CCDFFF"/>
<path d="M498.377 469.2C497.27 469.2 496.372 468.33 496.372 467.255C496.372 466.181 497.27 465.311 498.377 465.311C499.485 465.311 500.383 466.181 500.383 467.255C500.383 468.33 499.485 469.2 498.377 469.2Z" fill="#CCDFFF"/>
<path d="M402.108 515.878C401 515.878 400.102 515.007 400.102 513.933C400.102 512.859 401 511.988 402.108 511.988C403.215 511.988 404.113 512.859 404.113 513.933C404.113 515.007 403.215 515.878 402.108 515.878Z" fill="#CCDFFF"/>
<path d="M450.242 515.878C449.135 515.878 448.237 515.007 448.237 513.933C448.237 512.859 449.135 511.988 450.242 511.988C451.35 511.988 452.248 512.859 452.248 513.933C452.248 515.007 451.35 515.878 450.242 515.878Z" fill="#CCDFFF"/>
<path d="M498.377 515.878C497.27 515.878 496.372 515.007 496.372 513.933C496.372 512.859 497.27 511.988 498.377 511.988C499.485 511.988 500.383 512.859 500.383 513.933C500.383 515.007 499.485 515.878 498.377 515.878Z" fill="#CCDFFF"/>
<path d="M426.176 469.2C425.068 469.2 424.17 468.33 424.17 467.255C424.17 466.181 425.068 465.311 426.176 465.311C427.284 465.311 428.182 466.181 428.182 467.255C428.182 468.33 427.284 469.2 426.176 469.2Z" fill="#CCDFFF"/>
<path d="M474.309 469.2C473.201 469.2 472.303 468.33 472.303 467.255C472.303 466.181 473.201 465.311 474.309 465.311C475.417 465.311 476.314 466.181 476.314 467.255C476.314 468.33 475.417 469.2 474.309 469.2Z" fill="#CCDFFF"/>
<path d="M522.444 469.2C521.336 469.2 520.438 468.33 520.438 467.255C520.438 466.181 521.336 465.311 522.444 465.311C523.551 465.311 524.449 466.181 524.449 467.255C524.449 468.33 523.551 469.2 522.444 469.2Z" fill="#CCDFFF"/>
<path d="M426.176 515.878C425.068 515.878 424.17 515.007 424.17 513.933C424.17 512.859 425.068 511.988 426.176 511.988C427.284 511.988 428.182 512.859 428.182 513.933C428.182 515.007 427.284 515.878 426.176 515.878Z" fill="#CCDFFF"/>
<path d="M474.309 515.878C473.201 515.878 472.303 515.007 472.303 513.933C472.303 512.859 473.201 511.988 474.309 511.988C475.417 511.988 476.314 512.859 476.314 513.933C476.314 515.007 475.417 515.878 474.309 515.878Z" fill="#CCDFFF"/>
<path d="M522.444 515.878C521.336 515.878 520.438 515.007 520.438 513.933C520.438 512.859 521.336 511.988 522.444 511.988C523.551 511.988 524.449 512.859 524.449 513.933C524.449 515.007 523.551 515.878 522.444 515.878Z" fill="#CCDFFF"/>
<path d="M137.26 119.124C136.152 119.124 135.254 118.253 135.254 117.179C135.254 116.105 136.152 115.234 137.26 115.234C138.368 115.234 139.266 116.105 139.266 117.179C139.266 118.253 138.368 119.124 137.26 119.124Z" fill="#CCDFFF"/>
<path d="M185.395 119.124C184.287 119.124 183.389 118.253 183.389 117.179C183.389 116.105 184.287 115.234 185.395 115.234C186.502 115.234 187.4 116.105 187.4 117.179C187.4 118.253 186.502 119.124 185.395 119.124Z" fill="#CCDFFF"/>
<path d="M137.26 165.8C136.152 165.8 135.254 164.93 135.254 163.856C135.254 162.781 136.152 161.911 137.26 161.911C138.368 161.911 139.266 162.781 139.266 163.856C139.266 164.93 138.368 165.8 137.26 165.8Z" fill="#CCDFFF"/>
<path d="M185.395 165.8C184.287 165.8 183.389 164.93 183.389 163.856C183.389 162.781 184.287 161.911 185.395 161.911C186.502 161.911 187.4 162.781 187.4 163.856C187.4 164.93 186.502 165.8 185.395 165.8Z" fill="#CCDFFF"/>
<path d="M137.26 235.816C136.152 235.816 135.254 234.945 135.254 233.871C135.254 232.797 136.152 231.926 137.26 231.926C138.368 231.926 139.266 232.797 139.266 233.871C139.266 234.945 138.368 235.816 137.26 235.816Z" fill="#CCDFFF"/>
<path d="M185.395 235.816C184.287 235.816 183.389 234.945 183.389 233.871C183.389 232.797 184.287 231.926 185.395 231.926C186.502 231.926 187.4 232.797 187.4 233.871C187.4 234.945 186.502 235.816 185.395 235.816Z" fill="#CCDFFF"/>
<path d="M113.194 119.124C112.086 119.124 111.188 118.253 111.188 117.179C111.188 116.105 112.086 115.234 113.194 115.234C114.301 115.234 115.199 116.105 115.199 117.179C115.199 118.253 114.301 119.124 113.194 119.124Z" fill="#CCDFFF"/>
<path d="M161.328 119.124C160.221 119.124 159.323 118.253 159.323 117.179C159.323 116.105 160.221 115.234 161.328 115.234C162.436 115.234 163.334 116.105 163.334 117.179C163.334 118.253 162.436 119.124 161.328 119.124Z" fill="#CCDFFF"/>
<path d="M113.194 165.8C112.086 165.8 111.188 164.93 111.188 163.856C111.188 162.781 112.086 161.911 113.194 161.911C114.301 161.911 115.199 162.781 115.199 163.856C115.199 164.93 114.301 165.8 113.194 165.8Z" fill="#CCDFFF"/>
<path d="M113.194 235.816C112.086 235.816 111.188 234.945 111.188 233.871C111.188 232.797 112.086 231.926 113.194 231.926C114.301 231.926 115.199 232.797 115.199 233.871C115.199 234.945 114.301 235.816 113.194 235.816Z" fill="#CCDFFF"/>
<path d="M161.328 165.8C160.221 165.8 159.323 164.93 159.323 163.856C159.323 162.781 160.221 161.911 161.328 161.911C162.436 161.911 163.334 162.781 163.334 163.856C163.334 164.93 162.436 165.8 161.328 165.8Z" fill="#CCDFFF"/>
<path d="M161.328 235.816C160.221 235.816 159.323 234.945 159.323 233.871C159.323 232.797 160.221 231.926 161.328 231.926C162.436 231.926 163.334 232.797 163.334 233.871C163.334 234.945 162.436 235.816 161.328 235.816Z" fill="#CCDFFF"/>
<path d="M137.26 142.462C136.152 142.462 135.254 141.591 135.254 140.517C135.254 139.443 136.152 138.572 137.26 138.572C138.368 138.572 139.266 139.443 139.266 140.517C139.266 141.591 138.368 142.462 137.26 142.462Z" fill="#CCDFFF"/>
<path d="M185.395 142.462C184.287 142.462 183.389 141.591 183.389 140.517C183.389 139.443 184.287 138.572 185.395 138.572C186.502 138.572 187.4 139.443 187.4 140.517C187.4 141.591 186.502 142.462 185.395 142.462Z" fill="#CCDFFF"/>
<path d="M137.26 212.477C136.152 212.477 135.254 211.606 135.254 210.532C135.254 209.458 136.152 208.587 137.26 208.587C138.368 208.587 139.266 209.458 139.266 210.532C139.266 211.606 138.368 212.477 137.26 212.477Z" fill="#CCDFFF"/>
<path d="M185.395 212.477C184.287 212.477 183.389 211.606 183.389 210.532C183.389 209.458 184.287 208.587 185.395 208.587C186.502 208.587 187.4 209.458 187.4 210.532C187.4 211.606 186.502 212.477 185.395 212.477Z" fill="#CCDFFF"/>
<path d="M137.26 189.139C136.152 189.139 135.254 188.268 135.254 187.194C135.254 186.12 136.152 185.249 137.26 185.249C138.368 185.249 139.266 186.12 139.266 187.194C139.266 188.268 138.368 189.139 137.26 189.139Z" fill="#CCDFFF"/>
<path d="M185.395 189.139C184.287 189.139 183.389 188.268 183.389 187.194C183.389 186.12 184.287 185.249 185.395 185.249C186.502 185.249 187.4 186.12 187.4 187.194C187.4 188.268 186.502 189.139 185.395 189.139Z" fill="#CCDFFF"/>
<path d="M137.26 259.154C136.152 259.154 135.254 258.284 135.254 257.21C135.254 256.135 136.152 255.265 137.26 255.265C138.368 255.265 139.266 256.135 139.266 257.21C139.266 258.284 138.368 259.154 137.26 259.154Z" fill="#CCDFFF"/>
<path d="M185.395 259.154C184.287 259.154 183.389 258.284 183.389 257.21C183.389 256.135 184.287 255.265 185.395 255.265C186.502 255.265 187.4 256.135 187.4 257.21C187.4 258.284 186.502 259.154 185.395 259.154Z" fill="#CCDFFF"/>
<path d="M113.194 142.462C112.086 142.462 111.188 141.591 111.188 140.517C111.188 139.443 112.086 138.572 113.194 138.572C114.301 138.572 115.199 139.443 115.199 140.517C115.199 141.591 114.301 142.462 113.194 142.462Z" fill="#CCDFFF"/>
<path d="M113.194 212.477C112.086 212.477 111.188 211.606 111.188 210.532C111.188 209.458 112.086 208.587 113.194 208.587C114.301 208.587 115.199 209.458 115.199 210.532C115.199 211.606 114.301 212.477 113.194 212.477Z" fill="#CCDFFF"/>
<path d="M161.328 142.462C160.221 142.462 159.323 141.591 159.323 140.517C159.323 139.443 160.221 138.572 161.328 138.572C162.436 138.572 163.334 139.443 163.334 140.517C163.334 141.591 162.436 142.462 161.328 142.462Z" fill="#CCDFFF"/>
<path d="M161.328 212.477C160.221 212.477 159.323 211.606 159.323 210.532C159.323 209.458 160.221 208.587 161.328 208.587C162.436 208.587 163.334 209.458 163.334 210.532C163.334 211.606 162.436 212.477 161.328 212.477Z" fill="#CCDFFF"/>
<path d="M113.194 189.139C112.086 189.139 111.188 188.268 111.188 187.194C111.188 186.12 112.086 185.249 113.194 185.249C114.301 185.249 115.199 186.12 115.199 187.194C115.199 188.268 114.301 189.139 113.194 189.139Z" fill="#CCDFFF"/>
<path d="M113.194 259.154C112.086 259.154 111.188 258.284 111.188 257.21C111.188 256.135 112.086 255.265 113.194 255.265C114.301 255.265 115.199 256.135 115.199 257.21C115.199 258.284 114.301 259.154 113.194 259.154Z" fill="#CCDFFF"/>
<path d="M161.328 189.139C160.221 189.139 159.323 188.268 159.323 187.194C159.323 186.12 160.221 185.249 161.328 185.249C162.436 185.249 163.334 186.12 163.334 187.194C163.334 188.268 162.436 189.139 161.328 189.139Z" fill="#CCDFFF"/>
<path d="M161.328 259.154C160.221 259.154 159.323 258.284 159.323 257.21C159.323 256.135 160.221 255.265 161.328 255.265C162.436 255.265 163.334 256.135 163.334 257.21C163.334 258.284 162.436 259.154 161.328 259.154Z" fill="#CCDFFF"/>
<path d="M137.26 282.493C136.152 282.493 135.254 281.622 135.254 280.548C135.254 279.474 136.152 278.603 137.26 278.603C138.368 278.603 139.266 279.474 139.266 280.548C139.266 281.622 138.368 282.493 137.26 282.493Z" fill="#CCDFFF"/>
<path d="M185.395 282.493C184.287 282.493 183.389 281.622 183.389 280.548C183.389 279.474 184.287 278.603 185.395 278.603C186.502 278.603 187.4 279.474 187.4 280.548C187.4 281.622 186.502 282.493 185.395 282.493Z" fill="#CCDFFF"/>
<path d="M137.26 329.169C136.152 329.169 135.254 328.299 135.254 327.225C135.254 326.151 136.152 325.28 137.26 325.28C138.368 325.28 139.266 326.151 139.266 327.225C139.266 328.299 138.368 329.169 137.26 329.169Z" fill="#CCDFFF"/>
<path d="M185.395 329.169C184.287 329.169 183.389 328.299 183.389 327.225C183.389 326.151 184.287 325.28 185.395 325.28C186.502 325.28 187.4 326.151 187.4 327.225C187.4 328.299 186.502 329.169 185.395 329.169Z" fill="#CCDFFF"/>
<path d="M137.26 399.185C136.152 399.185 135.254 398.314 135.254 397.24C135.254 396.166 136.152 395.295 137.26 395.295C138.368 395.295 139.266 396.166 139.266 397.24C139.266 398.314 138.368 399.185 137.26 399.185Z" fill="#CCDFFF"/>
<path d="M185.395 399.185C184.287 399.185 183.389 398.314 183.389 397.24C183.389 396.166 184.287 395.295 185.395 395.295C186.502 395.295 187.4 396.166 187.4 397.24C187.4 398.314 186.502 399.185 185.395 399.185Z" fill="#CCDFFF"/>
<path d="M113.194 282.493C112.086 282.493 111.188 281.622 111.188 280.548C111.188 279.474 112.086 278.603 113.194 278.603C114.301 278.603 115.199 279.474 115.199 280.548C115.199 281.622 114.301 282.493 113.194 282.493Z" fill="#CCDFFF"/>
<path d="M161.328 282.493C160.221 282.493 159.323 281.622 159.323 280.548C159.323 279.474 160.221 278.603 161.328 278.603C162.436 278.603 163.334 279.474 163.334 280.548C163.334 281.622 162.436 282.493 161.328 282.493Z" fill="#CCDFFF"/>
<path d="M113.194 329.169C112.086 329.169 111.188 328.299 111.188 327.225C111.188 326.151 112.086 325.28 113.194 325.28C114.301 325.28 115.199 326.151 115.199 327.225C115.199 328.299 114.301 329.169 113.194 329.169Z" fill="#CCDFFF"/>
<path d="M113.194 399.185C112.086 399.185 111.188 398.314 111.188 397.24C111.188 396.166 112.086 395.295 113.194 395.295C114.301 395.295 115.199 396.166 115.199 397.24C115.199 398.314 114.301 399.185 113.194 399.185Z" fill="#CCDFFF"/>
<path d="M161.328 329.169C160.221 329.169 159.323 328.299 159.323 327.225C159.323 326.151 160.221 325.28 161.328 325.28C162.436 325.28 163.334 326.151 163.334 327.225C163.334 328.299 162.436 329.169 161.328 329.169Z" fill="#CCDFFF"/>
<path d="M161.328 399.185C160.221 399.185 159.323 398.314 159.323 397.24C159.323 396.166 160.221 395.295 161.328 395.295C162.436 395.295 163.334 396.166 163.334 397.24C163.334 398.314 162.436 399.185 161.328 399.185Z" fill="#CCDFFF"/>
<path d="M137.26 305.831C136.152 305.831 135.254 304.96 135.254 303.886C135.254 302.812 136.152 301.941 137.26 301.941C138.368 301.941 139.266 302.812 139.266 303.886C139.266 304.96 138.368 305.831 137.26 305.831Z" fill="#CCDFFF"/>
<path d="M185.395 305.831C184.287 305.831 183.389 304.96 183.389 303.886C183.389 302.812 184.287 301.941 185.395 301.941C186.502 301.941 187.4 302.812 187.4 303.886C187.4 304.96 186.502 305.831 185.395 305.831Z" fill="#CCDFFF"/>
<path d="M137.26 375.846C136.152 375.846 135.254 374.976 135.254 373.901C135.254 372.827 136.152 371.957 137.26 371.957C138.368 371.957 139.266 372.827 139.266 373.901C139.266 374.976 138.368 375.846 137.26 375.846Z" fill="#CCDFFF"/>
<path d="M185.395 375.846C184.287 375.846 183.389 374.976 183.389 373.901C183.389 372.827 184.287 371.957 185.395 371.957C186.502 371.957 187.4 372.827 187.4 373.901C187.4 374.976 186.502 375.846 185.395 375.846Z" fill="#CCDFFF"/>
<path d="M137.26 352.508C136.152 352.508 135.254 351.637 135.254 350.563C135.254 349.489 136.152 348.618 137.26 348.618C138.368 348.618 139.266 349.489 139.266 350.563C139.266 351.637 138.368 352.508 137.26 352.508Z" fill="#CCDFFF"/>
<path d="M185.395 352.508C184.287 352.508 183.389 351.637 183.389 350.563C183.389 349.489 184.287 348.618 185.395 348.618C186.502 348.618 187.4 349.489 187.4 350.563C187.4 351.637 186.502 352.508 185.395 352.508Z" fill="#CCDFFF"/>
<path d="M137.26 422.524C136.152 422.524 135.254 421.653 135.254 420.579C135.254 419.505 136.152 418.634 137.26 418.634C138.368 418.634 139.266 419.505 139.266 420.579C139.266 421.653 138.368 422.524 137.26 422.524Z" fill="#CCDFFF"/>
<path d="M185.395 422.524C184.287 422.524 183.389 421.653 183.389 420.579C183.389 419.505 184.287 418.634 185.395 418.634C186.502 418.634 187.4 419.505 187.4 420.579C187.4 421.653 186.502 422.524 185.395 422.524Z" fill="#CCDFFF"/>
<path d="M113.194 305.831C112.086 305.831 111.188 304.96 111.188 303.886C111.188 302.812 112.086 301.941 113.194 301.941C114.301 301.941 115.199 302.812 115.199 303.886C115.199 304.96 114.301 305.831 113.194 305.831Z" fill="#CCDFFF"/>
<path d="M113.194 375.846C112.086 375.846 111.188 374.976 111.188 373.901C111.188 372.827 112.086 371.957 113.194 371.957C114.301 371.957 115.199 372.827 115.199 373.901C115.199 374.976 114.301 375.846 113.194 375.846Z" fill="#CCDFFF"/>
<path d="M161.328 305.831C160.221 305.831 159.323 304.96 159.323 303.886C159.323 302.812 160.221 301.941 161.328 301.941C162.436 301.941 163.334 302.812 163.334 303.886C163.334 304.96 162.436 305.831 161.328 305.831Z" fill="#CCDFFF"/>
<path d="M161.328 375.846C160.221 375.846 159.323 374.976 159.323 373.901C159.323 372.827 160.221 371.957 161.328 371.957C162.436 371.957 163.334 372.827 163.334 373.901C163.334 374.976 162.436 375.846 161.328 375.846Z" fill="#CCDFFF"/>
<path d="M113.194 352.508C112.086 352.508 111.188 351.637 111.188 350.563C111.188 349.489 112.086 348.618 113.194 348.618C114.301 348.618 115.199 349.489 115.199 350.563C115.199 351.637 114.301 352.508 113.194 352.508Z" fill="#CCDFFF"/>
<path d="M113.194 422.524C112.086 422.524 111.188 421.653 111.188 420.579C111.188 419.505 112.086 418.634 113.194 418.634C114.301 418.634 115.199 419.505 115.199 420.579C115.199 421.653 114.301 422.524 113.194 422.524Z" fill="#CCDFFF"/>
<path d="M161.328 352.508C160.221 352.508 159.323 351.637 159.323 350.563C159.323 349.489 160.221 348.618 161.328 348.618C162.436 348.618 163.334 349.489 163.334 350.563C163.334 351.637 162.436 352.508 161.328 352.508Z" fill="#CCDFFF"/>
<path d="M161.328 422.524C160.221 422.524 159.323 421.653 159.323 420.579C159.323 419.505 160.221 418.634 161.328 418.634C162.436 418.634 163.334 419.505 163.334 420.579C163.334 421.653 162.436 422.524 161.328 422.524Z" fill="#CCDFFF"/>
<path d="M137.26 72.4464C136.152 72.4464 135.254 71.5756 135.254 70.5015C135.254 69.4274 136.152 68.5566 137.26 68.5566C138.368 68.5566 139.266 69.4274 139.266 70.5015C139.266 71.5756 138.368 72.4464 137.26 72.4464Z" fill="#CCDFFF"/>
<path d="M185.395 72.4464C184.287 72.4464 183.389 71.5756 183.389 70.5015C183.389 69.4274 184.287 68.5566 185.395 68.5566C186.502 68.5566 187.4 69.4274 187.4 70.5015C187.4 71.5756 186.502 72.4464 185.395 72.4464Z" fill="#CCDFFF"/>
<path d="M113.194 72.4464C112.086 72.4464 111.188 71.5756 111.188 70.5015C111.188 69.4274 112.086 68.5566 113.194 68.5566C114.301 68.5566 115.199 69.4274 115.199 70.5015C115.199 71.5756 114.301 72.4464 113.194 72.4464Z" fill="#CCDFFF"/>
<path d="M161.328 72.4464C160.221 72.4464 159.323 71.5756 159.323 70.5015C159.323 69.4274 160.221 68.5566 161.328 68.5566C162.436 68.5566 163.334 69.4274 163.334 70.5015C163.334 71.5756 162.436 72.4464 161.328 72.4464Z" fill="#CCDFFF"/>
<path d="M137.26 49.108C136.152 49.108 135.254 48.2373 135.254 47.1631C135.254 46.089 136.152 45.2183 137.26 45.2183C138.368 45.2183 139.266 46.089 139.266 47.1631C139.266 48.2373 138.368 49.108 137.26 49.108Z" fill="#CCDFFF"/>
<path d="M185.395 49.108C184.287 49.108 183.389 48.2373 183.389 47.1631C183.389 46.089 184.287 45.2183 185.395 45.2183C186.502 45.2183 187.4 46.089 187.4 47.1631C187.4 48.2373 186.502 49.108 185.395 49.108Z" fill="#CCDFFF"/>
<path d="M137.26 95.7848C136.152 95.7848 135.254 94.914 135.254 93.8399C135.254 92.7658 136.152 91.895 137.26 91.895C138.368 91.895 139.266 92.7658 139.266 93.8399C139.266 94.914 138.368 95.7848 137.26 95.7848Z" fill="#CCDFFF"/>
<path d="M185.395 95.7848C184.287 95.7848 183.389 94.914 183.389 93.8399C183.389 92.7658 184.287 91.895 185.395 91.895C186.502 91.895 187.4 92.7658 187.4 93.8399C187.4 94.914 186.502 95.7848 185.395 95.7848Z" fill="#CCDFFF"/>
<path d="M113.194 49.108C112.086 49.108 111.188 48.2373 111.188 47.1631C111.188 46.089 112.086 45.2183 113.194 45.2183C114.301 45.2183 115.199 46.089 115.199 47.1631C115.199 48.2373 114.301 49.108 113.194 49.108Z" fill="#CCDFFF"/>
<path d="M161.328 49.108C160.221 49.108 159.323 48.2373 159.323 47.1631C159.323 46.089 160.221 45.2183 161.328 45.2183C162.436 45.2183 163.334 46.089 163.334 47.1631C163.334 48.2373 162.436 49.108 161.328 49.108Z" fill="#CCDFFF"/>
<path d="M113.194 95.7848C112.086 95.7848 111.188 94.914 111.188 93.8399C111.188 92.7658 112.086 91.895 113.194 91.895C114.301 91.895 115.199 92.7658 115.199 93.8399C115.199 94.914 114.301 95.7848 113.194 95.7848Z" fill="#CCDFFF"/>
<path d="M161.328 95.7848C160.221 95.7848 159.323 94.914 159.323 93.8399C159.323 92.7658 160.221 91.895 161.328 91.895C162.436 91.895 163.334 92.7658 163.334 93.8399C163.334 94.914 162.436 95.7848 161.328 95.7848Z" fill="#CCDFFF"/>
<path d="M137.26 445.862C136.152 445.862 135.254 444.991 135.254 443.917C135.254 442.843 136.152 441.972 137.26 441.972C138.368 441.972 139.266 442.843 139.266 443.917C139.266 444.991 138.368 445.862 137.26 445.862Z" fill="#CCDFFF"/>
<path d="M185.395 445.862C184.287 445.862 183.389 444.991 183.389 443.917C183.389 442.843 184.287 441.972 185.395 441.972C186.502 441.972 187.4 442.843 187.4 443.917C187.4 444.991 186.502 445.862 185.395 445.862Z" fill="#CCDFFF"/>
<path d="M137.26 492.539C136.152 492.539 135.254 491.668 135.254 490.594C135.254 489.52 136.152 488.649 137.26 488.649C138.368 488.649 139.266 489.52 139.266 490.594C139.266 491.668 138.368 492.539 137.26 492.539Z" fill="#CCDFFF"/>
<path d="M185.395 492.539C184.287 492.539 183.389 491.668 183.389 490.594C183.389 489.52 184.287 488.649 185.395 488.649C186.502 488.649 187.4 489.52 187.4 490.594C187.4 491.668 186.502 492.539 185.395 492.539Z" fill="#CCDFFF"/>
<path d="M113.194 445.862C112.086 445.862 111.188 444.991 111.188 443.917C111.188 442.843 112.086 441.972 113.194 441.972C114.301 441.972 115.199 442.843 115.199 443.917C115.199 444.991 114.301 445.862 113.194 445.862Z" fill="#CCDFFF"/>
<path d="M161.328 445.862C160.221 445.862 159.323 444.991 159.323 443.917C159.323 442.843 160.221 441.972 161.328 441.972C162.436 441.972 163.334 442.843 163.334 443.917C163.334 444.991 162.436 445.862 161.328 445.862Z" fill="#CCDFFF"/>
<path d="M113.194 492.539C112.086 492.539 111.188 491.668 111.188 490.594C111.188 489.52 112.086 488.649 113.194 488.649C114.301 488.649 115.199 489.52 115.199 490.594C115.199 491.668 114.301 492.539 113.194 492.539Z" fill="#CCDFFF"/>
<path d="M161.328 492.539C160.221 492.539 159.323 491.668 159.323 490.594C159.323 489.52 160.221 488.649 161.328 488.649C162.436 488.649 163.334 489.52 163.334 490.594C163.334 491.668 162.436 492.539 161.328 492.539Z" fill="#CCDFFF"/>
<path d="M137.26 469.2C136.152 469.2 135.254 468.33 135.254 467.255C135.254 466.181 136.152 465.311 137.26 465.311C138.368 465.311 139.266 466.181 139.266 467.255C139.266 468.33 138.368 469.2 137.26 469.2Z" fill="#CCDFFF"/>
<path d="M185.395 469.2C184.287 469.2 183.389 468.33 183.389 467.255C183.389 466.181 184.287 465.311 185.395 465.311C186.502 465.311 187.4 466.181 187.4 467.255C187.4 468.33 186.502 469.2 185.395 469.2Z" fill="#CCDFFF"/>
<path d="M137.26 515.878C136.152 515.878 135.254 515.007 135.254 513.933C135.254 512.859 136.152 511.988 137.26 511.988C138.368 511.988 139.266 512.859 139.266 513.933C139.266 515.007 138.368 515.878 137.26 515.878Z" fill="#CCDFFF"/>
<path d="M185.395 515.878C184.287 515.878 183.389 515.007 183.389 513.933C183.389 512.859 184.287 511.988 185.395 511.988C186.502 511.988 187.4 512.859 187.4 513.933C187.4 515.007 186.502 515.878 185.395 515.878Z" fill="#CCDFFF"/>
<path d="M113.194 469.2C112.086 469.2 111.188 468.33 111.188 467.255C111.188 466.181 112.086 465.311 113.194 465.311C114.301 465.311 115.199 466.181 115.199 467.255C115.199 468.33 114.301 469.2 113.194 469.2Z" fill="#CCDFFF"/>
<path d="M161.328 469.2C160.221 469.2 159.323 468.33 159.323 467.255C159.323 466.181 160.221 465.311 161.328 465.311C162.436 465.311 163.334 466.181 163.334 467.255C163.334 468.33 162.436 469.2 161.328 469.2Z" fill="#CCDFFF"/>
<path d="M113.194 515.878C112.086 515.878 111.188 515.007 111.188 513.933C111.188 512.859 112.086 511.988 113.194 511.988C114.301 511.988 115.199 512.859 115.199 513.933C115.199 515.007 114.301 515.878 113.194 515.878Z" fill="#CCDFFF"/>
<path d="M161.328 515.878C160.221 515.878 159.323 515.007 159.323 513.933C159.323 512.859 160.221 511.988 161.328 511.988C162.436 511.988 163.334 512.859 163.334 513.933C163.334 515.007 162.436 515.878 161.328 515.878Z" fill="#CCDFFF"/>
<path d="M298.853 81.3057H358.319V108.699H298.853V81.3057ZM454.757 222.426V207.897C454.757 207.897 463.301 189.674 441.59 189.674C426.368 189.674 424.814 171.577 424.814 171.577C424.814 171.577 439.023 171.577 451.959 171.577C464.895 171.577 475.004 179.483 476.969 189.013C478.934 198.552 485.402 205.087 503.132 210.319C520.861 215.55 520.24 233.152 520.24 233.152H483.768C476.829 224.983 454.757 222.426 454.757 222.426ZM454.466 436.595H396.475V385.066H454.466V436.595ZM132.53 142.462C132.53 142.462 123.535 159.995 104.291 161.94C85.0575 163.885 87.8352 174.271 87.8352 174.271C87.8352 174.271 88.8781 180.358 93.1901 181.185V201.071H82.8614C73.2947 201.071 65.5431 193.554 65.5431 184.277V157.409C65.5431 149.153 72.4523 142.452 80.9661 142.452H132.53V142.462ZM98.9561 218.633C98.9561 218.633 158.933 229.379 160.628 289.961C161.731 306.113 159.505 338.622 159.505 338.622L178.528 346.547V357.419H121.148V261.167C121.148 261.187 121.148 232.082 98.9561 218.633ZM200.589 167.298H305.481V275.9H263.625L200.589 167.298Z" fill="url(#paint0_linear_3014_10454)"/>
<path d="M233.38 48.7386H424.172C425.004 48.7386 425.676 48.0871 425.676 47.2799C425.676 46.4728 425.004 45.8213 424.172 45.8213H233.38C232.548 45.8213 231.876 46.4728 231.876 47.2799C231.876 48.0871 232.548 48.7386 233.38 48.7386Z" fill="#6A2EA0"/>
<path d="M328.304 100.958C329.137 100.958 329.809 100.307 329.809 99.4997V46.9201C329.809 46.113 329.137 45.4614 328.304 45.4614C327.472 45.4614 326.8 46.113 326.8 46.9201V99.5094C326.8 100.307 327.472 100.958 328.304 100.958Z" fill="#6A2EA0"/>
<path d="M328.304 130.958C340.959 130.958 351.268 120.971 351.268 108.689C351.268 96.417 340.969 86.4204 328.304 86.4204C315.648 86.4204 305.34 96.4073 305.34 108.689C305.34 120.971 315.638 130.958 328.304 130.958ZM328.304 89.3474C339.304 89.3474 348.259 98.0313 348.259 108.699C348.259 119.367 339.314 128.05 328.304 128.05C317.293 128.05 308.348 119.376 308.348 108.699C308.348 98.0216 317.303 89.3474 328.304 89.3474Z" fill="#6A2EA0"/>
<path d="M436.414 213.868C440.295 213.868 445.76 212.497 450.152 209.025C450.794 208.52 450.894 207.596 450.373 206.973C449.851 206.351 448.899 206.254 448.257 206.759C442.371 211.408 435.08 211.31 433.827 210.552C433.365 207.839 433.616 193.884 433.897 184.938C433.927 184.131 433.275 183.46 432.443 183.431C431.621 183.401 430.919 184.034 430.889 184.841C430.808 187.213 430.167 208.121 430.929 211.378C431.079 212.02 431.581 212.905 433.145 213.421C433.977 213.712 435.11 213.868 436.414 213.868Z" fill="#6A2EA0"/>
<path d="M104.279 221.706C105.112 221.706 105.783 221.054 105.783 220.247V200.798C110.276 202.743 114.407 202.841 117.576 201.061C120.755 199.272 122.65 195.693 122.65 191.473V153.84C122.65 153.032 121.979 152.381 121.146 152.381C120.314 152.381 119.642 153.032 119.642 153.84V191.473C119.642 194.633 118.308 197.278 116.072 198.533C113.344 200.069 109.424 199.583 105.031 197.152C104.57 196.899 103.998 196.899 103.527 197.162C103.066 197.424 102.775 197.901 102.775 198.426V220.247C102.775 221.054 103.457 221.706 104.279 221.706Z" fill="#6A2EA0"/>
<path d="M425.875 402.209C426.125 402.209 426.386 402.151 426.617 402.024L455.206 386.339C455.928 385.94 456.179 385.055 455.778 384.355C455.367 383.655 454.454 383.412 453.732 383.801L425.865 399.088L397.195 383.791C396.463 383.402 395.55 383.665 395.149 384.365C394.748 385.075 395.019 385.96 395.741 386.349L425.143 402.034C425.373 402.151 425.624 402.209 425.875 402.209Z" fill="#6A2EA0"/>
<path d="M351.839 419.354C352.672 419.354 353.343 418.702 353.343 417.895V363.244H424.271V378.929C424.271 379.736 424.943 380.388 425.775 380.388C426.607 380.388 427.279 379.736 427.279 378.929V361.785C427.279 360.978 426.607 360.327 425.775 360.327H351.839C351.007 360.327 350.335 360.978 350.335 361.785V417.895C350.335 418.702 351.007 419.354 351.839 419.354Z" fill="#6A2EA0"/>
<path d="M330.941 435.175C331.774 435.175 332.446 434.524 332.446 433.716V363.234H350.335V433.716C350.335 434.524 351.007 435.175 351.84 435.175C352.672 435.175 353.344 434.524 353.344 433.716V361.776C353.344 360.968 352.672 360.317 351.84 360.317H330.941C330.109 360.317 329.437 360.968 329.437 361.776V433.716C329.437 434.524 330.109 435.175 330.941 435.175Z" fill="#6A2EA0"/>
<path d="M293.366 438.054H488.72C489.553 438.054 490.225 437.402 490.225 436.595C490.225 435.788 489.553 435.136 488.72 435.136H293.366C292.534 435.136 291.862 435.788 291.862 436.595C291.862 437.402 292.544 438.054 293.366 438.054Z" fill="#6A2EA0"/>
<path d="M159.504 340.09C160.226 340.09 160.858 339.594 160.988 338.884C161.028 338.69 164.478 319.037 162.743 296.214C160.437 265.786 149.987 243.498 132.539 231.77C122.16 224.798 110.658 219.761 99.2962 217.223C98.484 217.038 97.6817 217.534 97.4912 218.312C97.3007 219.1 97.8121 219.878 98.6143 220.062C109.615 222.523 120.756 227.394 130.824 234.163C171.277 261.352 158.16 337.62 158.02 338.379C157.879 339.176 158.431 339.925 159.243 340.061C159.333 340.08 159.424 340.09 159.504 340.09Z" fill="#6A2EA0"/>
<path d="M132.529 358.887H259.824C260.656 358.887 261.328 358.236 261.328 357.429C261.328 356.622 260.656 355.97 259.824 355.97H134.034V300.191C134.034 299.384 133.362 298.732 132.529 298.732C131.697 298.732 131.025 299.384 131.025 300.191V357.429C131.025 358.236 131.697 358.887 132.529 358.887Z" fill="#6A2EA0"/>
<path d="M121.146 394.955C121.979 394.955 122.65 394.304 122.65 393.496V264.62C122.65 230.788 94.2713 203.269 59.3842 203.269C58.5518 203.269 57.88 203.92 57.88 204.727C57.88 205.534 58.5518 206.186 59.3842 206.186C92.6067 206.186 119.642 232.403 119.642 264.62V393.496C119.642 394.304 120.314 394.955 121.146 394.955Z" fill="#6A2EA0"/>
<path d="M225.558 358.887C225.909 358.887 226.27 358.77 226.551 358.518C227.172 357.983 227.232 357.069 226.681 356.466C226.54 356.31 212.752 341.549 191.082 348.628L152.494 334.323C151.722 334.032 150.85 334.411 150.549 335.169C150.248 335.918 150.639 336.764 151.421 337.056L190.52 351.555C190.851 351.681 191.222 351.681 191.553 351.565C211.579 344.738 223.913 357.847 224.425 358.411C224.735 358.722 225.147 358.887 225.558 358.887Z" fill="#6A2EA0"/>
<path d="M171.307 323.082H298.271C299.103 323.082 299.775 322.431 299.775 321.624C299.775 304.976 313.744 291.42 330.922 291.42H527.59C528.422 291.42 529.094 290.768 529.094 289.961C529.094 289.154 528.422 288.502 527.59 288.502H330.912C312.581 288.502 297.579 302.574 296.797 320.165H171.307C170.475 320.165 169.803 320.816 169.803 321.624C169.803 322.431 170.475 323.082 171.307 323.082Z" fill="#6A2EA0"/>
<path d="M157.959 276.318H305.48C306.313 276.318 306.984 275.666 306.984 274.859V167.298C306.984 166.491 306.313 165.839 305.48 165.839H139.448C138.615 165.839 137.944 166.491 137.944 167.298V239.326C137.944 240.133 138.615 240.785 139.448 240.785C140.28 240.785 140.952 240.133 140.952 239.326V168.757H303.976V273.401H157.959C157.127 273.401 156.455 274.052 156.455 274.859C156.455 275.666 157.127 276.318 157.959 276.318Z" fill="#6A2EA0"/>
<path d="M235.164 316.178C235.996 316.178 236.668 315.526 236.668 314.719V274.859C236.668 274.052 235.996 273.4 235.164 273.4C234.331 273.4 233.66 274.052 233.66 274.859V314.719C233.66 315.526 234.331 316.178 235.164 316.178Z" fill="#6A2EA0"/>
<path d="M209.332 316.178C210.164 316.178 210.836 315.526 210.836 314.719V274.859C210.836 274.052 210.164 273.4 209.332 273.4C208.499 273.4 207.828 274.052 207.828 274.859V314.719C207.828 315.526 208.509 316.178 209.332 316.178Z" fill="#6A2EA0"/>
<path d="M261.056 323.082C261.889 323.082 262.561 322.431 262.561 321.624V314.719C262.561 313.912 261.889 313.261 261.056 313.261H188.765C187.933 313.261 187.261 313.912 187.261 314.719C187.261 315.527 187.933 316.178 188.765 316.178H259.552V321.624C259.552 322.421 260.224 323.082 261.056 323.082Z" fill="#6A2EA0"/>
<path d="M506.632 291.42C506.652 291.42 506.662 291.42 506.682 291.42C507.514 291.391 508.166 290.72 508.136 289.912C508.116 289.251 507.494 273.43 500.705 256.927C491.83 235.33 476.478 222.96 456.261 221.093V207.907C456.261 207.1 455.589 206.448 454.757 206.448C453.925 206.448 453.253 207.1 453.253 207.907V222.435C453.253 223.203 453.865 223.835 454.657 223.894C474.622 225.255 489.173 236.73 497.917 258.017C504.506 274.052 505.127 289.864 505.127 290.019C505.157 290.797 505.829 291.42 506.632 291.42Z" fill="#6A2EA0"/>
<path d="M411.246 286.402H485.082C485.914 286.402 486.586 285.75 486.586 284.943V252.425C486.586 251.618 485.914 250.966 485.082 250.966C484.249 250.966 483.578 251.618 483.578 252.425V283.485H411.256C410.424 283.485 409.752 284.136 409.752 284.943C409.752 285.75 410.424 286.402 411.246 286.402Z" fill="#6A2EA0"/>
<path d="M406.041 279.43C406.151 279.43 406.262 279.42 406.372 279.391C413.773 277.777 424.302 279.391 424.412 279.41C424.623 279.449 424.854 279.43 425.064 279.371C442.523 274.616 472.266 274.081 472.566 274.072C473.399 274.062 474.061 273.391 474.041 272.594C474.031 271.786 473.339 271.135 472.516 271.164C471.293 271.183 442.433 271.699 424.573 276.483C422.637 276.201 413.011 274.957 405.72 276.551C404.908 276.726 404.397 277.514 404.587 278.292C404.738 278.973 405.359 279.43 406.041 279.43Z" fill="#6A2EA0"/>
<path d="M464.754 274.081C464.815 274.081 464.885 274.081 464.945 274.071C465.767 273.964 466.349 273.235 466.249 272.438L463.992 255.41C463.882 254.613 463.13 254.049 462.308 254.146C461.485 254.253 460.904 254.982 461.004 255.78L463.26 272.807C463.36 273.537 464.012 274.081 464.754 274.081Z" fill="#6A2EA0"/>
<path d="M434.329 277.358C434.51 277.358 434.68 277.329 434.861 277.261C435.643 276.979 436.034 276.133 435.733 275.384C425.304 248.584 427.701 236.205 431.551 230.545C435.021 225.44 440.055 225.177 440.105 225.168C440.938 225.129 441.579 224.448 441.539 223.651C441.499 222.853 440.807 222.221 439.975 222.26C439.704 222.27 433.346 222.61 429.044 228.941C422.887 237.994 424.191 253.971 432.925 276.415C433.146 276.998 433.717 277.358 434.329 277.358Z" fill="#6A2EA0"/>
<path d="M450.415 236.856H453.715C454.547 236.856 455.219 236.205 455.219 235.398C455.219 234.591 454.547 233.939 453.715 233.939H450.415C445.592 233.939 441.671 230.137 441.671 225.459V212.516C441.671 211.709 440.999 211.058 440.167 211.058C439.335 211.058 438.663 211.709 438.663 212.516V225.459C438.673 231.741 443.937 236.856 450.415 236.856Z" fill="#6A2EA0"/>
<path d="M337.489 291.419C337.74 291.419 337.99 291.361 338.221 291.235C338.943 290.836 339.204 289.951 338.793 289.251L309.351 238.519H381.411L411.686 290.68C412.097 291.381 413.009 291.633 413.731 291.235C414.453 290.836 414.714 289.951 414.303 289.251L383.597 236.35C383.327 235.893 382.825 235.611 382.284 235.611H306.773C306.242 235.611 305.74 235.884 305.48 236.331C305.209 236.778 305.209 237.333 305.47 237.78L336.175 290.68C336.446 291.157 336.957 291.419 337.489 291.419Z" fill="#6A2EA0"/>
<path d="M476.046 358.683C472.53 358.683 469.679 355.918 469.679 352.508C469.679 349.098 472.53 346.333 476.046 346.333C479.563 346.333 482.414 349.098 482.414 352.508C482.414 355.918 479.563 358.683 476.046 358.683Z" fill="#0061FF"/>
<path d="M209.574 55.283C206.057 55.283 203.206 52.5184 203.206 49.1081C203.206 45.6977 206.057 42.9331 209.574 42.9331C213.09 42.9331 215.941 45.6977 215.941 49.1081C215.941 52.5184 213.09 55.283 209.574 55.283Z" fill="#0061FF"/>
<path d="M223.582 452.64C224.414 452.64 225.086 451.988 225.086 451.181V432.199C225.086 395.947 194.671 366.443 157.277 366.443H137.572C136.74 366.443 136.068 367.094 136.068 367.902C136.068 368.709 136.74 369.36 137.572 369.36H157.277C193.007 369.36 222.078 397.551 222.078 432.199V451.181C222.078 451.978 222.749 452.64 223.582 452.64Z" fill="#6A2EA0"/>
<defs>
<linearGradient id="paint0_linear_3014_10454" x1="380.002" y1="93.4495" x2="205.702" y2="404.77" gradientUnits="userSpaceOnUse">
<stop stop-color="#FF4C84"/>
<stop offset="0.6237" stop-color="#9176D0"/>
<stop offset="1" stop-color="#4C90FF"/>
</linearGradient>
</defs>
</svg>
