<svg width="97" height="124" viewBox="0 0 97 124" fill="none" xmlns="http://www.w3.org/2000/svg">
<g clip-path="url(#clip0_3012_13175)">
<path d="M78.1053 102.028C77.7409 102.028 77.4468 101.734 77.4468 101.37V30.3909C77.4468 25.2241 73.2413 21.0186 68.0745 21.0186H27.6091C22.4423 21.0186 18.2369 25.2241 18.2369 30.3909V47.1995C18.2369 47.5639 17.9428 47.858 17.5784 47.858C17.214 47.858 16.9199 47.5639 16.9199 47.1995V30.3909C16.9199 24.4953 21.7136 19.7017 27.6091 19.7017H68.0789C73.9744 19.7017 78.7681 24.4953 78.7681 30.3909V101.37C78.7637 101.734 78.4696 102.028 78.1053 102.028Z" fill="#6A2EA0"/>
<path d="M72.3378 99.4473C72.3378 104.847 67.9612 109.219 62.5661 109.219C57.171 109.219 52.7943 104.842 52.7943 99.4473C52.7943 94.0479 57.171 89.6756 62.5661 89.6756C67.9612 89.6756 72.3378 94.0479 72.3378 99.4473ZM59.682 17.1031H52.6978C52.6802 17.1031 52.6714 17.0855 52.6802 17.0723C53.2684 16.1944 53.6196 15.1452 53.6504 14.0126C53.7382 10.6149 50.7706 7.81419 47.3817 8.09514C44.4142 8.34097 42.0788 10.83 42.0788 13.8634C42.0788 15.0486 42.4344 16.1549 43.0489 17.0723C43.0577 17.0855 43.0489 17.1031 43.0314 17.1031H36.7276C34.4888 17.1031 32.6758 18.916 32.6758 21.1549C32.6758 23.3937 34.4888 25.2067 36.7276 25.2067H59.682C61.9208 25.2067 63.7338 23.3937 63.7338 21.1549C63.7338 18.916 61.9208 17.1031 59.682 17.1031ZM47.9611 16.765C46.2359 16.765 44.84 15.3647 44.84 13.6439C44.84 11.9231 46.2403 10.5227 47.9611 10.5227C49.6863 10.5227 51.0823 11.9231 51.0823 13.6439C51.0823 15.3647 49.6863 16.765 47.9611 16.765ZM105.687 59.9784H99.5459V111.313H105.687V59.9784Z" fill="url(#paint0_linear_3012_13175)"/>
<path d="M58.5228 48.0645H10.8186C10.4543 48.0645 10.1602 47.7704 10.1602 47.406C10.1602 47.0417 10.4543 46.7476 10.8186 46.7476H58.5228C58.8872 46.7476 59.1813 47.0417 59.1813 47.406C59.1813 47.7704 58.8872 48.0645 58.5228 48.0645Z" fill="#6A2EA0"/>
<path d="M67.0609 58.3936H33.4788C33.1144 58.3936 32.8203 58.0995 32.8203 57.7351C32.8203 57.3708 33.1144 57.0767 33.4788 57.0767H67.0653C67.4297 57.0767 67.7238 57.3708 67.7238 57.7351C67.7238 58.0995 67.4253 58.3936 67.0609 58.3936Z" fill="#6A2EA0"/>
<path d="M58.5237 69.855H22.6018C22.2375 69.855 21.9434 69.5609 21.9434 69.1966C21.9434 68.8322 22.2375 68.5381 22.6018 68.5381H58.5237C58.8881 68.5381 59.1822 68.8322 59.1822 69.1966C59.1822 69.5609 58.8881 69.855 58.5237 69.855Z" fill="#6A2EA0"/>
<path d="M47.8418 102.028H26.7575C17.0341 102.028 16.9199 92.5157 16.9199 92.4192V69.6009C16.9199 69.2365 17.214 68.9424 17.5784 68.9424C17.9428 68.9424 18.2369 69.2365 18.2369 69.6009V92.4192C18.2369 92.7572 18.3598 100.712 26.7575 100.712H47.8418C48.2062 100.712 48.5003 101.006 48.5003 101.37C48.5003 101.734 48.2062 102.028 47.8418 102.028Z" fill="#6A2EA0"/>
<path d="M47.8416 114.368C47.5343 114.368 47.2577 114.153 47.1963 113.837C47.126 113.482 47.3543 113.135 47.7143 113.06C53.3728 111.928 58.3903 108.811 61.9197 105.374C59.5317 102.09 59.2946 98.3279 60.5808 95.6721C61.7222 93.3059 63.8556 92.248 66.1384 92.9109C67.7582 93.3806 68.6098 94.658 68.5308 96.4974C68.4255 98.9732 66.6476 102.314 63.6844 105.466C64.2902 106.146 65.0146 106.796 65.8574 107.397C72.1436 111.857 77.6046 105.712 77.8328 105.448C77.9689 105.29 78.1665 105.207 78.3816 105.224C78.5879 105.242 78.7767 105.352 78.8864 105.527C79.0005 105.707 81.7837 109.935 86.2218 107.367C86.5379 107.187 86.9373 107.292 87.1217 107.608C87.3061 107.924 87.1963 108.324 86.8803 108.508C82.5343 111.023 79.422 108.227 78.2674 106.879C76.551 108.499 71.1208 112.753 65.0936 108.473C64.1937 107.832 63.4167 107.138 62.7582 106.41C59.0795 109.987 53.8995 113.17 47.9733 114.36C47.925 114.368 47.8811 114.368 47.8416 114.368ZM64.8214 94.0391C63.5571 94.0391 62.4509 94.8204 61.7617 96.2471C60.6906 98.464 60.8881 101.607 62.8504 104.421C65.5062 101.572 67.1173 98.6089 67.2051 96.4447C67.2578 95.2155 66.7837 94.4736 65.7608 94.1751C65.4448 94.083 65.1287 94.0391 64.8214 94.0391Z" fill="#6A2EA0"/>
</g>
<defs>
<linearGradient id="paint0_linear_3012_13175" x1="39.4206" y1="12.0566" x2="98.9669" y2="115.194" gradientUnits="userSpaceOnUse">
<stop stop-color="#4C90FF"/>
<stop offset="1" stop-color="#FF4C84"/>
</linearGradient>
<clipPath id="clip0_3012_13175">
<rect width="97" height="124" fill="white"/>
</clipPath>
</defs>
</svg>
