<svg width="123" height="102" viewBox="0 0 123 102" fill="none" xmlns="http://www.w3.org/2000/svg">
<path d="M59.565 87.2517H10.916V46.7153C20.1961 46.7153 24.7849 35.1057 38.0808 35.1057C56.0032 35.1057 59.5704 46.7153 59.5704 46.7153L59.565 87.2517ZM93.4426 126.156C97.3503 126.156 100.512 122.989 100.512 119.086C100.512 118.135 100.323 117.232 99.9825 116.405C101.631 116.259 103.339 116.47 104.836 116.93C105.452 117.119 106.09 117.227 106.728 117.265C105.906 102.828 119.175 104.169 119.175 104.169C119.175 104.169 120.759 112.968 113.046 116.362C117.608 116.27 122.294 118.632 121.105 125.804C119.905 133.063 114.911 136.868 111.77 137.787C110.808 138.068 109.776 137.782 109.095 137.052C108.052 135.928 106.274 135.928 105.225 137.052C104.544 137.782 103.512 138.068 102.55 137.787C99.4582 136.884 94.4047 133.177 93.275 126.145C93.3345 126.15 93.3885 126.156 93.4426 126.156ZM59.6461 -0.706773V-5.83057H16.8127V-0.706773H59.6461ZM73.0717 56.9845L69.0397 53.9092L65.0077 56.9845V26.485H73.0771V56.9845H73.0717Z" fill="url(#paint0_linear_3394_17930)"/>
<path d="M108.214 88.062H10.9162C10.4676 88.062 10.1055 87.6998 10.1055 87.2512V26.717C10.1055 26.2684 10.4676 25.9062 10.9162 25.9062H108.214C108.663 25.9062 109.025 26.2684 109.025 26.717V87.2512C109.025 87.6998 108.663 88.062 108.214 88.062ZM11.7269 86.4405H107.403V27.5277H11.7269V86.4405Z" fill="#6A2EA0"/>
<path d="M59.5646 88.0621C59.116 88.0621 58.7539 87.7 58.7539 87.2514V40.7697C58.7539 40.3211 59.116 39.959 59.5646 39.959C60.0132 39.959 60.3754 40.3211 60.3754 40.7697V87.2514C60.3754 87.7 60.0132 88.0621 59.5646 88.0621Z" fill="#6A2EA0"/>
<path d="M99.62 47.1097H77.9357C77.4871 47.1097 77.125 46.7476 77.125 46.299C77.125 45.8504 77.4871 45.4883 77.9357 45.4883H99.62C100.069 45.4883 100.431 45.8504 100.431 46.299C100.431 46.7476 100.063 47.1097 99.62 47.1097Z" fill="#6A2EA0"/>
<path d="M99.6199 57.7948H88.2697C87.8211 57.7948 87.459 57.4327 87.459 56.9841C87.459 56.5355 87.8211 56.1733 88.2697 56.1733H99.6199C100.068 56.1733 100.431 56.5355 100.431 56.9841C100.431 57.4327 100.063 57.7948 99.6199 57.7948Z" fill="#6A2EA0"/>
<path d="M99.6187 68.4803H65.006C64.5574 68.4803 64.1953 68.1182 64.1953 67.6696C64.1953 67.221 64.5574 66.8589 65.006 66.8589H99.6187C100.067 66.8589 100.429 67.221 100.429 67.6696C100.429 68.1182 100.062 68.4803 99.6187 68.4803Z" fill="#6A2EA0"/>
<path d="M59.5635 92.8456C56.2503 92.8456 53.1641 91.062 51.5048 88.192C51.2778 87.8028 51.413 87.311 51.8021 87.084C52.1859 86.8624 52.6831 86.9921 52.9101 87.3813C54.2829 89.754 56.834 91.2241 59.5689 91.2241C62.3037 91.2241 64.8548 89.754 66.2276 87.3813C66.4546 86.9921 66.9465 86.8624 67.3356 87.084C67.7248 87.311 67.8545 87.8028 67.6329 88.192C65.9682 91.062 62.8766 92.8456 59.5635 92.8456Z" fill="#6A2EA0"/>
<path d="M51.1823 92.8456H10.9162C10.4676 92.8456 10.1055 92.4835 10.1055 92.0349C10.1055 91.5862 10.4676 91.2241 10.9162 91.2241H51.1823C51.6309 91.2241 51.993 91.5862 51.993 92.0349C51.993 92.4835 51.6309 92.8456 51.1823 92.8456Z" fill="#6A2EA0"/>
<path d="M108.397 92.8456H68.131C67.6824 92.8456 67.3203 92.4835 67.3203 92.0349C67.3203 91.5862 67.6824 91.2241 68.131 91.2241H108.397C108.846 91.2241 109.208 91.5862 109.208 92.0349C109.208 92.4835 108.846 92.8456 108.397 92.8456Z" fill="#6A2EA0"/>
<path d="M59.6461 0.103645H16.8127C16.3641 0.103645 16.002 -0.258479 16.002 -0.707081V-5.83087C16.002 -6.27948 16.3641 -6.6416 16.8127 -6.6416H32.9786C33.4272 -6.6416 33.7893 -6.27948 33.7893 -5.83087C33.7893 -5.38227 33.4272 -5.02015 32.9786 -5.02015H17.6234V-1.51781H58.8354V-5.02015H39.7562C39.3076 -5.02015 38.9455 -5.38227 38.9455 -5.83087C38.9455 -6.27948 39.3076 -6.6416 39.7562 -6.6416H59.6515C60.1001 -6.6416 60.4622 -6.27948 60.4622 -5.83087V-0.707081C60.4568 -0.258479 60.0947 0.103645 59.6461 0.103645Z" fill="#6A2EA0"/>
<path d="M59.6448 0.103703C59.2989 0.103703 58.98 -0.117896 58.8719 -0.463806C58.7368 -0.890789 58.9746 -1.3448 59.4015 -1.47992L65.082 -3.26892L59.4015 -5.05792C58.9746 -5.19305 58.7368 -5.64705 58.8719 -6.07404C59.007 -6.50102 59.461 -6.73883 59.888 -6.60371L65.8063 -4.73904C66.4495 -4.53365 66.8819 -3.94453 66.8819 -3.26892C66.8819 -2.59332 66.4495 -2.00419 65.8063 -1.7988L59.888 0.0658689C59.8069 0.0928931 59.7258 0.103703 59.6448 0.103703Z" fill="#6A2EA0"/>
<path d="M59.6447 32.133C59.1961 32.133 58.834 31.7709 58.834 31.3222V22.6745C58.834 22.2259 59.1961 21.8638 59.6447 21.8638C60.0933 21.8638 60.4554 22.2259 60.4554 22.6745V31.3222C60.4554 31.7709 60.0933 32.133 59.6447 32.133Z" fill="#6A2EA0"/>
<defs>
<linearGradient id="paint0_linear_3394_17930" x1="10.9167" y1="66.0319" x2="121.293" y2="66.0319" gradientUnits="userSpaceOnUse">
<stop stop-color="#4C90FF"/>
<stop offset="0.3921" stop-color="#9077D1"/>
<stop offset="1" stop-color="#FF4C84"/>
</linearGradient>
</defs>
</svg>
